<svg width="207" height="208" viewBox="0 0 207 208" fill="none" xmlns="http://www.w3.org/2000/svg">
<path d="M21.7852 103.531C21.7852 125.276 30.3726 146.115 45.6826 161.484C60.9775 176.852 81.7317 185.496 103.358 185.496C125 185.496 145.739 176.867 161.034 161.484C176.329 146.1 184.931 125.261 184.931 103.531C184.931 81.8002 176.344 60.9462 161.034 45.5777C145.739 30.2093 125 21.5654 103.358 21.5654C81.7317 21.5654 60.9775 30.1941 45.6826 45.5777C30.3876 60.9462 21.7852 81.8002 21.7852 103.531Z" fill="#9FEAFF"/>
<path d="M124.821 116.468H145.951C146.568 116.468 147.17 116.347 147.726 116.09C148.283 115.848 148.779 115.47 149.185 115.017C149.591 114.564 149.892 114.02 150.072 113.43C150.253 112.841 150.313 112.221 150.238 111.617C147.937 93.2261 135.544 47.4531 124.821 47.4531V116.468Z" fill="#9FEAFF"/>
<path d="M124.82 168.237C122.444 168.237 120.534 166.303 120.534 163.93V47.4504C120.534 45.0627 122.459 43.1436 124.82 43.1436C129.227 43.1436 136.085 46.0601 144.732 71.236C149.876 86.1814 153.395 102.381 154.493 111.085C154.643 112.309 154.538 113.564 154.177 114.727C153.816 115.906 153.215 116.979 152.387 117.901C151.575 118.822 150.583 119.548 149.455 120.046C148.327 120.545 147.154 120.817 145.905 120.787H129.122V163.93C129.122 166.303 127.197 168.237 124.82 168.237ZM129.122 112.158H145.966C144.988 104.194 141.74 89.1734 136.987 75.0743C133.934 66.0225 131.242 60.2952 129.122 56.7742V112.158Z" fill="#00638C"/>
<path d="M103.361 207.059C89.7658 207.059 76.5011 204.414 63.9283 199.186C51.3554 193.957 40.1211 186.401 30.4959 176.745C20.8858 167.089 13.3662 155.785 8.16261 143.152C2.95902 130.534 0.327148 117.19 0.327148 103.529C0.327148 89.8686 2.95902 76.5402 8.16261 63.9069C13.3662 51.2887 20.8858 39.9853 30.4959 30.3138C40.1061 20.6575 51.3554 13.1017 63.9283 7.87314C76.5011 2.64453 89.7658 0 103.361 0C116.957 0 130.221 2.64453 142.794 7.88825C155.352 13.1169 166.601 20.6727 176.227 30.329C185.837 39.9853 193.356 51.2887 198.56 63.922C203.764 76.5402 206.395 89.8686 206.395 103.545C206.395 117.221 203.764 130.534 198.56 143.167C193.356 155.8 185.837 167.089 176.227 176.76C166.617 186.417 155.367 193.972 142.794 199.201C130.221 204.414 116.957 207.059 103.361 207.059ZM103.361 8.62872C90.8937 8.62872 78.7269 11.0617 67.2219 15.8521C55.7018 20.6424 45.3999 27.5635 36.5718 36.4189C27.7588 45.2743 20.8708 55.6409 16.1034 67.2163C11.3359 78.7918 8.91458 91.002 8.91458 103.529C8.91458 116.057 11.3359 128.282 16.1034 139.843C20.8708 151.418 27.7588 161.77 36.5718 170.625C45.3848 179.48 55.6867 186.401 67.2219 191.192C78.742 195.982 90.8937 198.415 103.361 198.415C115.829 198.415 127.996 195.982 139.501 191.192C151.021 186.401 161.323 179.48 170.136 170.625C178.949 161.77 185.837 151.418 190.604 139.843C195.372 128.267 197.793 116.042 197.793 103.529C197.793 91.0171 195.372 78.7767 190.604 67.2163C185.837 55.6409 178.949 45.2894 170.136 36.4189C161.323 27.5635 151.021 20.6424 139.501 15.8521C127.996 11.0617 115.829 8.62872 103.361 8.62872Z" fill="#00638C"/>
<path d="M99.0736 43.1436C96.6974 43.1436 94.7874 45.0778 94.7874 47.4504V90.5939C94.7874 94.0545 93.4489 97.3035 91.0125 99.7516C89.6289 101.142 87.9897 102.154 86.2 102.789V47.4504C86.2 45.0627 84.275 43.1436 81.9138 43.1436C79.5526 43.1436 77.6276 45.0778 77.6276 47.4504V102.774C75.8379 102.139 74.1986 101.127 72.815 99.7364C70.3787 97.2884 69.0402 94.0394 69.0402 90.5788V47.4504C69.0402 45.0627 67.1151 43.1436 64.754 43.1436C62.3928 43.1436 60.4678 45.0778 60.4678 47.4504V90.5939C60.4678 96.3515 62.6936 101.777 66.7542 105.842C69.7771 108.879 73.5369 110.889 77.6426 111.72V163.915C77.6426 166.303 79.5677 168.222 81.9288 168.222C84.29 168.222 86.215 166.288 86.215 163.915V111.72C90.3057 110.889 94.0806 108.879 97.1035 105.842C101.164 101.761 103.39 96.3515 103.39 90.5939V47.4504C103.36 45.0778 101.435 43.1436 99.0736 43.1436Z" fill="#00638C"/>
</svg>
