<svg width="138" height="138" viewBox="0 0 138 138" fill="none" xmlns="http://www.w3.org/2000/svg">
<mask id="mask0_3575_913" style="mask-type:luminance" maskUnits="userSpaceOnUse" x="0" y="0" width="138" height="138">
<path d="M137.02 0H0V137.02H137.02V0Z" fill="white"/>
</mask>
<g mask="url(#mask0_3575_913)">
<path d="M14.2695 68.5095C14.2695 82.8995 19.9795 96.6895 30.1595 106.86C40.3295 117.03 54.1295 122.75 68.5095 122.75C82.8995 122.75 96.6895 117.04 106.86 106.86C117.03 96.6795 122.75 82.8895 122.75 68.5095C122.75 54.1295 117.04 40.3295 106.86 30.1595C96.6895 19.9895 82.8995 14.2695 68.5095 14.2695C54.1295 14.2695 40.3295 19.9795 30.1595 30.1595C19.9895 40.3295 14.2695 54.1295 14.2695 68.5095Z" fill="#9FEAFF"/>
<path d="M82.7803 77.0704H96.8303C97.2403 77.0704 97.6403 76.9904 98.0103 76.8204C98.3803 76.6604 98.7103 76.4104 98.9803 76.1104C99.2503 75.8104 99.4503 75.4504 99.5703 75.0604C99.6903 74.6704 99.7303 74.2604 99.6803 73.8604C98.1503 61.6904 89.9103 31.4004 82.7803 31.4004V77.0704Z" fill="#9FEAFF"/>
<path d="M82.7797 111.331C81.1997 111.331 79.9297 110.051 79.9297 108.481V31.4008C79.9297 29.8208 81.2097 28.5508 82.7797 28.5508C85.7097 28.5508 90.2697 30.4808 96.0197 47.1408C99.4397 57.0308 101.78 67.7508 102.51 73.5108C102.61 74.3208 102.54 75.1508 102.3 75.9208C102.06 76.7008 101.66 77.4108 101.11 78.0208C100.57 78.6308 99.9097 79.1108 99.1597 79.4408C98.4097 79.7708 97.6297 79.9508 96.7997 79.9308H85.6397V108.481C85.6397 110.051 84.3597 111.331 82.7797 111.331ZM85.6397 74.2208H96.8397C96.1897 68.9508 94.0297 59.0108 90.8697 49.6808C88.8397 43.6908 87.0497 39.9008 85.6397 37.5708V74.2208Z" fill="#00303E"/>
<path d="M68.51 137.02C59.47 137.02 50.65 135.27 42.29 131.81C33.93 128.35 26.46 123.35 20.06 116.96C13.67 110.57 8.67 103.09 5.21 94.73C1.75 86.38 0 77.55 0 68.51C0 59.47 1.75 50.65 5.21 42.29C8.67 33.94 13.67 26.46 20.06 20.06C26.45 13.67 33.93 8.67 42.29 5.21C50.65 1.75 59.47 0 68.51 0C77.55 0 86.37 1.75 94.73 5.22C103.08 8.68 110.56 13.68 116.96 20.07C123.35 26.46 128.35 33.94 131.81 42.3C135.27 50.65 137.02 59.47 137.02 68.52C137.02 77.57 135.27 86.38 131.81 94.74C128.35 103.1 123.35 110.57 116.96 116.97C110.57 123.36 103.09 128.36 94.73 131.82C86.37 135.27 77.55 137.02 68.51 137.02ZM68.51 5.71C60.22 5.71 52.13 7.32 44.48 10.49C36.82 13.66 29.97 18.24 24.1 24.1C18.24 29.96 13.66 36.82 10.49 44.48C7.32 52.14 5.71 60.22 5.71 68.51C5.71 76.8 7.32 84.89 10.49 92.54C13.66 100.2 18.24 107.05 24.1 112.91C29.96 118.77 36.81 123.35 44.48 126.52C52.14 129.69 60.22 131.3 68.51 131.3C76.8 131.3 84.89 129.69 92.54 126.52C100.2 123.35 107.05 118.77 112.91 112.91C118.77 107.05 123.35 100.2 126.52 92.54C129.69 84.88 131.3 76.79 131.3 68.51C131.3 60.23 129.69 52.13 126.52 44.48C123.35 36.82 118.77 29.97 112.91 24.1C107.05 18.24 100.2 13.66 92.54 10.49C84.89 7.32 76.8 5.71 68.51 5.71Z" fill="#00303E"/>
<path d="M65.6602 28.5508C64.0802 28.5508 62.8102 29.8308 62.8102 31.4008V59.9508C62.8102 62.2408 61.9202 64.3908 60.3002 66.0108C59.3802 66.9308 58.2902 67.6008 57.1002 68.0208V31.4008C57.1002 29.8208 55.8202 28.5508 54.2502 28.5508C52.6802 28.5508 51.4002 29.8308 51.4002 31.4008V68.0108C50.2102 67.5908 49.1202 66.9208 48.2002 66.0008C46.5802 64.3808 45.6902 62.2308 45.6902 59.9408V31.4008C45.6902 29.8208 44.4102 28.5508 42.8402 28.5508C41.2702 28.5508 39.9902 29.8308 39.9902 31.4008V59.9508C39.9902 63.7608 41.4702 67.3508 44.1702 70.0408C46.1802 72.0508 48.6802 73.3808 51.4102 73.9308V108.471C51.4102 110.051 52.6902 111.321 54.2602 111.321C55.8302 111.321 57.1102 110.041 57.1102 108.471V73.9308C59.8302 73.3808 62.3402 72.0508 64.3502 70.0408C67.0502 67.3408 68.5302 63.7608 68.5302 59.9508V31.4008C68.5102 29.8308 67.2302 28.5508 65.6602 28.5508Z" fill="#00303E"/>
</g>
</svg>
