<svg width="138" height="129" viewBox="0 0 138 129" fill="none" xmlns="http://www.w3.org/2000/svg">
<path d="M125.69 57.127C123.42 57.127 121.24 58.027 119.63 59.637C118.02 61.247 117.12 63.4269 117.12 65.6969V87.117V87.177C116.99 85.487 116.32 83.8769 115.21 82.5869C114.1 81.2969 112.61 80.397 110.96 80.007C109.3 79.617 107.57 79.777 106.01 80.437C104.45 81.107 103.14 82.257 102.27 83.717L95.7497 93.497C92.9297 97.727 91.4197 102.697 91.4297 107.777V125.677H117.14L128.65 111.297C132.3 106.737 134.28 101.077 134.28 95.2369V65.6969C134.28 64.5669 134.06 63.457 133.63 62.417C133.2 61.377 132.57 60.437 131.77 59.637C130.97 58.837 130.03 58.207 128.99 57.777C127.93 57.347 126.81 57.127 125.69 57.127Z" fill="#DFF9FF"/>
<path d="M41.3804 93.497L34.8503 83.717C33.9803 82.257 32.6704 81.107 31.1104 80.437C29.5504 79.767 27.8104 79.617 26.1604 80.007C24.5004 80.397 23.0204 81.2969 21.9104 82.5869C20.8004 83.8769 20.1304 85.487 20.0004 87.177V87.117V65.6969C20.0004 63.4269 19.1004 61.247 17.4904 59.637C15.8804 58.027 13.7004 57.127 11.4304 57.127C9.16035 57.127 6.98035 58.027 5.37035 59.637C3.76035 61.247 2.86035 63.4269 2.86035 65.6969V95.247C2.86035 101.087 4.85035 106.747 8.49035 111.307L20.0004 125.687H45.7004V107.767C45.7104 102.687 44.2004 97.717 41.3804 93.497Z" fill="#DFF9FF"/>
<path d="M43.75 91.8976L37.26 82.1876C36.51 80.9476 35.53 79.8876 34.35 79.0376C33.15 78.1676 31.81 77.5676 30.37 77.2476C28.93 76.9176 27.46 76.8976 26.01 77.1676C24.9 77.3776 23.84 77.7476 22.85 78.2776V65.6976C22.85 62.6476 21.66 59.7776 19.5 57.6176C17.34 55.4576 14.47 54.2676 11.42 54.2676C8.37 54.2676 5.5 55.4576 3.34 57.6176C1.19 59.7776 0 62.6476 0 65.6976V95.2376C0 101.698 2.22 108.038 6.26 113.088L17.77 127.468C18.33 128.178 19.16 128.538 20 128.538C20.63 128.538 21.26 128.338 21.78 127.908C23.01 126.918 23.21 125.128 22.23 123.888L10.72 109.508C7.49 105.468 5.71 100.398 5.71 95.2276V65.6976C5.71 64.1676 6.3 62.7376 7.38 61.6576C8.46 60.5776 9.89 59.9876 11.42 59.9876C12.95 59.9876 14.38 60.5776 15.46 61.6576C16.54 62.7376 17.13 64.1676 17.13 65.6976V87.1176C17.13 87.1876 17.15 87.2576 17.15 87.3176C17.07 89.1576 17.44 90.9976 18.28 92.6776C18.31 92.7476 18.35 92.8076 18.39 92.8676L26.11 105.718C26.92 107.068 28.68 107.508 30.03 106.698C31.38 105.888 31.82 104.128 31.01 102.778L23.35 90.0276C22.83 88.9276 22.71 87.6776 23.02 86.4976C23.34 85.2876 24.09 84.2376 25.13 83.5376C25.71 83.1476 26.36 82.8876 27.05 82.7576C27.74 82.6276 28.44 82.6476 29.12 82.7976C29.8 82.9476 30.44 83.2376 31 83.6476C31.57 84.0576 32.04 84.5676 32.4 85.1676C32.42 85.2076 32.45 85.2476 32.48 85.2876L39 95.0676C41.52 98.8376 42.85 103.228 42.84 107.768V125.688C42.84 127.268 44.12 128.548 45.7 128.548C47.28 128.548 48.56 127.268 48.56 125.688V107.778C48.57 102.098 46.9 96.6076 43.75 91.8976Z" fill="#00303E"/>
<path d="M133.77 57.6176C131.61 55.4576 128.74 54.2676 125.69 54.2676C122.64 54.2676 119.77 55.4576 117.61 57.6176C115.45 59.7776 114.26 62.6476 114.26 65.6976V78.2676C113.27 77.7376 112.21 77.3576 111.1 77.1576C109.65 76.8876 108.18 76.9176 106.74 77.2376C105.3 77.5576 103.96 78.1676 102.77 79.0276C101.59 79.8776 100.61 80.9376 99.8596 82.1776L93.3696 91.8876C90.2196 96.5976 88.5596 102.088 88.5596 107.758V125.678C88.5596 127.258 89.8396 128.538 91.4196 128.538C92.9996 128.538 94.2796 127.258 94.2796 125.678V107.758C94.2796 103.218 95.6096 98.8376 98.1196 95.0676L104.65 85.2976C104.68 85.2576 104.7 85.2176 104.73 85.1776C105.09 84.5776 105.56 84.0676 106.13 83.6576C106.7 83.2476 107.33 82.9576 108.01 82.8076C108.69 82.6576 109.39 82.6376 110.08 82.7676C110.77 82.8976 111.41 83.1576 111.99 83.5476C113.03 84.2476 113.79 85.2976 114.11 86.5076C114.42 87.6876 114.31 88.9376 113.78 90.0376L106.11 102.788C105.3 104.138 105.73 105.898 107.09 106.708C108.44 107.518 110.2 107.088 111.01 105.728L118.74 92.8776C118.78 92.8176 118.81 92.7476 118.85 92.6876C119.69 91.0076 120.06 89.1576 119.97 87.3076C119.97 87.2476 119.99 87.1876 119.99 87.1276V65.6976C119.99 64.1676 120.58 62.7376 121.66 61.6576C122.74 60.5776 124.17 59.9876 125.7 59.9876C127.23 59.9876 128.66 60.5776 129.74 61.6576C130.82 62.7376 131.41 64.1676 131.41 65.6976V95.2376C131.41 100.408 129.63 105.478 126.4 109.518L114.89 123.898C113.9 125.128 114.1 126.928 115.34 127.908C115.87 128.328 116.5 128.538 117.12 128.538C117.96 128.538 118.79 128.168 119.35 127.468L130.86 113.088C134.9 108.038 137.12 101.698 137.12 95.2376V65.6976C137.11 62.6476 135.93 59.7776 133.77 57.6176Z" fill="#00303E"/>
<path d="M71.4397 59.9877L44.6397 30.9677C42.2897 28.5277 40.7397 25.3777 40.1997 21.9577C39.6697 18.5477 40.1797 15.0477 41.6697 11.9577C42.7897 9.62769 44.4297 7.60769 46.4597 6.05769C48.4797 4.51769 50.8297 3.48769 53.3097 3.06769C55.7897 2.64769 58.3297 2.84769 60.7197 3.64769C63.1097 4.44769 65.2797 5.82769 67.0597 7.67769L71.4297 12.2177L75.7997 7.67769C77.5797 5.83769 79.7497 4.45769 82.1397 3.64769C84.5297 2.84769 87.0697 2.64769 89.5397 3.06769C92.0197 3.48769 94.3597 4.50769 96.3897 6.05769C98.4097 7.59769 100.05 9.62769 101.18 11.9577C102.67 15.0477 103.18 18.5477 102.65 21.9577C102.12 25.3677 100.57 28.5177 98.2197 30.9677L71.4397 59.9877Z" fill="#9FEAFF"/>
<path d="M101.22 12.1784C100.1 9.8084 98.4504 7.7484 96.4304 6.1684C94.4104 4.5984 92.0604 3.5584 89.5804 3.1284C87.1004 2.6984 84.5604 2.9084 82.1704 3.7184C79.7804 4.5384 77.6104 5.9384 75.8304 7.8184L71.4504 12.4484L67.0704 7.8184C64.6204 5.1984 61.4204 3.4984 57.9604 2.9984C54.5104 2.4984 50.9904 3.2184 47.9604 5.0484C44.9304 6.8784 42.5604 9.7084 41.2104 13.1084C39.8604 16.5084 39.6204 20.2784 40.5104 23.8484C44.6204 28.2684 49.5704 31.7284 55.0204 34.0084C60.4804 36.2884 66.3204 37.3384 72.1804 37.0884C78.0404 36.8384 83.7904 35.2884 89.0504 32.5584C94.3104 29.8184 98.9804 25.9484 102.74 21.1884C103.05 18.0984 102.52 14.9784 101.22 12.1784Z" fill="#DFF9FF"/>
<path d="M71.4401 62.8374C70.6401 62.8374 69.8801 62.5074 69.3401 61.9174L42.5401 32.8974C39.8001 30.0574 38.0001 26.4074 37.3801 22.3974C36.7501 18.3874 37.3501 14.3474 39.1001 10.7174C40.4101 7.99744 42.3601 5.59744 44.7301 3.78744C47.1101 1.96744 49.9201 0.747439 52.8401 0.257439C55.7701 -0.232561 58.8101 0.00743943 61.6301 0.947439C64.4401 1.88744 67.0301 3.53744 69.1201 5.69744L71.4301 8.10744L73.7501 5.69744C75.8301 3.52744 78.4201 1.88744 81.2401 0.947439C84.0401 -0.00256056 87.0801 -0.242561 90.0001 0.247439C92.9201 0.737439 95.7301 1.95744 98.1101 3.77744C100.48 5.58744 102.42 7.98744 103.74 10.7074C105.49 14.3374 106.08 18.3774 105.46 22.3874C104.83 26.4074 103.04 30.0574 100.26 32.9374L73.5401 61.9174C73.0001 62.5074 72.2401 62.8374 71.4401 62.8374ZM55.8301 5.70744C55.1401 5.70744 54.4501 5.76744 53.7801 5.87744C51.7701 6.21744 49.8401 7.05744 48.1901 8.31744C46.5301 9.58744 45.1701 11.2674 44.2401 13.1874C42.9901 15.7774 42.5701 18.6474 43.0201 21.5074C43.4701 24.3574 44.7401 26.9374 46.6901 28.9774L71.4301 55.7674L96.1001 29.0174C98.1001 26.9374 99.3701 24.3574 99.8101 21.5074C100.26 18.6474 99.8301 15.7674 98.5901 13.1874C97.6701 11.2674 96.3001 9.58744 94.6401 8.31744C92.9901 7.05744 91.0601 6.21744 89.0501 5.87744C87.0401 5.53744 84.9601 5.69744 83.0301 6.34744C81.0801 6.99744 79.2901 8.13744 77.8401 9.64744L73.4601 14.1874C72.9201 14.7474 72.1801 15.0674 71.4001 15.0674C70.6201 15.0674 69.8801 14.7474 69.3401 14.1874L64.9701 9.64744C63.5201 8.13744 61.7301 6.99744 59.7901 6.34744C58.5201 5.92744 57.1701 5.70744 55.8301 5.70744Z" fill="#00303E"/>
</svg>
