<svg width="184" height="188" viewBox="0 0 184 188" fill="none" xmlns="http://www.w3.org/2000/svg">
<path d="M34.4419 186.815H145.145C138.531 173.471 135.082 158.772 135.082 143.854V110.748C135.082 89.2333 127.109 68.5127 112.713 52.6232C98.3161 36.7338 78.5549 26.8525 57.2997 24.8954C54.8279 19.3115 50.9571 14.4666 46.0677 10.8535C41.1784 7.24039 35.4333 4.95482 29.4031 4.25684C28.0721 4.25684 26.7819 4.79059 25.8447 5.74861C24.9076 6.69295 24.3643 7.99312 24.3643 9.33435V32.2311C18.1711 36.4053 13.0916 42.0439 9.58757 48.668C6.08352 55.292 4.25 62.6825 4.25 70.1824V115.825C4.25 118.521 5.30936 121.094 7.19721 122.997C9.08505 124.899 11.6384 125.967 14.314 125.967H24.3779C27.2844 125.967 30.1094 125.022 32.4318 123.257C34.7543 121.505 36.452 119.028 37.2669 116.222L41.4907 101.619C41.9933 99.8674 43.0662 98.3209 44.5059 97.226C45.9591 96.1311 47.7247 95.5289 49.531 95.5289C53.5376 95.5289 57.3812 93.9277 60.2062 91.0673C63.0312 88.2206 64.6338 84.3474 64.6338 80.3101C64.6202 99.0189 59.4185 117.358 49.6125 133.234C39.6708 149.315 34.4147 167.887 34.4419 186.815Z" fill="#DFF9FF"/>
<path d="M4.25 108.886V115.811C4.25 118.507 5.30936 121.08 7.19721 122.983C9.08505 124.885 11.6384 125.953 14.314 125.953H24.3779C27.2844 125.953 30.1094 125.008 32.4318 123.243C34.7543 121.491 36.452 119.014 37.2669 116.208L39.3856 108.872C39.3856 108.872 33.4369 101.4 19.9503 101.4C6.4638 101.4 4.25 108.886 4.25 108.886Z" fill="#9FEAFF"/>
<path d="M41.1382 53.3755C39.2639 53.3755 37.7428 54.9083 37.7428 56.797C37.7428 59.192 35.8142 61.1355 33.4374 61.1355C31.5631 61.1355 30.042 62.6683 30.042 64.557C30.042 66.4456 31.5631 67.9785 33.4374 67.9785C39.5627 67.9785 44.5336 62.9557 44.5336 56.797C44.5336 54.8946 43.0124 53.3755 41.1382 53.3755Z" fill="#00638C"/>
<path d="M22.8427 111.637C24.7179 111.637 26.2381 110.105 26.2381 108.215C26.2381 106.326 24.7179 104.794 22.8427 104.794C20.9674 104.794 19.4473 106.326 19.4473 108.215C19.4473 110.105 20.9674 111.637 22.8427 111.637Z" fill="#00638C"/>
<path d="M140.433 184.036L106.343 146.837C103.355 143.703 101.372 139.666 100.693 135.286C100.014 130.907 100.666 126.432 102.567 122.463C103.993 119.479 106.085 116.879 108.652 114.894C111.219 112.91 114.207 111.596 117.357 111.062C120.508 110.528 123.741 110.788 126.783 111.815C129.825 112.841 132.582 114.607 134.837 116.975L140.405 122.805L145.974 116.975C148.228 114.607 150.999 112.841 154.028 111.815C157.07 110.788 160.289 110.528 163.453 111.062C166.604 111.596 169.592 112.91 172.159 114.894C174.726 116.879 176.818 119.465 178.244 122.463C180.132 126.418 180.797 130.907 180.118 135.286C179.439 139.666 177.47 143.703 174.482 146.837L140.433 184.036Z" fill="#9FEAFF"/>
<path d="M178.311 122.764C176.885 119.726 174.794 117.084 172.213 115.059C169.633 113.047 166.645 111.706 163.494 111.158C160.343 110.611 157.11 110.871 154.068 111.925C151.026 112.978 148.269 114.771 146.001 117.18L140.432 123.106L134.864 117.18C131.74 113.813 127.679 111.651 123.279 111.008C118.878 110.364 114.41 111.281 110.566 113.635C106.709 115.976 103.694 119.616 101.983 123.968C100.271 128.32 99.959 133.165 101.1 137.736C106.329 143.402 112.617 147.837 119.557 150.766C126.497 153.694 133.94 155.036 141.396 154.707C148.853 154.392 156.16 152.408 162.855 148.891C169.551 145.373 175.486 140.419 180.267 134.315C180.634 130.346 179.955 126.35 178.311 122.764Z" fill="#DFF9FF"/>
<path d="M181.517 120.889C179.846 117.399 177.375 114.319 174.359 112.006C171.331 109.68 167.759 108.106 164.051 107.476C160.33 106.847 156.459 107.148 152.873 108.366C149.288 109.57 146.001 111.678 143.353 114.456L140.405 117.536L138.49 115.537V110.761C138.49 88.3433 130.233 66.8836 115.239 50.3372C100.679 34.2698 80.9723 24.1421 59.5542 21.706C56.8378 16.3548 52.8992 11.6879 48.0913 8.11581C47.6159 7.75997 47.127 7.43151 46.6245 7.10305C48.9198 6.93881 51.2558 6.84301 53.6597 6.84301C66.7117 6.84301 89.4744 12.4132 110.675 28.1111C126.824 40.0727 146.952 61.8061 151.081 97.376C151.284 99.1142 152.751 100.401 154.449 100.401C154.585 100.401 154.707 100.387 154.843 100.373C156.703 100.154 158.034 98.4572 157.817 96.5823C149.899 28.3301 86.0654 0 53.6597 0C46.8961 0 40.4177 0.574813 34.401 1.69707H34.3875C32.8799 1.32754 31.3452 1.04014 29.7969 0.862219C29.6611 0.848533 29.5388 0.834847 29.403 0.834847C27.1485 0.834847 25.0297 1.72444 23.4407 3.3257C21.8516 4.92697 20.9688 7.06199 20.9688 9.33387V30.4514C15.0065 34.8036 10.0628 40.5106 6.58593 47.0662C2.83741 54.1419 0.854492 62.1482 0.854492 70.1819V115.825C0.854492 119.397 2.29414 122.887 4.79316 125.419C7.33291 127.978 10.7147 129.388 14.3139 129.388H24.3778C24.3778 129.388 24.3778 129.388 24.3914 129.388C28.0041 129.388 31.5896 128.183 34.4689 126.007C37.3618 123.817 39.5077 120.697 40.5263 117.193L44.7502 102.59C45.049 101.55 45.6873 100.62 46.543 99.9764C47.3986 99.3331 48.4716 98.9773 49.5445 98.9636C53.3338 98.9636 56.9601 97.814 60.0159 95.6927C57.9923 108.339 53.4968 120.478 46.7331 131.454C34.9171 150.546 29.6611 166.778 29.6882 184.091C29.6882 185.979 31.2094 187.512 33.0836 187.512C34.9579 187.512 36.479 185.979 36.479 184.091C36.4519 167.914 41.2462 153.256 52.4917 135.081C62.6372 118.644 68.0019 99.73 68.0291 80.378C68.0291 80.3643 68.0291 80.3506 68.0291 80.3369C68.0291 78.4483 66.5079 76.9154 64.6337 76.9154C62.7594 76.9154 61.2383 78.4483 61.2383 80.3369C61.2383 80.3506 61.2383 80.3643 61.2383 80.3643C61.2247 83.4984 60.0159 86.4546 57.8157 88.6717C55.6019 90.9026 52.6683 92.1206 49.5445 92.1206C47.0183 92.1206 44.5057 92.9691 42.4821 94.502C40.4584 96.0348 38.9509 98.2246 38.231 100.674L34.0072 115.277C33.4096 117.358 32.1193 119.233 30.3945 120.533C28.6696 121.833 26.5373 122.558 24.3914 122.558H14.3139C12.5618 122.558 10.837 121.847 9.60104 120.588C8.35153 119.328 7.64529 117.59 7.64529 115.825V70.1819C7.64529 63.2705 9.35657 56.3864 12.589 50.2824C15.8214 44.1785 20.5478 38.923 26.2657 35.0773C27.2028 34.4477 27.7732 33.3802 27.7732 32.2306V9.33387C27.7732 8.89591 27.9498 8.48533 28.2486 8.17055C28.5202 7.89683 28.8733 7.7326 29.2536 7.69154C34.5912 8.36216 39.7114 10.4014 44.0576 13.6176C48.4716 16.8749 51.9756 21.2544 54.203 26.2908C54.7055 27.4268 55.7785 28.1932 57.0008 28.3027C77.4683 30.1914 96.3603 39.6347 110.214 54.9357C123.904 70.0451 131.496 89.575 131.672 110.008C130.477 109.351 129.214 108.79 127.924 108.352C124.338 107.134 120.468 106.833 116.746 107.463C113.025 108.092 109.467 109.666 106.438 111.993C103.423 114.306 100.951 117.385 99.2803 120.875C97.0529 125.528 96.2924 130.715 97.0937 135.847C97.895 140.993 100.177 145.674 103.654 149.314L137.743 186.513C138.436 187.266 139.4 187.69 140.419 187.69C141.438 187.69 142.402 187.266 143.095 186.513L177.076 149.369C180.607 145.674 182.889 140.993 183.69 135.847C184.491 130.715 183.731 125.542 181.517 120.889ZM176.519 134.725C175.948 138.379 174.332 141.691 171.792 144.36L140.419 178.644L108.95 144.305C106.465 141.691 104.849 138.393 104.278 134.739C103.708 131.071 104.251 127.389 105.827 124.077C106.995 121.614 108.733 119.465 110.852 117.837C112.943 116.222 115.402 115.14 117.955 114.716C118.811 114.566 119.693 114.497 120.563 114.497C122.274 114.497 123.985 114.771 125.615 115.332C128.087 116.167 130.369 117.631 132.216 119.561L137.784 125.391C138.463 126.103 139.414 126.514 140.405 126.514C141.397 126.514 142.334 126.103 143.027 125.391L148.595 119.561C150.442 117.631 152.724 116.167 155.196 115.332C157.654 114.497 160.302 114.292 162.856 114.73C165.409 115.168 167.867 116.249 169.959 117.85C172.064 119.479 173.803 121.628 174.984 124.091C176.546 127.376 177.089 131.057 176.519 134.725Z" fill="#00638C"/>
<path d="M140.392 117.536L143.34 114.456C145.988 111.678 149.288 109.571 152.86 108.366C153.607 108.106 154.381 107.915 155.142 107.737C155.074 105.273 154.925 102.823 154.694 100.387C154.599 100.401 154.517 100.401 154.422 100.401C152.724 100.401 151.258 99.1144 151.054 97.3763C146.925 61.8063 126.811 40.0729 110.649 28.1113C89.4749 12.4135 66.7122 6.84326 53.6603 6.84326C51.2699 6.84326 48.9339 6.93906 46.625 7.08961C47.1139 7.41807 47.6029 7.74654 48.0918 8.10238C52.9133 11.6744 56.8519 16.3414 59.5547 21.6926C80.9593 24.1287 100.666 34.2564 115.239 50.3238C130.233 66.8702 138.491 88.3435 138.491 110.748V115.524L140.392 117.536Z" fill="#9FEAFF"/>
</svg>
