<svg width="209" height="208" viewBox="0 0 209 208" fill="none" xmlns="http://www.w3.org/2000/svg">
<path d="M113.873 151.596C122.982 151.581 132.06 150.241 140.79 147.606L146.897 164.251C148.186 167.525 150.701 170.144 153.884 171.576C157.067 173.007 160.704 173.129 163.978 171.911C167.266 170.693 169.934 168.241 171.449 165.073C172.95 161.906 173.162 158.266 172.04 154.931L165.054 135.88C175.193 129.012 183.043 119.251 187.59 107.845H195.668C197.956 107.845 200.169 106.931 201.791 105.302C203.412 103.672 204.322 101.464 204.322 99.1494V73.0936C204.322 70.7941 203.412 68.5707 201.791 66.9413C200.169 65.3118 197.972 64.3981 195.668 64.3981H187.575C183.559 52.8245 176.633 42.4844 167.463 34.3981V8.69255C167.463 8.0225 167.312 7.36768 167.009 6.75854C166.706 6.16463 166.281 5.63164 165.751 5.2357C165.22 4.82453 164.599 4.55042 163.947 4.42859C163.296 4.30677 162.614 4.33722 161.977 4.50474C153.02 7.27631 145.23 12.9413 139.85 20.6469C131.408 18.2255 122.664 16.992 113.889 16.992C79.7431 17.0225 50.4928 34.8854 38.8837 60.058C34.3673 71.9971 32.4274 84.7585 33.2306 97.5047C34.0187 110.251 37.5197 122.677 43.491 133.962C65.6332 144.195 89.5184 150.18 113.873 151.596Z" fill="#DFF9FF"/>
<path d="M191.592 84.241C189.956 84.2715 188.364 84.7588 187 85.642C185.636 86.5253 184.515 87.774 183.802 89.2512C171.117 113.601 141.261 126.987 113.981 127.033C36.4145 127.033 36.1114 91.5963 35.1111 72.1953C30.807 93.1496 33.7471 114.942 43.4619 133.977C65.6344 144.195 89.5196 150.18 113.875 151.596C122.998 151.581 132.061 150.241 140.791 147.606L146.656 163.596C147.717 166.688 149.824 169.307 152.627 170.997C155.416 172.688 158.72 173.343 161.933 172.84C163.842 172.474 165.661 171.698 167.252 170.556C168.844 169.414 170.162 167.952 171.117 166.246C172.072 164.54 172.663 162.652 172.815 160.703C172.981 158.754 172.708 156.789 172.042 154.947L165.04 135.896C175.179 129.028 183.029 119.266 187.591 107.86H195.684C197.973 107.86 200.186 106.947 201.807 105.317C203.429 103.688 204.338 101.48 204.338 99.1649V84.241H191.592Z" fill="#9FEAFF"/>
<path d="M5.28516 90.5314C5.28516 92.8309 9.84698 95.0542 17.9552 96.6837C26.0634 98.3131 37.0664 99.2268 48.5543 99.2268C60.0271 99.2268 71.03 98.3131 79.1534 96.6837C87.2616 95.0542 91.8234 92.8461 91.8234 90.5314C91.8234 88.2319 87.2616 86.0085 79.1534 84.3791C71.0452 82.7496 60.0422 81.8359 48.5543 81.8359C37.0815 81.8359 26.0786 82.7496 17.9552 84.3791C9.84698 86.0238 5.28516 88.2319 5.28516 90.5314Z" fill="#DFF9FF"/>
<path d="M91.8385 90.5312V116.618C91.8385 121.415 72.4546 125.313 48.5694 125.313C24.6842 125.313 5.31543 121.415 5.31543 116.618V90.5312C5.31543 95.3282 24.6842 99.2267 48.5846 99.2267C72.4849 99.2267 91.8385 95.3282 91.8385 90.5312Z" fill="#9FEAFF"/>
<path d="M91.8385 116.616V142.703C91.8385 147.499 72.4546 151.398 48.5694 151.398C24.6842 151.398 5.31543 147.499 5.31543 142.703V116.616C5.31543 121.413 24.6842 125.312 48.5846 125.312C72.4849 125.312 91.8385 121.413 91.8385 116.616Z" fill="#9FEAFF"/>
<path d="M91.8391 142.702V168.788C91.8391 173.585 72.4551 177.484 48.5699 177.484C24.6847 177.484 5.30078 173.585 5.30078 168.788V142.702C5.30078 147.499 24.6696 151.398 48.5699 151.398C72.4702 151.398 91.8391 147.499 91.8391 142.702Z" fill="#9FEAFF"/>
<path d="M91.8391 168.789V194.875C91.8391 199.672 72.4551 203.571 48.5699 203.571C24.6847 203.571 5.30078 199.672 5.30078 194.875V168.789C5.30078 173.586 24.6696 177.485 48.5699 177.485C72.4702 177.485 91.8391 173.571 91.8391 168.789Z" fill="#9FEAFF"/>
<path d="M48.5699 99.2267C24.6847 99.2267 5.30078 95.313 5.30078 90.5312V116.618C5.30078 121.399 24.6696 125.313 48.5699 125.313V99.2267Z" fill="#DFF9FF"/>
<path d="M48.5699 125.312C24.6847 125.312 5.30078 121.398 5.30078 116.616V142.703C5.30078 147.484 24.6696 151.398 48.5699 151.398V125.312Z" fill="#DFF9FF"/>
<path d="M48.5699 151.398C24.6847 151.398 5.30078 147.484 5.30078 142.702V168.788C5.30078 173.57 24.6696 177.484 48.5699 177.484V151.398Z" fill="#DFF9FF"/>
<path d="M48.5699 177.485C24.6847 177.485 5.30078 173.571 5.30078 168.789V194.875C5.30078 199.657 24.6696 203.571 48.5699 203.571V177.485Z" fill="#DFF9FF"/>
<path d="M159.34 177.119C156.885 177.119 154.43 176.601 152.111 175.566C147.868 173.662 144.579 170.221 142.866 165.865L138.092 152.876C130.181 154.901 122.058 155.936 113.874 155.952C111.494 155.952 109.554 154.002 109.554 151.612C109.554 149.205 111.479 147.256 113.874 147.256C122.588 147.241 131.212 145.962 139.547 143.449C141.745 142.794 144.063 143.952 144.852 146.114L150.959 162.759C151.808 164.891 153.49 166.642 155.657 167.632C157.825 168.606 160.265 168.698 162.493 167.86C164.721 167.038 166.524 165.378 167.555 163.231C168.585 161.068 168.722 158.632 167.949 156.363L160.992 137.419C160.295 135.546 160.977 133.429 162.629 132.317C172.086 125.906 179.33 116.906 183.574 106.277C184.226 104.632 185.817 103.551 187.59 103.551H195.683C196.835 103.551 197.926 103.094 198.745 102.271C199.563 101.449 200.018 100.368 200.018 99.1953V73.0938C200.018 71.9364 199.563 70.84 198.745 70.0176C197.926 69.1953 196.835 68.7385 195.683 68.7385H187.605C185.772 68.7385 184.12 67.5659 183.513 65.8146C179.755 54.972 173.208 45.2258 164.614 37.6572C163.675 36.8349 163.144 35.6319 163.144 34.3831V8.69277C155.263 11.1293 148.201 16.2917 143.397 23.1598C142.336 24.6674 140.441 25.3527 138.668 24.8349C130.605 22.5202 122.27 21.3476 113.889 21.3476C82.5622 21.3476 53.994 37.642 42.8092 61.8704C41.8089 64.0481 39.2324 64.9923 37.0652 63.9872C34.898 62.9821 33.9583 60.3933 34.9586 58.2156C47.7044 30.5456 78.6975 12.6674 113.874 12.6674C122.058 12.6674 130.211 13.6877 138.138 15.7131C143.942 8.4948 151.838 3.0887 160.689 0.347588C162.083 -0.0483513 163.447 -0.0940366 164.751 0.149618C166.039 0.393273 167.297 0.956725 168.358 1.76383C169.419 2.57094 170.298 3.63693 170.889 4.83997C171.48 6.02779 171.783 7.36789 171.783 8.70799V32.4796C180.028 40.1395 186.469 49.5811 190.591 60.0583H195.668C199.139 60.0583 202.397 61.4136 204.852 63.8806C207.308 66.3476 208.656 69.6217 208.656 73.0938V99.1801C208.656 102.667 207.308 105.942 204.852 108.393C202.397 110.86 199.139 112.216 195.668 112.216H190.424C185.893 122.236 178.982 130.886 170.237 137.51L176.087 153.439C177.633 157.962 177.345 162.728 175.345 166.947C173.344 171.165 169.843 174.378 165.463 175.992C163.478 176.754 161.401 177.119 159.34 177.119Z" fill="#00638C"/>
<path d="M150.263 68.7681C149.838 68.7681 149.414 68.7224 149.005 68.6463C147.747 68.3874 146.595 67.7783 145.671 66.8645C144.761 65.9508 144.14 64.7935 143.898 63.5143C143.64 62.2503 143.776 60.9559 144.261 59.7529C144.746 58.5651 145.58 57.5448 146.656 56.829C147.732 56.1133 148.975 55.7326 150.248 55.7326C151.096 55.7021 151.96 55.9001 152.764 56.2351C153.552 56.5549 154.264 57.0422 154.87 57.6514C155.476 58.2453 155.946 58.961 156.28 59.7681C156.613 60.5752 156.765 61.4128 156.765 62.2656C156.765 63.5448 156.386 64.8087 155.658 65.8899C154.961 66.9559 153.946 67.7935 152.748 68.2808C151.945 68.6006 151.096 68.7681 150.263 68.7681ZM150.263 60.0727C149.99 60.0727 149.702 60.1336 149.444 60.2402C149.035 60.4077 148.702 60.697 148.459 61.0473C148.232 61.3975 148.111 61.8087 148.111 62.2503C148.111 62.5244 148.171 62.7986 148.277 63.0727C148.384 63.3468 148.55 63.5904 148.762 63.8036C148.959 64.0016 149.202 64.1691 149.475 64.2757C150.096 64.5346 150.899 64.4737 151.49 64.0777C151.854 63.8341 152.127 63.4991 152.294 63.1031C152.46 62.7072 152.506 62.2656 152.415 61.8392C152.339 61.428 152.127 61.0321 151.824 60.7275C151.521 60.4229 151.142 60.225 150.718 60.1336C150.536 60.0879 150.399 60.0727 150.263 60.0727Z" fill="#00638C"/>
<path d="M70.1965 55.7332C69.1659 55.7332 68.1202 55.3677 67.2866 54.6063C65.5134 52.9921 65.377 50.2509 66.9835 48.4692C76.6982 37.6875 89.9896 31.0174 104.403 29.6621C106.767 29.4489 108.889 31.2002 109.116 33.591C109.343 35.9819 107.585 38.0987 105.206 38.3271C92.9601 39.4692 81.6541 45.1494 73.4094 54.3017C72.5607 55.2459 71.3786 55.7332 70.1965 55.7332Z" fill="#00638C"/>
<path d="M96.067 89.6332C95.2789 83.9377 87.1404 81.5621 80.0021 80.1306C71.5604 78.425 60.3908 77.4961 48.5543 77.4961C36.7178 77.4961 25.5481 78.425 17.1217 80.1306C9.58934 81.6382 0.96582 84.1814 0.96582 90.5316C0.96582 90.5925 0.980976 90.6687 0.980976 90.7296V116.618V142.704V168.791V194.877C0.980976 201.227 9.61965 203.77 17.1368 205.278C25.5936 206.983 36.7481 207.912 48.5694 207.912C60.3908 207.912 71.5604 206.983 80.0021 205.278C87.5192 203.77 96.1579 201.212 96.1579 194.877V168.791V142.704V116.618V90.5316C96.1579 90.2271 96.1276 89.9225 96.067 89.6332ZM87.5041 151.156V167.755C87.4283 167.801 87.3374 167.862 87.2464 167.907C87.1404 167.968 87.0343 168.029 86.8979 168.105C86.7615 168.166 86.6099 168.242 86.4584 168.303C86.3068 168.379 86.1552 168.44 85.9885 168.516C85.8218 168.593 85.6248 168.653 85.4429 168.73C85.2459 168.806 85.0489 168.882 84.8367 168.958C84.6397 169.034 84.3972 169.095 84.185 169.171C83.9425 169.247 83.7 169.324 83.4272 169.4C83.1848 169.476 82.9271 169.537 82.6695 169.613C82.3815 169.689 82.0936 169.765 81.7904 169.856C81.5176 169.933 81.1994 169.994 80.9114 170.07C80.578 170.146 80.2597 170.222 79.9111 170.313C79.5929 170.389 79.2443 170.45 78.9109 170.527C78.5471 170.603 78.1834 170.679 77.7894 170.755C77.4408 170.831 77.0467 170.892 76.683 170.953C76.2738 171.029 75.8798 171.105 75.4403 171.181C75.0462 171.242 74.6219 171.318 74.1975 171.379C73.758 171.455 73.3185 171.516 72.8638 171.593C72.4243 171.653 71.9545 171.714 71.4998 171.775C71.0148 171.836 70.5602 171.897 70.06 171.958C69.5751 172.019 69.0598 172.065 68.5596 172.126C68.0443 172.186 67.5594 172.247 67.0289 172.293C66.4833 172.354 65.9074 172.4 65.3466 172.445C64.8314 172.491 64.3161 172.537 63.7856 172.582C63.1643 172.628 62.5277 172.674 61.8912 172.719C61.3607 172.75 60.8606 172.796 60.315 172.826C59.633 172.872 58.9207 172.902 58.2084 172.933C57.6779 172.963 57.1627 172.994 56.6171 173.009C55.7986 173.039 54.9499 173.054 54.1012 173.085C53.6314 173.1 53.1919 173.115 52.7221 173.131C51.3884 173.161 50.0092 173.176 48.5998 173.176C47.1903 173.176 45.8263 173.161 44.4774 173.131C44.0076 173.115 43.553 173.1 43.0983 173.085C42.2496 173.07 41.4009 173.039 40.5825 173.009C40.0369 172.994 39.5216 172.963 38.9911 172.933C38.294 172.902 37.5665 172.872 36.8845 172.826C36.3389 172.796 35.8388 172.75 35.3083 172.719C34.6718 172.674 34.0201 172.643 33.4139 172.582C32.8834 172.537 32.3681 172.491 31.8529 172.445C31.2921 172.4 30.7162 172.354 30.1706 172.293C29.6401 172.247 29.1552 172.186 28.6399 172.126C28.1397 172.065 27.6245 172.019 27.1395 171.958C26.6393 171.897 26.1695 171.836 25.6997 171.775C25.245 171.714 24.7752 171.653 24.3357 171.593C23.8659 171.532 23.4415 171.455 23.002 171.379C22.5928 171.318 22.1533 171.258 21.7593 171.181C21.3349 171.105 20.9257 171.029 20.5165 170.953C20.1376 170.892 19.7587 170.816 19.4101 170.755C19.0161 170.679 18.6524 170.603 18.2886 170.527C17.9552 170.45 17.6066 170.389 17.2884 170.313C16.9398 170.237 16.6215 170.161 16.2881 170.07C15.985 169.994 15.6819 169.933 15.4091 169.856C15.106 169.78 14.818 169.704 14.53 169.613C14.2724 169.537 13.9996 169.476 13.7723 169.4C13.4995 169.324 13.2721 169.247 13.0145 169.171C12.7872 169.095 12.5598 169.034 12.3628 168.958C12.1506 168.882 11.9536 168.806 11.7566 168.73C11.5747 168.653 11.3777 168.593 11.211 168.516C11.0443 168.44 10.8927 168.379 10.7412 168.303C10.5896 168.227 10.438 168.166 10.3016 168.105C10.1652 168.044 10.0743 167.968 9.95307 167.907C9.86214 167.846 9.7712 167.801 9.69543 167.755V151.156C9.75605 151.171 9.81667 151.202 9.87729 151.217C10.4077 151.4 10.9533 151.567 11.4989 151.735C11.5444 151.75 11.605 151.765 11.6505 151.78C12.1506 151.933 12.6659 152.07 13.1812 152.207C13.3934 152.252 13.5904 152.313 13.8026 152.359C14.1815 152.45 14.5604 152.542 14.9392 152.633C15.1514 152.679 15.3636 152.725 15.5606 152.77C16.0305 152.877 16.5003 152.968 16.9549 153.06C17.0307 153.075 17.1065 153.09 17.1823 153.105C25.6391 154.811 36.7936 155.74 48.6149 155.74C60.4363 155.74 71.6059 154.811 80.0476 153.105C80.1385 153.09 80.2294 153.06 80.3355 153.044C80.775 152.953 81.2297 152.862 81.6692 152.755C81.8814 152.709 82.0936 152.664 82.3209 152.603C82.6846 152.511 83.0635 152.435 83.4272 152.344C83.6394 152.298 83.8516 152.237 84.0486 152.192C84.5639 152.054 85.064 151.917 85.5642 151.78C85.6248 151.765 85.6854 151.75 85.7309 151.735C86.2765 151.567 86.8221 151.4 87.3525 151.217C87.3828 151.202 87.4435 151.186 87.5041 151.156ZM17.1217 100.948C25.5633 102.653 36.7329 103.582 48.5694 103.582C48.5694 103.582 48.5694 103.582 48.5846 103.582C48.5998 103.582 48.5846 103.582 48.5998 103.582C53.9194 103.582 59.1026 103.384 63.9675 103.019C64.4979 102.973 65.0435 102.943 65.574 102.897C65.8468 102.882 66.1044 102.851 66.3772 102.821C70.0752 102.501 73.561 102.075 76.7436 101.542C77.8803 101.359 78.9867 101.146 80.0476 100.933C80.1082 100.917 80.1688 100.902 80.2294 100.887C80.7144 100.796 81.1994 100.689 81.6995 100.582C81.8814 100.537 82.0784 100.491 82.2603 100.461C82.6695 100.369 83.0635 100.278 83.4727 100.171C83.6546 100.126 83.8516 100.08 84.0335 100.034C84.5791 99.8971 85.1095 99.7448 85.64 99.5925C85.6703 99.5773 85.7157 99.5773 85.746 99.5621C86.2916 99.4098 86.8221 99.2271 87.3374 99.0596C87.4132 99.0291 87.4738 99.0139 87.5496 98.9986V115.598C87.4738 115.643 87.3828 115.704 87.2919 115.765C87.1858 115.826 87.0797 115.887 86.9585 115.963C86.8221 116.024 86.6705 116.1 86.519 116.176C86.3674 116.252 86.231 116.313 86.0491 116.389C85.8824 116.466 85.6703 116.527 85.4884 116.603C85.2914 116.679 85.1095 116.755 84.8973 116.816C84.6852 116.892 84.4427 116.968 84.2153 117.044C83.988 117.12 83.7607 117.197 83.503 117.273C83.2454 117.349 82.9726 117.425 82.6998 117.501C82.427 117.577 82.1542 117.653 81.8511 117.73C81.5631 117.806 81.2448 117.882 80.9266 117.958C80.6083 118.034 80.3052 118.11 79.9718 118.186C79.6384 118.263 79.2746 118.339 78.926 118.4C78.5775 118.476 78.2289 118.552 77.85 118.613C77.4711 118.689 77.0771 118.75 76.6679 118.826C76.2738 118.902 75.8949 118.963 75.4857 119.039C75.0765 119.115 74.6219 119.176 74.1824 119.237C73.758 119.298 73.3488 119.374 72.8941 119.435C72.4243 119.496 71.9393 119.557 71.4543 119.633C70.9997 119.694 70.5602 119.755 70.0903 119.816C69.5751 119.877 69.0295 119.938 68.499 119.999C68.014 120.044 67.5442 120.105 67.0441 120.151C66.4985 120.212 65.9074 120.258 65.3315 120.303C64.8162 120.349 64.3161 120.395 63.7856 120.44C63.1643 120.486 62.5277 120.532 61.8912 120.577C61.3607 120.608 60.8606 120.653 60.315 120.684C59.6179 120.73 58.8904 120.76 58.1781 120.791C57.6628 120.821 57.1475 120.851 56.6171 120.867C55.7986 120.897 54.9348 120.912 54.0709 120.943C53.6162 120.958 53.1767 120.973 52.7069 120.988C51.3732 121.019 49.9941 121.034 48.5846 121.034C47.1751 121.034 45.8111 121.019 44.4623 120.988C43.9925 120.973 43.5681 120.958 43.1134 120.943C42.2496 120.928 41.3857 120.897 40.5673 120.867C40.0369 120.851 39.5367 120.821 39.0214 120.791C38.294 120.76 37.5665 120.73 36.8694 120.684C36.3389 120.653 35.8388 120.608 35.3083 120.577C34.6718 120.532 34.0049 120.501 33.3836 120.44C32.8531 120.395 32.3681 120.349 31.8529 120.303C31.2769 120.258 30.6859 120.197 30.1251 120.151C29.625 120.105 29.1703 120.044 28.6853 119.999C28.1549 119.938 27.5941 119.877 27.0789 119.816C26.6242 119.755 26.1847 119.694 25.7452 119.633C25.2602 119.572 24.7449 119.511 24.2751 119.435C23.8356 119.374 23.4264 119.298 23.0172 119.237C22.5777 119.161 22.123 119.1 21.6986 119.024C21.2894 118.963 20.9257 118.887 20.5317 118.811C20.1376 118.735 19.7284 118.674 19.3344 118.598C18.9706 118.521 18.6221 118.445 18.2735 118.384C17.9097 118.308 17.546 118.232 17.2126 118.156C16.8792 118.08 16.5761 118.004 16.2578 117.928C15.9395 117.851 15.6212 117.775 15.3333 117.699C15.0302 117.623 14.7725 117.547 14.4997 117.471C14.2269 117.395 13.9541 117.318 13.6965 117.242C13.4388 117.166 13.2115 117.09 12.9842 117.014C12.7568 116.938 12.5144 116.862 12.3022 116.785C12.09 116.709 11.9081 116.633 11.7111 116.572C11.5141 116.496 11.3171 116.42 11.1504 116.359C10.9836 116.283 10.8321 116.222 10.6805 116.146C10.529 116.07 10.3623 116.009 10.2259 115.933C10.1046 115.872 9.99854 115.811 9.89245 115.735C9.80151 115.674 9.71058 115.628 9.6348 115.567V98.9986C12.0142 99.821 14.621 100.445 17.1217 100.948ZM87.5041 125.085V141.684C87.4283 141.73 87.3374 141.791 87.2464 141.836C87.1404 141.897 87.0343 141.958 86.8979 142.034C86.7615 142.095 86.6099 142.171 86.4584 142.232C86.3068 142.308 86.1552 142.369 85.9885 142.445C85.8218 142.521 85.6248 142.582 85.4429 142.659C85.2459 142.735 85.0489 142.811 84.8367 142.887C84.6397 142.963 84.3972 143.024 84.185 143.1C83.9425 143.176 83.7 143.252 83.4272 143.329C83.1848 143.405 82.9271 143.466 82.6695 143.542C82.3815 143.618 82.0936 143.694 81.7904 143.785C81.5176 143.862 81.1994 143.922 80.9114 143.999C80.578 144.075 80.2597 144.151 79.9111 144.242C79.5929 144.318 79.2443 144.379 78.9109 144.455C78.5471 144.532 78.1834 144.608 77.7894 144.684C77.4408 144.76 77.0467 144.821 76.683 144.882C76.2738 144.958 75.8798 145.034 75.4403 145.11C75.0462 145.171 74.6219 145.247 74.1975 145.308C73.758 145.384 73.3185 145.445 72.8638 145.521C72.4243 145.582 71.9545 145.643 71.4998 145.704C71.0148 145.765 70.5602 145.826 70.06 145.887C69.5751 145.948 69.0598 145.994 68.5596 146.054C68.0443 146.115 67.5594 146.176 67.0289 146.222C66.4833 146.283 65.9074 146.329 65.3466 146.374C64.8314 146.42 64.3161 146.466 63.7856 146.511C63.1643 146.557 62.5277 146.603 61.8912 146.648C61.3607 146.679 60.8606 146.725 60.315 146.755C59.633 146.801 58.9207 146.831 58.2084 146.862C57.6779 146.892 57.1627 146.922 56.6171 146.938C55.7986 146.968 54.9499 146.983 54.1012 147.014C53.6314 147.029 53.1919 147.044 52.7221 147.06C51.3884 147.09 50.0092 147.105 48.5998 147.105C47.1903 147.105 45.8263 147.09 44.4774 147.06C44.0076 147.044 43.553 147.029 43.0983 147.014C42.2496 146.999 41.4009 146.968 40.5825 146.938C40.0369 146.922 39.5216 146.892 38.9911 146.862C38.294 146.831 37.5665 146.801 36.8845 146.755C36.3389 146.725 35.8388 146.679 35.3083 146.648C34.6718 146.603 34.0201 146.572 33.4139 146.511C32.8834 146.466 32.3681 146.42 31.8529 146.374C31.2921 146.329 30.7162 146.283 30.1706 146.222C29.6401 146.176 29.1552 146.115 28.6399 146.054C28.1397 145.994 27.6245 145.948 27.1395 145.887C26.6393 145.826 26.1695 145.765 25.6997 145.704C25.245 145.643 24.7752 145.582 24.3357 145.521C23.8659 145.461 23.4415 145.384 23.002 145.308C22.5928 145.247 22.1533 145.186 21.7593 145.11C21.3349 145.034 20.9257 144.958 20.5165 144.882C20.1376 144.821 19.7587 144.745 19.4101 144.684C19.0161 144.608 18.6524 144.532 18.2886 144.455C17.9552 144.379 17.6066 144.318 17.2884 144.242C16.9398 144.166 16.6215 144.09 16.2881 143.999C15.985 143.922 15.6819 143.862 15.4091 143.785C15.106 143.709 14.818 143.633 14.53 143.542C14.2724 143.466 13.9996 143.405 13.7723 143.329C13.4995 143.252 13.2721 143.176 13.0145 143.1C12.7872 143.024 12.5598 142.963 12.3628 142.887C12.1506 142.811 11.9536 142.735 11.7566 142.659C11.5747 142.582 11.3777 142.521 11.211 142.445C11.0443 142.369 10.8927 142.308 10.7412 142.232C10.5896 142.156 10.438 142.095 10.3016 142.034C10.1652 141.973 10.0743 141.897 9.95307 141.836C9.86214 141.775 9.7712 141.73 9.69543 141.684V125.085C9.75605 125.1 9.83182 125.131 9.89245 125.146C10.4229 125.329 10.9533 125.496 11.4989 125.664C11.5596 125.679 11.6202 125.694 11.696 125.709C12.1961 125.846 12.6962 125.983 13.1964 126.12C13.4085 126.166 13.6056 126.227 13.8177 126.273C14.1966 126.364 14.5755 126.455 14.9392 126.547C15.1514 126.593 15.3636 126.638 15.5606 126.684C16.0305 126.791 16.5003 126.882 16.9549 126.973C17.0307 126.988 17.1065 127.004 17.1823 127.019C25.6239 128.725 36.7936 129.653 48.6149 129.653C60.4363 129.653 71.6059 128.725 80.0476 127.019C80.1233 127.004 80.1991 126.988 80.2749 126.973C80.7447 126.882 81.1994 126.775 81.6692 126.684C81.8814 126.638 82.0936 126.593 82.2906 126.547C82.6695 126.455 83.0484 126.364 83.4121 126.273C83.6243 126.227 83.8213 126.166 84.0335 126.12C84.5336 125.983 85.0337 125.862 85.5339 125.709C85.5945 125.694 85.6551 125.679 85.7309 125.664C86.2765 125.496 86.8069 125.329 87.3374 125.146C87.3828 125.115 87.4435 125.1 87.5041 125.085ZM18.8191 88.6585C26.609 87.09 37.4453 86.1915 48.5694 86.1915C59.6936 86.1915 70.5299 87.09 78.3198 88.6585C81.6086 89.3134 83.8213 89.9834 85.2762 90.5469C84.9276 90.6839 84.5336 90.821 84.0789 90.9733C84.0335 90.9885 84.0032 91.0037 83.9577 91.0037C83.8061 91.0494 83.6546 91.0951 83.4879 91.156C80.5325 92.0392 76.198 92.9377 70.5905 93.6382C70.2571 93.6839 69.9236 93.7144 69.5902 93.7601C68.9991 93.8362 68.4081 93.8971 67.7867 93.958C66.8774 94.0494 65.968 94.1408 65.0435 94.2169C64.892 94.2321 64.7404 94.2474 64.5737 94.2626C59.5269 94.6738 54.0861 94.9022 48.5543 94.9022C48.433 94.9022 48.327 94.9022 48.2209 94.9022C42.871 94.887 37.5968 94.6738 32.7016 94.2778C32.2772 94.2474 31.8529 94.2017 31.4285 94.1712C30.792 94.1103 30.1554 94.0494 29.5341 93.9885C28.6853 93.8971 27.8518 93.8057 27.0485 93.7144C26.9728 93.6991 26.9121 93.6991 26.8364 93.6839C20.1831 92.8616 15.3181 91.7651 12.3476 90.7448C12.1658 90.6839 11.9839 90.6078 11.8172 90.5469C13.3176 89.9834 15.5152 89.3134 18.8191 88.6585ZM87.5041 193.841C84.4881 195.851 70.8936 199.217 48.5694 199.217C26.2453 199.217 12.6508 195.851 9.6348 193.841V177.242C9.69542 177.258 9.75605 177.288 9.81667 177.303C10.3471 177.486 10.8927 177.653 11.4383 177.821C11.4838 177.836 11.5444 177.851 11.5899 177.867C12.09 178.019 12.6053 178.156 13.1206 178.293C13.3328 178.339 13.5298 178.4 13.742 178.445C14.1208 178.537 14.4997 178.628 14.8786 178.719C15.0908 178.765 15.303 178.811 15.5 178.856C15.9698 178.963 16.4397 179.054 16.8943 179.146C16.9701 179.161 17.0459 179.176 17.1217 179.192C25.5785 180.897 36.7329 181.826 48.5543 181.826C60.3756 181.826 71.5453 180.897 79.9869 179.192C80.0779 179.176 80.1688 179.146 80.2749 179.131C80.7144 179.039 81.1691 178.948 81.6086 178.841C81.8207 178.796 82.0329 178.75 82.2603 178.689C82.624 178.598 83.0029 178.521 83.3666 178.43C83.5788 178.384 83.791 178.324 83.988 178.278C84.5033 178.141 85.0034 178.004 85.5035 177.867C85.5642 177.851 85.6248 177.836 85.6703 177.821C86.2159 177.653 86.7615 177.486 87.2919 177.303C87.3525 177.288 87.4132 177.258 87.4889 177.242V193.841H87.5041Z" fill="#00638C"/>
</svg>
