<svg width="138" height="137" viewBox="0 0 138 137" fill="none" xmlns="http://www.w3.org/2000/svg">
<path d="M74.4996 99.548C80.5096 99.538 86.4996 98.658 92.2596 96.928L96.2896 107.858C97.1396 110.008 98.7996 111.728 100.9 112.668C103 113.608 105.4 113.688 107.56 112.888C109.73 112.088 111.49 110.478 112.49 108.398C113.48 106.318 113.62 103.928 112.88 101.738L108.27 89.228C114.96 84.718 120.14 78.308 123.14 70.818H128.47C129.98 70.818 131.44 70.218 132.51 69.148C133.58 68.078 134.18 66.628 134.18 65.108V47.998C134.18 46.488 133.58 45.028 132.51 43.958C131.44 42.888 129.99 42.288 128.47 42.288H123.13C120.48 34.688 115.91 27.898 109.86 22.588V5.70803C109.86 5.26803 109.76 4.83803 109.56 4.43804C109.36 4.04804 109.08 3.69804 108.73 3.43804C108.38 3.16804 107.97 2.98804 107.54 2.90804C107.11 2.82804 106.66 2.84803 106.24 2.95803C100.33 4.77804 95.1896 8.49803 91.6396 13.558C86.0696 11.968 80.2996 11.158 74.5096 11.158C51.9796 11.178 32.6796 22.908 25.0196 39.438C22.0396 47.278 20.7596 55.658 21.2896 64.028C21.8096 72.398 24.1196 80.558 28.0596 87.968C42.6696 94.688 58.4296 98.618 74.4996 99.548Z" fill="#DFF9FF"/>
<path d="M125.78 55.3182C124.7 55.3382 123.65 55.6582 122.75 56.2382C121.85 56.8182 121.11 57.6382 120.64 58.6082C112.27 74.5982 92.5696 83.3882 74.5696 83.4182C23.3896 83.4182 23.1896 60.1482 22.5296 47.4082C19.6896 61.1682 21.6296 75.4782 28.0396 87.9782C42.6696 94.6882 58.4296 98.6182 74.4996 99.5482C80.5196 99.5382 86.4996 98.6582 92.2596 96.9282L96.1296 107.428C96.8296 109.458 98.2196 111.178 100.07 112.288C101.91 113.398 104.09 113.828 106.21 113.498C107.47 113.258 108.67 112.748 109.72 111.998C110.77 111.248 111.64 110.288 112.27 109.168C112.9 108.048 113.29 106.808 113.39 105.528C113.5 104.248 113.32 102.958 112.88 101.748L108.26 89.2382C114.95 84.7282 120.13 78.3182 123.14 70.8282H128.48C129.99 70.8282 131.45 70.2282 132.52 69.1582C133.59 68.0882 134.19 66.6382 134.19 65.1182V55.3182H125.78Z" fill="#9FEAFF"/>
<path d="M104.5 116.308C102.88 116.308 101.26 115.968 99.7299 115.288C96.9299 114.038 94.7599 111.778 93.6299 108.918L90.4799 100.388C85.2599 101.718 79.8999 102.398 74.4999 102.408C72.9299 102.408 71.6499 101.128 71.6499 99.5583C71.6499 97.9782 72.9199 96.6982 74.4999 96.6982C80.2499 96.6882 85.9399 95.8483 91.4399 94.1982C92.8899 93.7682 94.4199 94.5283 94.9399 95.9482L98.9699 106.878C99.5299 108.278 100.64 109.428 102.07 110.078C103.5 110.718 105.11 110.778 106.58 110.228C108.05 109.688 109.24 108.598 109.92 107.188C110.6 105.768 110.69 104.168 110.18 102.678L105.59 90.2383C105.13 89.0082 105.58 87.6183 106.67 86.8883C112.91 82.6783 117.69 76.7683 120.49 69.7883C120.92 68.7083 121.97 67.9983 123.14 67.9983H128.48C129.24 67.9983 129.96 67.6983 130.5 67.1583C131.04 66.6183 131.34 65.9082 131.34 65.1383V47.9982C131.34 47.2383 131.04 46.5182 130.5 45.9782C129.96 45.4382 129.24 45.1382 128.48 45.1382H123.15C121.94 45.1382 120.85 44.3683 120.45 43.2183C117.97 36.0983 113.65 29.6982 107.98 24.7282C107.36 24.1882 107.01 23.3982 107.01 22.5782V5.70825C101.81 7.30825 97.1499 10.6982 93.9799 15.2082C93.2799 16.1982 92.0299 16.6482 90.8599 16.3082C85.5399 14.7882 80.0399 14.0182 74.5099 14.0182C53.8399 14.0182 34.9899 24.7183 27.6099 40.6283C26.9499 42.0583 25.2499 42.6782 23.8199 42.0182C22.3899 41.3582 21.7699 39.6582 22.4299 38.2282C30.8399 20.0582 51.2899 8.31825 74.4999 8.31825C79.8999 8.31825 85.2799 8.98825 90.5099 10.3182C94.3399 5.57825 99.5499 2.02825 105.39 0.228249C106.31 -0.0317507 107.21 -0.0617507 108.07 0.0982493C108.92 0.258249 109.75 0.628249 110.45 1.15825C111.15 1.68825 111.73 2.38825 112.12 3.17825C112.51 3.95825 112.71 4.83825 112.71 5.71825V21.3282C118.15 26.3582 122.4 32.5582 125.12 39.4382H128.47C130.76 39.4382 132.91 40.3283 134.53 41.9482C136.15 43.5682 137.04 45.7183 137.04 47.9982V65.1283C137.04 67.4183 136.15 69.5683 134.53 71.1783C132.91 72.7983 130.76 73.6883 128.47 73.6883H125.01C122.02 80.2683 117.46 85.9483 111.69 90.2983L115.55 100.758C116.57 103.728 116.38 106.858 115.06 109.628C113.74 112.398 111.43 114.508 108.54 115.568C107.23 116.068 105.86 116.308 104.5 116.308Z" fill="#00303E"/>
<path d="M98.51 45.1577C98.23 45.1577 97.95 45.1277 97.68 45.0777C96.85 44.9077 96.09 44.5077 95.48 43.9077C94.88 43.3077 94.47 42.5477 94.31 41.7077C94.14 40.8777 94.23 40.0277 94.55 39.2377C94.87 38.4577 95.42 37.7877 96.13 37.3177C96.84 36.8477 97.66 36.5977 98.5 36.5977C99.06 36.5777 99.63 36.7077 100.16 36.9277C100.68 37.1377 101.15 37.4577 101.55 37.8577C101.95 38.2477 102.26 38.7177 102.48 39.2477C102.7 39.7777 102.8 40.3277 102.8 40.8877C102.8 41.7277 102.55 42.5577 102.07 43.2677C101.61 43.9677 100.94 44.5177 100.15 44.8377C99.62 45.0477 99.06 45.1577 98.51 45.1577ZM98.51 39.4477C98.33 39.4477 98.14 39.4877 97.97 39.5577C97.7 39.6677 97.48 39.8577 97.32 40.0877C97.17 40.3177 97.09 40.5877 97.09 40.8777C97.09 41.0577 97.13 41.2377 97.2 41.4177C97.27 41.5977 97.38 41.7577 97.52 41.8977C97.65 42.0277 97.81 42.1377 97.99 42.2077C98.4 42.3777 98.93 42.3377 99.32 42.0777C99.56 41.9177 99.74 41.6977 99.85 41.4377C99.96 41.1777 99.99 40.8877 99.93 40.6077C99.88 40.3377 99.74 40.0777 99.54 39.8777C99.34 39.6777 99.09 39.5477 98.81 39.4877C98.69 39.4577 98.6 39.4477 98.51 39.4477Z" fill="#00303E"/>
<path d="M45.6801 36.5983C45.0001 36.5983 44.3101 36.3583 43.7601 35.8583C42.5901 34.7983 42.5001 32.9983 43.5601 31.8283C49.9701 24.7483 58.7401 20.3683 68.2501 19.4783C69.8101 19.3383 71.2101 20.4883 71.3601 22.0583C71.5101 23.6283 70.3501 25.0183 68.7801 25.1683C60.7001 25.9183 53.2401 29.6483 47.8001 35.6583C47.2401 36.2783 46.4601 36.5983 45.6801 36.5983Z" fill="#00303E"/>
<path d="M2.84961 59.4483C2.84961 60.9583 5.85961 62.4183 11.2096 63.4883C16.5596 64.5583 23.8196 65.1583 31.3996 65.1583C38.9696 65.1583 46.2296 64.5583 51.5896 63.4883C56.9396 62.4183 59.9496 60.9683 59.9496 59.4483C59.9496 57.9383 56.9396 56.4783 51.5896 55.4083C46.2396 54.3383 38.9796 53.7383 31.3996 53.7383C23.8296 53.7383 16.5696 54.3383 11.2096 55.4083C5.85961 56.4883 2.84961 57.9383 2.84961 59.4483Z" fill="#DFF9FF"/>
<path d="M59.9601 59.4492V76.5792C59.9601 79.7292 47.1701 82.2892 31.4101 82.2892C15.6501 82.2892 2.87012 79.7292 2.87012 76.5792V59.4492C2.87012 62.5992 15.6501 65.1592 31.4201 65.1592C47.1901 65.1592 59.9601 62.5992 59.9601 59.4492Z" fill="#9FEAFF"/>
<path d="M59.9601 76.5781V93.7081C59.9601 96.8581 47.1701 99.4181 31.4101 99.4181C15.6501 99.4181 2.87012 96.8581 2.87012 93.7081V76.5781C2.87012 79.7281 15.6501 82.2881 31.4201 82.2881C47.1901 82.2881 59.9601 79.7281 59.9601 76.5781Z" fill="#9FEAFF"/>
<path d="M59.9604 93.707V110.837C59.9604 113.987 47.1703 116.547 31.4104 116.547C15.6504 116.547 2.86035 113.987 2.86035 110.837V93.707C2.86035 96.857 15.6404 99.417 31.4104 99.417C47.1804 99.417 59.9604 96.857 59.9604 93.707Z" fill="#9FEAFF"/>
<path d="M59.9604 110.838V127.968C59.9604 131.118 47.1703 133.678 31.4104 133.678C15.6504 133.678 2.86035 131.118 2.86035 127.968V110.838C2.86035 113.988 15.6404 116.548 31.4104 116.548C47.1804 116.548 59.9604 113.978 59.9604 110.838Z" fill="#9FEAFF"/>
<path d="M31.4104 65.1592C15.6504 65.1592 2.86035 62.5892 2.86035 59.4492V76.5792C2.86035 79.7192 15.6404 82.2892 31.4104 82.2892V65.1592Z" fill="#DFF9FF"/>
<path d="M31.4104 82.2881C15.6504 82.2881 2.86035 79.7181 2.86035 76.5781V93.7081C2.86035 96.8481 15.6404 99.4181 31.4104 99.4181V82.2881Z" fill="#DFF9FF"/>
<path d="M31.4104 99.417C15.6504 99.417 2.86035 96.847 2.86035 93.707V110.837C2.86035 113.977 15.6404 116.547 31.4104 116.547V99.417Z" fill="#DFF9FF"/>
<path d="M31.4104 116.548C15.6504 116.548 2.86035 113.978 2.86035 110.838V127.968C2.86035 131.108 15.6404 133.678 31.4104 133.678V116.548Z" fill="#DFF9FF"/>
<path d="M62.75 58.8587C62.23 55.1187 56.86 53.5587 52.15 52.6187C46.58 51.4987 39.21 50.8887 31.4 50.8887C23.59 50.8887 16.22 51.4987 10.66 52.6187C5.69 53.6087 0 55.2787 0 59.4487C0 59.4887 0.01 59.5387 0.01 59.5787V76.5787V93.7087V110.839V127.969C0.01 132.139 5.71 133.809 10.67 134.799C16.25 135.919 23.61 136.529 31.41 136.529C39.21 136.529 46.58 135.919 52.15 134.799C57.11 133.809 62.81 132.129 62.81 127.969V110.839V93.7087V76.5787V59.4487C62.81 59.2487 62.79 59.0487 62.75 58.8587ZM57.1 99.2587V110.159C57.05 110.189 56.99 110.229 56.93 110.259C56.86 110.299 56.79 110.339 56.7 110.389C56.61 110.429 56.51 110.479 56.41 110.519C56.31 110.569 56.21 110.609 56.1 110.659C55.99 110.709 55.86 110.749 55.74 110.799C55.61 110.849 55.48 110.899 55.34 110.949C55.21 110.999 55.05 111.039 54.91 111.089C54.75 111.139 54.59 111.189 54.41 111.239C54.25 111.289 54.08 111.329 53.91 111.379C53.72 111.429 53.53 111.479 53.33 111.539C53.15 111.589 52.94 111.629 52.75 111.679C52.53 111.729 52.32 111.779 52.09 111.839C51.88 111.889 51.65 111.929 51.43 111.979C51.19 112.029 50.95 112.079 50.69 112.129C50.46 112.179 50.2 112.219 49.96 112.259C49.69 112.309 49.43 112.359 49.14 112.409C48.88 112.449 48.6 112.499 48.32 112.539C48.03 112.589 47.74 112.629 47.44 112.679C47.15 112.719 46.84 112.759 46.54 112.799C46.22 112.839 45.92 112.879 45.59 112.919C45.27 112.959 44.93 112.989 44.6 113.029C44.26 113.069 43.94 113.109 43.59 113.139C43.23 113.179 42.85 113.209 42.48 113.239C42.14 113.269 41.8 113.299 41.45 113.329C41.04 113.359 40.62 113.389 40.2 113.419C39.85 113.439 39.52 113.469 39.16 113.489C38.71 113.519 38.24 113.539 37.77 113.559C37.42 113.579 37.08 113.599 36.72 113.609C36.18 113.629 35.62 113.639 35.06 113.659C34.75 113.669 34.46 113.679 34.15 113.689C33.27 113.709 32.36 113.719 31.43 113.719C30.5 113.719 29.6 113.709 28.71 113.689C28.4 113.679 28.1 113.669 27.8 113.659C27.24 113.649 26.68 113.629 26.14 113.609C25.78 113.599 25.44 113.579 25.09 113.559C24.63 113.539 24.15 113.519 23.7 113.489C23.34 113.469 23.01 113.439 22.66 113.419C22.24 113.389 21.81 113.369 21.41 113.329C21.06 113.299 20.72 113.269 20.38 113.239C20.01 113.209 19.63 113.179 19.27 113.139C18.92 113.109 18.6 113.069 18.26 113.029C17.93 112.989 17.59 112.959 17.27 112.919C16.94 112.879 16.63 112.839 16.32 112.799C16.02 112.759 15.71 112.719 15.42 112.679C15.11 112.639 14.83 112.589 14.54 112.539C14.27 112.499 13.98 112.459 13.72 112.409C13.44 112.359 13.17 112.309 12.9 112.259C12.65 112.219 12.4 112.169 12.17 112.129C11.91 112.079 11.67 112.029 11.43 111.979C11.21 111.929 10.98 111.889 10.77 111.839C10.54 111.789 10.33 111.739 10.11 111.679C9.91 111.629 9.71 111.589 9.53 111.539C9.33 111.489 9.14 111.439 8.95 111.379C8.78 111.329 8.6 111.289 8.45 111.239C8.27 111.189 8.12 111.139 7.95 111.089C7.8 111.039 7.65 110.999 7.52 110.949C7.38 110.899 7.25 110.849 7.12 110.799C7 110.749 6.87 110.709 6.76 110.659C6.65 110.609 6.55 110.569 6.45 110.519C6.35 110.469 6.25 110.429 6.16 110.389C6.07 110.349 6.01 110.299 5.93 110.259C5.87 110.219 5.81 110.189 5.76 110.159V99.2587C5.8 99.2687 5.84 99.2887 5.88 99.2987C6.23 99.4187 6.59 99.5287 6.95 99.6387C6.98 99.6487 7.02 99.6587 7.05 99.6687C7.38 99.7687 7.72 99.8587 8.06 99.9487C8.2 99.9787 8.33 100.019 8.47 100.049C8.72 100.109 8.97 100.169 9.22 100.229C9.36 100.259 9.5 100.289 9.63 100.319C9.94 100.389 10.25 100.449 10.55 100.509C10.6 100.519 10.65 100.529 10.7 100.539C16.28 101.659 23.64 102.269 31.44 102.269C39.24 102.269 46.61 101.659 52.18 100.539C52.24 100.529 52.3 100.509 52.37 100.499C52.66 100.439 52.96 100.379 53.25 100.309C53.39 100.279 53.53 100.249 53.68 100.209C53.92 100.149 54.17 100.099 54.41 100.039C54.55 100.009 54.69 99.9687 54.82 99.9387C55.16 99.8487 55.49 99.7587 55.82 99.6687C55.86 99.6587 55.9 99.6487 55.93 99.6387C56.29 99.5287 56.65 99.4187 57 99.2987C57.02 99.2887 57.06 99.2787 57.1 99.2587ZM10.66 66.2887C16.23 67.4087 23.6 68.0187 31.41 68.0187C31.41 68.0187 31.41 68.0187 31.42 68.0187C31.43 68.0187 31.42 68.0187 31.43 68.0187C34.94 68.0187 38.36 67.8887 41.57 67.6487C41.92 67.6187 42.28 67.5987 42.63 67.5687C42.81 67.5587 42.98 67.5387 43.16 67.5187C45.6 67.3087 47.9 67.0287 50 66.6787C50.75 66.5587 51.48 66.4187 52.18 66.2787C52.22 66.2687 52.26 66.2587 52.3 66.2487C52.62 66.1887 52.94 66.1187 53.27 66.0487C53.39 66.0187 53.52 65.9887 53.64 65.9687C53.91 65.9087 54.17 65.8487 54.44 65.7787C54.56 65.7487 54.69 65.7187 54.81 65.6887C55.17 65.5987 55.52 65.4987 55.87 65.3987C55.89 65.3887 55.92 65.3887 55.94 65.3787C56.3 65.2787 56.65 65.1587 56.99 65.0487C57.04 65.0287 57.08 65.0187 57.13 65.0087V75.9087C57.08 75.9387 57.02 75.9787 56.96 76.0187C56.89 76.0587 56.82 76.0987 56.74 76.1487C56.65 76.1887 56.55 76.2387 56.45 76.2887C56.35 76.3387 56.26 76.3787 56.14 76.4287C56.03 76.4787 55.89 76.5187 55.77 76.5687C55.64 76.6187 55.52 76.6687 55.38 76.7087C55.24 76.7587 55.08 76.8087 54.93 76.8587C54.78 76.9087 54.63 76.9587 54.46 77.0087C54.29 77.0587 54.11 77.1087 53.93 77.1587C53.75 77.2087 53.57 77.2587 53.37 77.3087C53.18 77.3587 52.97 77.4087 52.76 77.4587C52.55 77.5087 52.35 77.5587 52.13 77.6087C51.91 77.6587 51.67 77.7087 51.44 77.7487C51.21 77.7987 50.98 77.8487 50.73 77.8887C50.48 77.9387 50.22 77.9787 49.95 78.0287C49.69 78.0787 49.44 78.1187 49.17 78.1687C48.9 78.2187 48.6 78.2587 48.31 78.2987C48.03 78.3387 47.76 78.3887 47.46 78.4287C47.15 78.4687 46.83 78.5087 46.51 78.5587C46.21 78.5987 45.92 78.6387 45.61 78.6787C45.27 78.7187 44.91 78.7587 44.56 78.7987C44.24 78.8287 43.93 78.8687 43.6 78.8987C43.24 78.9387 42.85 78.9687 42.47 78.9987C42.13 79.0287 41.8 79.0587 41.45 79.0887C41.04 79.1187 40.62 79.1487 40.2 79.1787C39.85 79.1987 39.52 79.2287 39.16 79.2487C38.7 79.2787 38.22 79.2987 37.75 79.3187C37.41 79.3387 37.07 79.3587 36.72 79.3687C36.18 79.3887 35.61 79.3987 35.04 79.4187C34.74 79.4287 34.45 79.4387 34.14 79.4487C33.26 79.4687 32.35 79.4787 31.42 79.4787C30.49 79.4787 29.59 79.4687 28.7 79.4487C28.39 79.4387 28.11 79.4287 27.81 79.4187C27.24 79.4087 26.67 79.3887 26.13 79.3687C25.78 79.3587 25.45 79.3387 25.11 79.3187C24.63 79.2987 24.15 79.2787 23.69 79.2487C23.34 79.2287 23.01 79.1987 22.66 79.1787C22.24 79.1487 21.8 79.1287 21.39 79.0887C21.04 79.0587 20.72 79.0287 20.38 78.9987C20 78.9687 19.61 78.9287 19.24 78.8987C18.91 78.8687 18.61 78.8287 18.29 78.7987C17.94 78.7587 17.57 78.7187 17.23 78.6787C16.93 78.6387 16.64 78.5987 16.35 78.5587C16.03 78.5187 15.69 78.4787 15.38 78.4287C15.09 78.3887 14.82 78.3387 14.55 78.2987C14.26 78.2487 13.96 78.2087 13.68 78.1587C13.41 78.1187 13.17 78.0687 12.91 78.0187C12.65 77.9687 12.38 77.9287 12.12 77.8787C11.88 77.8287 11.65 77.7787 11.42 77.7387C11.18 77.6887 10.94 77.6387 10.72 77.5887C10.5 77.5387 10.3 77.4887 10.09 77.4387C9.88 77.3887 9.67 77.3387 9.48 77.2887C9.28 77.2387 9.11 77.1887 8.93 77.1387C8.75 77.0887 8.57 77.0387 8.4 76.9887C8.23 76.9387 8.08 76.8887 7.93 76.8387C7.78 76.7887 7.62 76.7387 7.48 76.6887C7.34 76.6387 7.22 76.5887 7.09 76.5487C6.96 76.4987 6.83 76.4487 6.72 76.4087C6.61 76.3587 6.51 76.3187 6.41 76.2687C6.31 76.2187 6.2 76.1787 6.11 76.1287C6.03 76.0887 5.96 76.0487 5.89 75.9987C5.83 75.9587 5.77 75.9287 5.72 75.8887V65.0087C7.29 65.5487 9.01 65.9587 10.66 66.2887ZM57.1 82.1387V93.0387C57.05 93.0687 56.99 93.1087 56.93 93.1387C56.86 93.1787 56.79 93.2187 56.7 93.2687C56.61 93.3087 56.51 93.3587 56.41 93.3987C56.31 93.4487 56.21 93.4887 56.1 93.5387C55.99 93.5887 55.86 93.6287 55.74 93.6787C55.61 93.7287 55.48 93.7787 55.34 93.8287C55.21 93.8787 55.05 93.9187 54.91 93.9687C54.75 94.0187 54.59 94.0687 54.41 94.1187C54.25 94.1687 54.08 94.2087 53.91 94.2587C53.72 94.3087 53.53 94.3587 53.33 94.4187C53.15 94.4687 52.94 94.5087 52.75 94.5587C52.53 94.6087 52.32 94.6587 52.09 94.7187C51.88 94.7687 51.65 94.8087 51.43 94.8587C51.19 94.9087 50.95 94.9587 50.69 95.0087C50.46 95.0587 50.2 95.0987 49.96 95.1387C49.69 95.1887 49.43 95.2387 49.14 95.2887C48.88 95.3287 48.6 95.3787 48.32 95.4187C48.03 95.4687 47.74 95.5087 47.44 95.5587C47.15 95.5987 46.84 95.6387 46.54 95.6787C46.22 95.7187 45.92 95.7587 45.59 95.7987C45.27 95.8387 44.93 95.8687 44.6 95.9087C44.26 95.9487 43.94 95.9887 43.59 96.0187C43.23 96.0587 42.85 96.0887 42.48 96.1187C42.14 96.1487 41.8 96.1787 41.45 96.2087C41.04 96.2387 40.62 96.2687 40.2 96.2987C39.85 96.3187 39.52 96.3487 39.16 96.3687C38.71 96.3987 38.24 96.4187 37.77 96.4387C37.42 96.4587 37.08 96.4787 36.72 96.4887C36.18 96.5087 35.62 96.5187 35.06 96.5387C34.75 96.5487 34.46 96.5587 34.15 96.5687C33.27 96.5887 32.36 96.5987 31.43 96.5987C30.5 96.5987 29.6 96.5887 28.71 96.5687C28.4 96.5587 28.1 96.5487 27.8 96.5387C27.24 96.5287 26.68 96.5087 26.14 96.4887C25.78 96.4787 25.44 96.4587 25.09 96.4387C24.63 96.4187 24.15 96.3987 23.7 96.3687C23.34 96.3487 23.01 96.3187 22.66 96.2987C22.24 96.2687 21.81 96.2487 21.41 96.2087C21.06 96.1787 20.72 96.1487 20.38 96.1187C20.01 96.0887 19.63 96.0587 19.27 96.0187C18.92 95.9887 18.6 95.9487 18.26 95.9087C17.93 95.8687 17.59 95.8387 17.27 95.7987C16.94 95.7587 16.63 95.7187 16.32 95.6787C16.02 95.6387 15.71 95.5987 15.42 95.5587C15.11 95.5187 14.83 95.4687 14.54 95.4187C14.27 95.3787 13.98 95.3387 13.72 95.2887C13.44 95.2387 13.17 95.1887 12.9 95.1387C12.65 95.0987 12.4 95.0487 12.17 95.0087C11.91 94.9587 11.67 94.9087 11.43 94.8587C11.21 94.8087 10.98 94.7687 10.77 94.7187C10.54 94.6687 10.33 94.6187 10.11 94.5587C9.91 94.5087 9.71 94.4687 9.53 94.4187C9.33 94.3687 9.14 94.3187 8.95 94.2587C8.78 94.2087 8.6 94.1687 8.45 94.1187C8.27 94.0687 8.12 94.0187 7.95 93.9687C7.8 93.9187 7.65 93.8787 7.52 93.8287C7.38 93.7787 7.25 93.7287 7.12 93.6787C7 93.6287 6.87 93.5887 6.76 93.5387C6.65 93.4887 6.55 93.4487 6.45 93.3987C6.35 93.3487 6.25 93.3087 6.16 93.2687C6.07 93.2287 6.01 93.1787 5.93 93.1387C5.87 93.0987 5.81 93.0687 5.76 93.0387V82.1387C5.8 82.1487 5.85 82.1687 5.89 82.1787C6.24 82.2987 6.59 82.4087 6.95 82.5187C6.99 82.5287 7.03 82.5387 7.08 82.5487C7.41 82.6387 7.74 82.7287 8.07 82.8187C8.21 82.8487 8.34 82.8887 8.48 82.9187C8.73 82.9787 8.98 83.0387 9.22 83.0987C9.36 83.1287 9.5 83.1587 9.63 83.1887C9.94 83.2587 10.25 83.3187 10.55 83.3787C10.6 83.3887 10.65 83.3987 10.7 83.4087C16.27 84.5287 23.64 85.1387 31.44 85.1387C39.24 85.1387 46.61 84.5287 52.18 83.4087C52.23 83.3987 52.28 83.3887 52.33 83.3787C52.64 83.3187 52.94 83.2487 53.25 83.1887C53.39 83.1587 53.53 83.1287 53.66 83.0987C53.91 83.0387 54.16 82.9787 54.4 82.9187C54.54 82.8887 54.67 82.8487 54.81 82.8187C55.14 82.7287 55.47 82.6487 55.8 82.5487C55.84 82.5387 55.88 82.5287 55.93 82.5187C56.29 82.4087 56.64 82.2987 56.99 82.1787C57.02 82.1587 57.06 82.1487 57.1 82.1387ZM11.78 58.2187C16.92 57.1887 24.07 56.5987 31.41 56.5987C38.75 56.5987 45.9 57.1887 51.04 58.2187C53.21 58.6487 54.67 59.0887 55.63 59.4587C55.4 59.5487 55.14 59.6387 54.84 59.7387C54.81 59.7487 54.79 59.7587 54.76 59.7587C54.66 59.7887 54.56 59.8187 54.45 59.8587C52.5 60.4387 49.64 61.0287 45.94 61.4887C45.72 61.5187 45.5 61.5387 45.28 61.5687C44.89 61.6187 44.5 61.6587 44.09 61.6987C43.49 61.7587 42.89 61.8187 42.28 61.8687C42.18 61.8787 42.08 61.8887 41.97 61.8987C38.64 62.1687 35.05 62.3187 31.4 62.3187C31.32 62.3187 31.25 62.3187 31.18 62.3187C27.65 62.3087 24.17 62.1687 20.94 61.9087C20.66 61.8887 20.38 61.8587 20.1 61.8387C19.68 61.7987 19.26 61.7587 18.85 61.7187C18.29 61.6587 17.74 61.5987 17.21 61.5387C17.16 61.5287 17.12 61.5287 17.07 61.5187C12.68 60.9787 9.47 60.2587 7.51 59.5887C7.39 59.5487 7.27 59.4987 7.16 59.4587C8.15 59.0887 9.6 58.6487 11.78 58.2187ZM57.1 127.289C55.11 128.609 46.14 130.819 31.41 130.819C16.68 130.819 7.71 128.609 5.72 127.289V116.389C5.76 116.399 5.8 116.419 5.84 116.429C6.19 116.549 6.55 116.659 6.91 116.769C6.94 116.779 6.98 116.789 7.01 116.799C7.34 116.899 7.68 116.989 8.02 117.079C8.16 117.109 8.29 117.149 8.43 117.179C8.68 117.239 8.93 117.299 9.18 117.359C9.32 117.389 9.46 117.419 9.59 117.449C9.9 117.519 10.21 117.579 10.51 117.639C10.56 117.649 10.61 117.659 10.66 117.669C16.24 118.789 23.6 119.399 31.4 119.399C39.2 119.399 46.57 118.789 52.14 117.669C52.2 117.659 52.26 117.639 52.33 117.629C52.62 117.569 52.92 117.509 53.21 117.439C53.35 117.409 53.49 117.379 53.64 117.339C53.88 117.279 54.13 117.229 54.37 117.169C54.51 117.139 54.65 117.099 54.78 117.069C55.12 116.979 55.45 116.889 55.78 116.799C55.82 116.789 55.86 116.779 55.89 116.769C56.25 116.659 56.61 116.549 56.96 116.429C57 116.419 57.04 116.399 57.09 116.389V127.289H57.1Z" fill="#00303E"/>
</svg>
