<svg width="70" height="70" viewBox="0 0 70 70" fill="none" xmlns="http://www.w3.org/2000/svg">
<circle cx="34.9507" cy="34.9507" r="34.9507" fill="#00638C"/>
<path d="M24.3843 29.1733C24.5085 25.8491 25.5959 23.286 27.6463 21.4841C29.6968 19.6822 32.4773 18.7812 35.9879 18.7812C38.3179 18.7812 40.3063 19.1851 41.9528 19.9929C43.6305 20.8006 44.8887 21.9035 45.7275 23.3015C46.5974 24.6996 47.0323 26.2685 47.0323 28.0082C47.0323 30.0587 46.5197 31.7363 45.4945 33.0412C44.4693 34.3149 43.2732 35.1848 41.9062 35.6508V35.8372C43.6771 36.4275 45.0751 37.4061 46.1003 38.7731C47.1255 40.14 47.6381 41.8953 47.6381 44.039C47.6381 45.9652 47.1877 47.6739 46.2867 49.1651C45.4168 50.6253 44.1275 51.7747 42.4188 52.6136C40.7412 53.4524 38.7374 53.8718 36.4073 53.8718C32.6792 53.8718 29.6968 52.9553 27.4599 51.1223C25.2541 49.2894 24.0891 46.5244 23.9648 42.8274H31.7006C31.7317 44.1943 32.12 45.2817 32.8656 46.0894C33.6112 46.8661 34.6986 47.2545 36.1277 47.2545C37.3393 47.2545 38.2713 46.9127 38.9238 46.2292C39.6072 45.5147 39.949 44.5827 39.949 43.4332C39.949 41.9419 39.4674 40.8701 38.5044 40.2177C37.5723 39.5342 36.0656 39.1925 33.9841 39.1925H32.4928V32.7149H33.9841C35.5685 32.7149 36.8422 32.4509 37.8053 31.9227C38.7995 31.3635 39.2966 30.3849 39.2966 28.9869C39.2966 27.8684 38.9859 26.9986 38.3645 26.3772C37.7432 25.7559 36.8889 25.4452 35.8015 25.4452C34.6209 25.4452 33.7355 25.8025 33.1452 26.517C32.586 27.2316 32.2598 28.117 32.1666 29.1733H24.3843Z" fill="white"/>
</svg>
