<svg width="70" height="70" viewBox="0 0 70 70" fill="none" xmlns="http://www.w3.org/2000/svg">
<circle cx="34.9507" cy="34.9507" r="34.9507" fill="#00638C"/>
<path d="M23.4575 47.2062C24.5137 46.3674 24.9953 45.979 24.9021 46.0412C27.9467 43.5247 30.3389 41.4587 32.0786 39.8432C33.8495 38.2277 35.3407 36.5345 36.5523 34.7637C37.764 32.9929 38.3698 31.2686 38.3698 29.591C38.3698 28.3172 38.0746 27.3231 37.4844 26.6085C36.8941 25.894 36.0087 25.5367 34.8281 25.5367C33.6475 25.5367 32.7155 25.9872 32.032 26.8881C31.3796 27.758 31.0534 29.0007 31.0534 30.6162H23.3643C23.4264 27.9755 23.9856 25.7697 25.0419 23.9989C26.1292 22.228 27.5428 20.9232 29.2826 20.0844C31.0534 19.2456 33.0107 18.8262 35.1543 18.8262C38.8513 18.8262 41.6318 19.7737 43.4959 21.6688C45.391 23.5639 46.3385 26.0338 46.3385 29.0784C46.3385 32.4026 45.2046 35.4938 42.9367 38.352C40.6688 41.1791 37.7795 43.9441 34.2689 46.647H46.8512V53.1245H23.4575V47.2062Z" fill="white"/>
</svg>
