<svg width="118" height="32" viewBox="0 0 118 32" fill="none" xmlns="http://www.w3.org/2000/svg">
<path fill-rule="evenodd" clip-rule="evenodd" d="M14.177 0H4.98799C4.3591 0 3.82431 0.461531 3.72608 1.08882L0.00961261 24.8908C-0.0641522 25.3606 0.296016 25.7838 0.767584 25.7838H5.15433C5.78322 25.7838 6.31801 25.3226 6.41624 24.6942L7.41846 18.2742C7.51519 17.6458 8.05111 17.1842 8.67886 17.1842H11.5877C17.6405 17.1842 21.1338 14.2254 22.0465 8.36231C22.4575 5.79689 22.0638 3.78159 20.8745 2.37C19.5686 0.820035 17.2521 0 14.177 0ZM15.2365 8.69342C14.7341 12.0241 12.2148 12.0241 9.77908 12.0241H8.39222L9.36509 5.80372C9.42305 5.42772 9.74521 5.15096 10.1216 5.15096H10.7572C12.4165 5.15096 13.9818 5.15096 14.7906 6.10633C15.2731 6.67621 15.4206 7.52324 15.2365 8.69342Z" fill="#28356A"/>
<path fill-rule="evenodd" clip-rule="evenodd" d="M41.8789 8.40647H37.4786C37.1037 8.40647 36.7797 8.68324 36.7221 9.05923L36.5271 10.3024L36.2197 9.85189C35.2671 8.45514 33.1426 7.98828 31.0226 7.98828C26.1598 7.98828 22.0068 11.7087 21.198 16.9273C20.7776 19.5304 21.3752 22.0197 22.8374 23.7556C24.1783 25.3516 26.0969 26.0169 28.3795 26.0169C32.2977 26.0169 34.47 23.472 34.47 23.472L34.2739 24.7072C34.2002 25.1794 34.5603 25.6029 35.0293 25.6029H38.9926C39.623 25.6029 40.1552 25.1414 40.2545 24.5129L42.6327 9.2995C42.708 8.83113 42.3489 8.40647 41.8789 8.40647ZM35.7451 17.0577C35.3205 19.5969 33.3255 21.3016 30.7806 21.3016C29.5029 21.3016 28.4819 20.8876 27.8259 20.1033C27.1756 19.3243 26.9287 18.2154 27.1353 16.9802C27.532 14.4627 29.5605 12.7021 32.0666 12.7021C33.3161 12.7021 34.3319 13.1218 35.001 13.9126C35.6713 14.7121 35.9374 15.8279 35.7451 17.0577Z" fill="#28356A"/>
<path fill-rule="evenodd" clip-rule="evenodd" d="M64.976 8.78711H60.5538C60.1319 8.78711 59.7356 8.99887 59.4967 9.35319L53.3979 18.4276L50.8127 9.70713C50.6501 9.16158 50.1519 8.78711 49.5873 8.78711H45.2423C44.714 8.78711 44.3474 9.30833 44.5152 9.81054L49.386 24.2488L44.8069 30.7787C44.4467 31.293 44.8095 32.0001 45.4317 32.0001H49.8481C50.2674 32.0001 50.6595 31.7937 50.8974 31.4466L65.6045 10.0018C65.9567 9.48891 65.5951 8.78711 64.976 8.78711Z" fill="#28356A"/>
<path fill-rule="evenodd" clip-rule="evenodd" d="M79.7171 0H70.527C69.8996 0 69.3648 0.461531 69.2666 1.08882L65.5501 24.8908C65.4764 25.3606 65.8365 25.7838 66.3055 25.7838H71.0215C71.4592 25.7838 71.8341 25.461 71.9026 25.0212L72.9575 18.2742C73.0542 17.6458 73.5905 17.1842 74.2179 17.1842H77.1256C83.1796 17.1842 86.6717 14.2254 87.5855 8.36231C87.998 5.79689 87.6017 3.78159 86.4124 2.37C85.1076 0.820035 82.7927 0 79.7171 0ZM80.7775 8.69342C80.2762 12.0241 77.7569 12.0241 75.3196 12.0241H73.9346L74.9086 5.80372C74.9662 5.42772 75.2861 5.15096 75.6636 5.15096H76.2993C77.9571 5.15096 79.5238 5.15096 80.3326 6.10633C80.8151 6.67621 80.9615 7.52324 80.7775 8.69342Z" fill="#298FC2"/>
<path fill-rule="evenodd" clip-rule="evenodd" d="M107.413 8.40647H103.015C102.638 8.40647 102.317 8.68324 102.26 9.05923L102.065 10.3024L101.756 9.85189C100.804 8.45514 98.6809 7.98828 96.5605 7.98828C91.6981 7.98828 87.5465 11.7087 86.7378 16.9273C86.3185 19.5304 86.9135 22.0197 88.3753 23.7556C89.7192 25.3516 91.6348 26.0169 93.9178 26.0169C97.8356 26.0169 100.008 23.472 100.008 23.472L99.8122 24.7072C99.7384 25.1794 100.098 25.6029 100.57 25.6029H104.532C105.16 25.6029 105.695 25.1414 105.793 24.5129L108.172 9.2995C108.245 8.83113 107.885 8.40647 107.413 8.40647ZM101.279 17.0577C100.857 19.5969 98.8594 21.3016 96.3145 21.3016C95.0395 21.3016 94.0158 20.8876 93.3598 20.1033C92.7098 19.3243 92.4652 18.2154 92.6692 16.9802C93.0685 14.4627 95.0944 12.7021 97.6005 12.7021C98.85 12.7021 99.8658 13.1218 100.535 13.9126C101.208 14.7121 101.474 15.8279 101.279 17.0577Z" fill="#298FC2"/>
<path fill-rule="evenodd" clip-rule="evenodd" d="M112.234 0.65428L108.463 24.8919C108.389 25.3618 108.749 25.7849 109.218 25.7849H113.009C113.64 25.7849 114.174 25.3238 114.271 24.6953L117.99 0.89455C118.064 0.424654 117.704 0 117.235 0H112.99C112.615 0.00114052 112.292 0.278287 112.234 0.65428Z" fill="#298FC2"/>
</svg>
