<svg width="115" height="138" viewBox="0 0 115 138" fill="none" xmlns="http://www.w3.org/2000/svg">
<path d="M14.2695 8.55961C14.2695 7.04961 14.8695 5.58961 15.9395 4.51961C17.0095 3.44961 18.4595 2.84961 19.9795 2.84961H94.1995C95.7095 2.84961 97.1695 3.44961 98.2395 4.51961C99.3095 5.58961 99.9095 7.03961 99.9095 8.55961V25.6896C99.9095 27.1996 99.3095 28.6596 98.2395 29.7296C97.1695 30.7996 95.7195 31.3996 94.1995 31.3996H19.9795C18.4695 31.3996 17.0095 30.7996 15.9395 29.7296C14.8695 28.6596 14.2695 27.2096 14.2695 25.6896V8.55961Z" fill="white"/>
<path d="M111.33 71.3704H2.84961C2.84961 56.0104 16.3196 47.3904 22.5496 44.2504C23.4896 43.7604 24.2896 43.0304 24.8396 42.1204C25.3896 41.2104 25.6896 40.1704 25.6896 39.1104V31.4004H88.4896V39.1104C88.4896 40.1704 88.7896 41.2104 89.3396 42.1204C89.8896 43.0304 90.6896 43.7604 91.6296 44.2504C97.8596 47.3904 111.33 56.0104 111.33 71.3704Z" fill="white"/>
<path d="M2.84961 105.621H111.33V117.041C111.31 121.581 109.5 125.921 106.29 129.131C103.08 132.341 98.7396 134.151 94.1996 134.171H19.9796C15.4396 134.151 11.0996 132.341 7.88961 129.131C4.67961 125.921 2.86961 121.581 2.84961 117.041V105.621Z" fill="white"/>
<path d="M2.84961 71.3711H111.33V105.631H2.84961V71.3711Z" fill="#9FEAFF"/>
<path d="M85.6402 91.3504H28.5502C26.9702 91.3504 25.7002 90.0704 25.7002 88.5004C25.7002 86.9304 26.9802 85.6504 28.5502 85.6504H85.6402C87.2202 85.6504 88.4902 86.9304 88.4902 88.5004C88.4902 90.0704 87.2102 91.3504 85.6402 91.3504Z" fill="#00303E"/>
<path d="M22.5496 44.2504C17.6196 46.7304 13.2096 50.1204 9.55957 54.2404H104.63C100.97 50.1204 96.5596 46.7304 91.6396 44.2504C90.6996 43.7604 89.8996 43.0304 89.3496 42.1204C88.7996 41.2104 88.4996 40.1704 88.4996 39.1104V31.4004H25.6996V39.1104C25.6996 40.1704 25.3996 41.2104 24.8496 42.1204C24.2896 43.0204 23.4896 43.7604 22.5496 44.2504Z" fill="#DFF9FF"/>
<path d="M92.94 41.71C92.46 41.46 92.06 41.09 91.78 40.63C91.5 40.17 91.35 39.64 91.35 39.11V34.26H94.21C96.5 34.26 98.65 33.37 100.27 31.75C101.89 30.13 102.78 27.98 102.78 25.7V8.56C102.78 6.27 101.89 4.12 100.27 2.5C98.64 0.89 96.49 0 94.2 0H19.98C17.69 0 15.54 0.89 13.92 2.51C12.3 4.13 11.41 6.28 11.41 8.56V25.69C11.41 27.98 12.3 30.13 13.92 31.75C15.54 33.37 17.69 34.26 19.98 34.26H22.83V39.11C22.83 39.65 22.68 40.17 22.4 40.63C22.12 41.09 21.72 41.46 21.26 41.7C14.87 44.92 0 54.27 0 71.37V105.63V117.06C0.03 122.38 2.11 127.39 5.88 131.15C9.64 134.91 14.65 137 19.98 137.03H94.21C99.53 137 104.54 134.92 108.3 131.15C112.06 127.38 114.15 122.38 114.18 117.04V105.62V71.37C114.18 54.28 99.31 44.92 92.94 41.71ZM5.71 74.22H108.48V102.77H5.71V74.22ZM85.64 5.71H94.2C94.96 5.71 95.68 6.01 96.22 6.54C96.76 7.08 97.06 7.8 97.06 8.56V25.69C97.06 26.45 96.76 27.17 96.23 27.71C95.69 28.25 94.97 28.55 94.21 28.55H88.5H85.65V5.71H85.64ZM68.51 5.71H79.93V28.55H68.51V5.71ZM51.38 5.71H62.8V28.55H51.38V5.71ZM34.26 5.71H45.68V28.55H34.26V5.71ZM19.98 28.55C19.22 28.55 18.5 28.25 17.96 27.72C17.42 27.18 17.12 26.46 17.12 25.7V8.56C17.12 7.8 17.42 7.08 17.96 6.54C18.5 6 19.22 5.7 19.98 5.7H28.54V28.54H25.68H19.98V28.55ZM23.86 46.79C25.27 46.06 26.45 44.96 27.28 43.61C28.11 42.26 28.55 40.7 28.55 39.11V34.26H85.64V39.12C85.64 40.71 86.08 42.26 86.91 43.61C87.74 44.96 88.92 46.06 90.35 46.8C95.42 49.36 106.73 56.36 108.3 68.52H5.89C7.46 56.36 18.77 49.35 23.86 46.79ZM108.48 117.03C108.46 120.84 106.97 124.42 104.27 127.11C101.58 129.8 98 131.3 94.2 131.32H20C16.19 131.3 12.61 129.81 9.92 127.11C7.23 124.42 5.73 120.84 5.71 117.04V108.48H108.48V117.03Z" fill="#00303E"/>
</svg>
