<svg width="174" height="209" viewBox="0 0 174 209" fill="none" xmlns="http://www.w3.org/2000/svg">
<path d="M22.1992 13.0353C22.1992 10.7358 23.1086 8.51243 24.7302 6.88299C26.3518 5.25355 28.5494 4.33984 30.853 4.33984H143.338C145.626 4.33984 147.839 5.25355 149.46 6.88299C151.082 8.51243 151.991 10.7206 151.991 13.0353V39.1216C151.991 41.4211 151.082 43.6444 149.46 45.2739C147.839 46.9033 145.641 47.817 143.338 47.817H30.853C28.5646 47.817 26.3518 46.9033 24.7302 45.2739C23.1086 43.6444 22.1992 41.4363 22.1992 39.1216V13.0353Z" fill="white"/>
<path d="M169.3 108.685H4.89258C4.89258 85.2945 25.3071 72.1676 34.749 67.3859C36.1737 66.6397 37.3861 65.528 38.2197 64.1423C39.0532 62.7565 39.5079 61.1727 39.5079 59.5585V47.8174H134.685V59.5585C134.685 61.1727 135.139 62.7565 135.973 64.1423C136.807 65.528 138.019 66.6397 139.444 67.3859C148.886 72.1676 169.3 85.2945 169.3 108.685Z" fill="white"/>
<path d="M4.89258 160.843H169.3V178.234C169.27 185.147 166.527 191.756 161.662 196.645C156.797 201.533 150.219 204.289 143.339 204.32H30.8541C23.9734 204.289 17.3959 201.533 12.531 196.645C7.66605 191.756 4.92289 185.147 4.89258 178.234V160.843Z" fill="white"/>
<path d="M4.89258 108.686H169.3V160.858H4.89258V108.686Z" fill="#9FEAFF"/>
<path d="M34.7486 67.3859C27.2769 71.1626 20.5933 76.325 15.0615 82.5991H159.145C153.599 76.325 146.915 71.1626 139.458 67.3859C138.034 66.6397 136.821 65.528 135.988 64.1423C135.154 62.7565 134.7 61.1727 134.7 59.5585V47.8174H39.5226V59.5585C39.5226 61.1727 39.0679 62.7565 38.2344 64.1423C37.3857 65.5128 36.1732 66.6397 34.7486 67.3859Z" fill="#DFF9FF"/>
<path d="M130.365 139.113H43.8418C41.4472 139.113 39.5225 137.164 39.5225 134.773C39.5225 132.382 41.4624 130.433 43.8418 130.433H130.365C132.759 130.433 134.684 132.382 134.684 134.773C134.684 137.164 132.744 139.113 130.365 139.113Z" fill="#00638C"/>
<path d="M141.429 63.5178C140.702 63.1371 140.095 62.5736 139.671 61.8731C139.247 61.1726 139.019 60.3655 139.019 59.5584V52.1726H143.354C146.824 52.1726 150.083 50.8173 152.538 48.3503C154.993 45.8832 156.342 42.6091 156.342 39.1371V13.0355C156.342 9.54822 154.993 6.27411 152.538 3.80711C150.068 1.35533 146.809 0 143.339 0H30.8541C27.3834 0 24.125 1.35533 21.6698 3.82234C19.2146 6.28934 17.8657 9.56345 17.8657 13.0355V39.1218C17.8657 42.6091 19.2146 45.8832 21.6698 48.3503C24.125 50.8173 27.3834 52.1726 30.8541 52.1726H35.1734V59.5584C35.1734 60.3807 34.9461 61.1726 34.5217 61.8731C34.0973 62.5736 33.4911 63.1371 32.794 63.5025C23.1096 68.4061 0.573242 82.6447 0.573242 108.685V160.858V178.264C0.618709 186.365 3.77107 193.995 9.48471 199.721C15.1832 205.447 22.7761 208.629 30.8541 208.675H143.354C151.417 208.629 159.01 205.462 164.708 199.721C170.406 193.98 173.574 186.365 173.619 178.234V160.843V108.685C173.619 82.6599 151.083 68.4061 141.429 63.5178ZM9.22707 113.025H164.981V156.503H9.22707V113.025ZM130.365 8.69543H143.339C144.49 8.69543 145.582 9.15228 146.4 9.95939C147.218 10.7817 147.673 11.8782 147.673 13.0355V39.1218C147.673 40.2792 147.218 41.3756 146.415 42.198C145.597 43.0203 144.506 43.4772 143.354 43.4772H134.7H130.381V8.69543H130.365ZM104.404 8.69543H121.712V43.4772H104.404V8.69543ZM78.4425 8.69543H95.7502V43.4772H78.4425V8.69543ZM52.4962 8.69543H69.8039V43.4772H52.4962V8.69543ZM30.8541 43.4772C29.7022 43.4772 28.611 43.0203 27.7926 42.2132C26.9742 41.3909 26.5196 40.2944 26.5196 39.1371V13.0355C26.5196 11.8782 26.9742 10.7817 27.7926 9.95939C28.611 9.13706 29.7022 8.6802 30.8541 8.6802H43.8272V43.4619H39.4927H30.8541V43.4772ZM36.7344 71.2538C38.8714 70.1421 40.6597 68.467 41.9176 66.4112C43.1755 64.3553 43.8424 61.9797 43.8424 59.5584V52.1726H130.365V59.5736C130.365 61.9949 131.032 64.3553 132.29 66.4112C133.548 68.467 135.337 70.1421 137.504 71.269C145.188 75.1675 162.329 85.8274 164.708 104.345H9.49987C11.8793 85.8274 29.0202 75.1523 36.7344 71.2538ZM164.981 178.218C164.95 184.02 162.692 189.472 158.6 193.569C154.523 197.665 149.098 199.949 143.339 199.98H30.8844C25.1101 199.949 19.6844 197.68 15.6076 193.569C11.5307 189.472 9.25738 184.02 9.22707 178.234V165.198H164.981V178.218Z" fill="#00638C"/>
</svg>
