<svg width="184" height="48" viewBox="0 0 184 48" fill="none" xmlns="http://www.w3.org/2000/svg">
<path d="M182.183 8.01188C180.965 6.49247 179.126 5.73277 176.643 5.73277C174.16 5.73277 172.321 6.49247 171.103 8.01188C169.884 9.53129 169.287 11.35 169.287 13.4219C169.287 15.5399 169.884 17.3585 171.103 18.8549C172.321 20.3513 174.16 21.111 176.643 21.111C179.126 21.111 180.965 20.3513 182.183 18.8549C183.401 17.3585 183.999 15.5399 183.999 13.4219C184.022 11.3269 183.401 9.53129 182.183 8.01188ZM179.172 16.76C178.574 17.5427 177.746 17.9341 176.643 17.9341C175.539 17.9341 174.689 17.5427 174.091 16.76C173.493 15.9773 173.195 14.8492 173.195 13.4219C173.195 11.9715 173.493 10.8665 174.091 10.0838C174.689 9.30107 175.539 8.90971 176.643 8.90971C177.746 8.90971 178.597 9.30107 179.172 10.0838C179.769 10.8665 180.068 11.9715 180.068 13.4219C180.068 14.8722 179.769 15.9773 179.172 16.76Z" fill="#141685"/>
<path d="M151.103 6.72268C149.861 6.10111 148.459 5.77881 146.873 5.77881C144.436 5.77881 142.712 6.42341 141.7 7.68958C141.08 8.49533 140.712 9.55431 140.643 10.8205H144.298C144.39 10.268 144.574 9.83056 144.827 9.48524C145.195 9.04784 145.838 8.81762 146.758 8.81762C147.562 8.81762 148.183 8.93273 148.597 9.16294C149.011 9.39316 149.218 9.80754 149.218 10.3831C149.218 10.8665 148.942 11.2349 148.413 11.4651C148.114 11.6032 147.608 11.7183 146.896 11.7874L145.608 11.9485C144.137 12.1327 143.034 12.455 142.275 12.8694C140.896 13.6751 140.206 14.9643 140.206 16.737C140.206 18.1182 140.643 19.1772 141.494 19.9139C142.344 20.6506 143.448 20.9729 144.758 21.0419C153.011 21.4103 152.919 16.6909 152.988 15.701V10.291C152.965 8.54137 152.344 7.36728 151.103 6.72268ZM149.195 14.9873C149.172 16.2535 148.804 17.1283 148.114 17.6118C147.425 18.0952 146.666 18.3254 145.838 18.3254C145.31 18.3254 144.873 18.1873 144.505 17.888C144.137 17.6118 143.953 17.1283 143.953 16.4837C143.953 15.747 144.252 15.2176 144.85 14.8722C145.195 14.665 145.792 14.5039 146.597 14.3658L147.448 14.2046C147.884 14.1125 148.206 14.0435 148.459 13.9514C148.712 13.8593 148.942 13.7442 149.195 13.583V14.9873Z" fill="#141685"/>
<path d="M132.298 9.02482C133.241 9.02482 133.93 9.32409 134.39 9.89963C134.689 10.337 134.896 10.8205 134.965 11.35H139.034C138.804 9.30107 138.091 7.85073 136.873 7.04498C135.654 6.23924 134.091 5.82485 132.183 5.82485C129.93 5.82485 128.183 6.51549 126.919 7.89677C125.654 9.27805 125.011 11.1888 125.011 13.6751C125.011 15.8622 125.586 17.6578 126.735 19.0391C127.884 20.4204 129.677 21.111 132.137 21.111C134.574 21.111 136.436 20.2822 137.677 18.6247C138.459 17.6118 138.896 16.5067 138.988 15.3787H134.942C134.85 16.1384 134.62 16.76 134.229 17.2434C133.838 17.7269 133.172 17.9571 132.252 17.9571C130.942 17.9571 130.045 17.3585 129.563 16.1614C129.31 15.5168 129.172 14.665 129.172 13.6061C129.172 12.501 129.31 11.6032 129.563 10.9356C130.045 9.66941 130.965 9.02482 132.298 9.02482Z" fill="#141685"/>
<path d="M123.907 5.84787C115.54 5.84787 116.045 13.2607 116.045 13.2607V20.7887H119.838V13.7212C119.838 12.5701 119.976 11.7183 120.275 11.1428C120.804 10.1529 121.815 9.66941 123.333 9.66941C123.448 9.66941 123.609 9.66941 123.792 9.69243C123.976 9.69243 124.183 9.71546 124.436 9.73848V5.87089C124.275 5.87089 124.16 5.84787 124.114 5.84787C124.045 5.84787 123.976 5.84787 123.907 5.84787Z" fill="#141685"/>
<path d="M109.976 16.8521C109.815 17.0823 109.655 17.2665 109.448 17.4276C108.919 17.865 108.183 18.0031 107.333 18.0031C106.528 18.0031 105.884 17.888 105.31 17.5197C104.367 16.9442 103.838 15.9542 103.77 14.5039H114.275C114.298 13.2607 114.252 12.2938 114.16 11.6492C113.976 10.5212 113.609 9.53129 113.011 8.65647C112.367 7.68958 111.517 6.97592 110.528 6.51549C109.517 6.07809 108.39 5.84787 107.149 5.84787C105.034 5.84787 103.31 6.51549 101.999 7.85073C100.666 9.18597 100.022 11.0967 100.022 13.6061C100.022 16.2765 100.758 18.2103 102.229 19.3844C103.701 20.5585 105.379 21.1571 107.31 21.1571C109.632 21.1571 111.448 20.4664 112.735 19.0621C113.425 18.3254 113.861 17.5888 114.045 16.8751L109.976 16.8521ZM104.873 9.7615C105.402 9.20899 106.16 8.93273 107.126 8.93273C108.022 8.93273 108.758 9.18597 109.356 9.71546C109.953 10.2219 110.298 11.0047 110.367 11.9946H103.884C104.022 11.0737 104.344 10.314 104.873 9.7615Z" fill="#141685"/>
<path d="M98.4592 20.7657H94.9879V12.0176C94.9879 11.2119 94.7351 9.3241 92.4362 9.3241C90.919 9.3241 89.8155 10.4291 89.8155 12.0176V20.7657H86.3443V12.0176C86.3443 11.2119 86.1144 9.3241 83.8156 9.3241C82.2753 9.3241 81.1949 10.4291 81.1949 12.0176V20.7657H77.7236V12.1327C77.7236 8.51836 80.1144 5.80184 83.8156 5.80184C85.6546 5.80184 87.1489 6.58457 88.1144 7.8047C89.1489 6.56154 90.6661 5.80184 92.4132 5.80184C96.2063 5.80184 98.4362 8.42627 98.4362 12.1327L98.4592 20.7657Z" fill="#141685"/>
<path d="M168.16 1.26663C168.16 1.26663 164.344 0.852246 164.344 3.9371V8.01188C163.93 7.32124 163.379 6.79175 162.689 6.42341C162.022 6.03204 161.241 5.84787 160.367 5.84787C158.482 5.84787 156.965 6.56153 155.838 7.96583C154.712 9.37014 154.137 11.419 154.137 13.8823C154.137 16.0233 154.712 17.7729 155.861 19.1312C157.011 20.4894 159.264 21.088 161.264 21.088C168.252 21.088 168.16 15.0794 168.16 15.0794V1.26663ZM163.608 16.783C163.057 17.5887 162.252 17.9801 161.172 17.9801C160.114 17.9801 159.31 17.5887 158.781 16.783C158.252 15.9773 157.999 14.8262 157.999 13.491C157.999 12.2478 158.252 11.2118 158.781 10.3831C159.287 9.55431 160.114 9.13992 161.195 9.13992C161.907 9.13992 162.551 9.37014 163.103 9.83056C163.999 10.5903 164.436 11.9485 164.436 13.7212C164.436 14.9643 164.16 16.0003 163.608 16.783Z" fill="#141685"/>
<path d="M105.448 44.8921C105.448 45.3985 105.264 45.8359 104.896 46.2043C104.528 46.5726 104.069 46.7568 103.563 46.7568H101.678V33.5656C101.678 31.0102 102.551 29.3987 103.954 28.2937C104.896 27.58 106.298 26.8894 108.919 26.8894C110.689 26.8894 112.758 27.58 113.885 28.9383C115.149 30.4807 115.655 32.1843 115.655 34.4404C115.655 36.7655 115.103 38.6303 113.977 40.0576C112.873 41.4619 111.425 42.1525 109.678 42.1525C108.758 42.1525 107.931 41.9914 107.218 41.6691C106.482 41.3007 105.885 40.7252 105.425 39.9655L105.448 44.8921ZM111.793 34.6015C111.793 33.1742 111.517 32.0692 110.965 31.2864C110.413 30.5267 109.609 30.1354 108.574 30.1354C107.563 30.1354 106.781 30.5267 106.229 31.2864C105.701 31.9771 105.448 33.0821 105.448 34.6015C105.448 36.0058 105.724 37.0418 106.275 37.7324C106.827 38.5151 107.632 38.8835 108.666 38.8835C109.632 38.8835 110.39 38.4921 110.942 37.7324C111.517 36.9727 111.793 35.9368 111.793 34.6015Z" fill="#05B0D9"/>
<path d="M140.781 40.9324V39.9885C140.114 41.0245 139.241 41.646 138.114 41.9223C137.011 42.1755 135.885 42.0835 134.804 41.646C133.701 41.2086 132.758 40.3799 131.976 39.2058C131.195 38.0087 130.804 36.4432 130.804 34.4864C130.804 32.2073 131.333 30.3656 132.367 28.9613C133.402 27.557 135.08 26.9124 137.379 26.8433C139.655 26.7743 140.965 27.3038 142.252 28.2707C143.655 29.3527 144.505 30.9872 144.505 33.5656V41.3237C144.505 43.787 142.781 48.3683 137.379 47.9769C134.022 47.7237 132.183 46.3654 131.126 43.2345H135.126C135.425 43.741 135.862 44.1324 136.459 44.4086C137.057 44.6849 137.655 44.7539 138.252 44.6388C138.85 44.5007 139.402 44.1554 139.907 43.5568C140.413 43.0043 140.712 42.1065 140.781 40.9324ZM134.528 34.6015C134.528 37.1339 135.264 38.5382 136.712 38.8144C138.16 39.0907 139.241 38.7454 139.953 37.8015C140.275 37.4101 140.528 36.7655 140.666 35.9137C140.804 35.0619 140.827 34.1871 140.689 33.3584C140.574 32.5066 140.252 31.7699 139.793 31.1023C139.31 30.4347 138.62 30.1124 137.701 30.1124C136.459 30.1124 135.632 30.5728 135.172 31.4936C134.758 32.3915 134.528 33.4274 134.528 34.6015Z" fill="#05B0D9"/>
<path d="M127.563 27.9023C126.321 27.2807 124.919 26.9584 123.333 26.9584C120.896 26.9584 119.172 27.603 118.16 28.8692C117.54 29.675 117.172 30.7339 117.103 32.0001H120.758C120.85 31.4476 121.034 30.9872 121.287 30.6649C121.655 30.2275 122.298 29.9973 123.195 29.9973C124 29.9973 124.62 30.1124 125.034 30.3426C125.448 30.5728 125.655 30.9872 125.655 31.5627C125.655 32.0462 125.379 32.4145 124.85 32.6447C124.551 32.7828 124.045 32.8979 123.333 32.967L122.045 33.1282C120.574 33.3123 119.471 33.6346 118.712 34.049C117.333 34.8548 116.643 36.1439 116.643 37.9166C116.643 39.2979 117.08 40.3569 117.931 41.0935C118.781 41.8302 119.885 42.1525 121.195 42.2216C129.448 42.5899 129.356 37.8705 129.425 36.8806V31.4476C129.425 29.698 128.804 28.5239 127.563 27.9023ZM125.655 36.144C125.632 37.4101 125.264 38.2849 124.574 38.7684C123.885 39.2518 123.126 39.482 122.298 39.482C121.77 39.482 121.333 39.3439 120.965 39.0446C120.597 38.7684 120.413 38.2849 120.413 37.6403C120.413 36.9267 120.712 36.3742 121.31 36.0288C121.655 35.8217 122.229 35.6605 123.057 35.5224L123.908 35.3612C124.344 35.2691 124.666 35.2001 124.919 35.108C125.172 35.0159 125.402 34.9008 125.655 34.7396V36.144Z" fill="#05B0D9"/>
<path d="M158.85 29.0994C157.632 27.58 155.792 26.8203 153.31 26.8203C150.827 26.8203 148.988 27.58 147.77 29.0994C146.551 30.6188 145.953 32.4145 145.953 34.5094C145.953 36.6274 146.551 38.4461 147.77 39.9425C148.988 41.4389 150.827 42.1986 153.31 42.1986C155.792 42.1986 157.632 41.4389 158.85 39.9425C160.068 38.4461 160.666 36.6274 160.666 34.5094C160.666 32.4145 160.068 30.6188 158.85 29.0994ZM155.838 37.8475C155.241 38.6303 154.413 39.0216 153.31 39.0216C152.206 39.0216 151.356 38.6303 150.758 37.8475C150.16 37.0648 149.861 35.9598 149.861 34.5094C149.861 33.0591 150.16 31.9541 150.758 31.1713C151.356 30.3886 152.206 29.9973 153.31 29.9973C154.413 29.9973 155.264 30.3886 155.838 31.1713C156.436 31.9541 156.735 33.0591 156.735 34.5094C156.712 35.9368 156.436 37.0648 155.838 37.8475Z" fill="#05B0D9"/>
<path d="M67.3791 22.0775C67.3791 9.92219 52.2987 0 33.701 0C15.0804 0 0 9.92219 0 22.0775C0 22.3998 0 23.2515 0 23.3666C0 36.2586 13.1954 46.7103 33.701 46.7103C54.3447 46.7103 67.4021 36.2586 67.4021 23.3666C67.3791 22.9062 67.3791 22.653 67.3791 22.0775Z" fill="#141685"/>
<path d="M66.0919 22.0547C66.0919 33.5193 51.5862 42.82 33.7012 42.82C15.8162 42.82 1.31055 33.5193 1.31055 22.0547C1.31055 10.5901 15.8162 1.3125 33.7012 1.3125C51.5862 1.3125 66.0919 10.5901 66.0919 22.0547Z" fill="#05B0D9"/>
<path d="M22.9423 15.5169C22.9193 15.54 22.5974 15.8853 22.8043 16.1615C23.3101 16.8061 24.8963 17.1975 26.4825 16.8292C27.425 16.622 28.6434 15.6551 29.8388 14.7112C31.1261 13.6983 32.3905 12.6853 33.6549 12.2709C35.0112 11.8335 35.8618 12.0177 36.4365 12.2019C37.0572 12.386 37.7928 12.8004 38.9882 13.6983C41.1951 15.3558 50.1146 23.16 51.6548 24.4953C52.8962 23.9427 58.4134 21.5485 65.9076 19.914C65.264 15.9083 62.8272 12.2479 59.149 9.25514C54.0226 11.4191 47.7468 12.5472 41.6089 9.53139C41.5859 9.50837 38.2526 7.94292 34.9882 8.01199C30.1146 8.12709 27.9997 10.2451 25.7698 12.4781L22.9423 15.5169Z" fill="white"/>
<path d="M51.31 25.324C51.195 25.2319 40.8273 16.1385 38.4824 14.3659C37.1261 13.3529 36.3675 13.0767 35.5629 12.9846C35.1491 12.9385 34.5744 13.0076 34.1836 13.1227C33.0802 13.422 31.6549 14.3889 30.3905 15.3788C29.0802 16.4378 27.8388 17.4047 26.6894 17.6809C25.2181 18.0032 23.425 17.6119 22.5974 17.0594C22.2756 16.8291 22.0227 16.5759 21.9308 16.3227C21.6319 15.632 22.1836 15.0565 22.2756 14.9644L25.1492 11.8565C25.471 11.5342 25.8158 11.1889 26.1606 10.8666C25.2411 10.9817 24.3905 11.2119 23.54 11.4652C22.5055 11.7644 21.494 12.0407 20.5055 12.0407C20.0917 12.0407 17.8158 11.6724 17.4021 11.5573C14.8044 10.8206 12.5285 10.1299 9.12622 8.54146C5.05727 11.5803 2.34463 15.3788 1.54004 19.5457C2.11475 19.7068 3.05728 19.9831 3.47107 20.0751C12.6894 22.124 15.563 24.242 16.0687 24.6794C16.6434 24.0578 17.448 23.6434 18.3446 23.6434C19.3561 23.6434 20.2756 24.1499 20.8503 24.9557C21.3791 24.5413 22.1147 24.1729 23.0572 24.1729C23.494 24.1729 23.9308 24.242 24.3675 24.4032C25.402 24.7715 25.9538 25.4621 26.2296 26.0837C26.5744 25.9226 27.0112 25.8075 27.517 25.8075C28.0227 25.8075 28.5285 25.9226 29.0572 26.1528C30.7583 26.8895 31.0112 28.547 30.8733 29.8132C30.9882 29.7901 31.1261 29.7901 31.2411 29.7901C33.2641 29.7901 34.8962 31.4247 34.8962 33.4505C34.8962 34.0721 34.7353 34.6707 34.4595 35.1771C35.0112 35.4764 36.4135 36.1901 37.6319 36.0289C38.6204 35.9138 38.9882 35.5685 39.1261 35.3843C39.2181 35.2462 39.31 35.1081 39.2181 34.993L36.6204 32.0923C36.6204 32.0923 36.1836 31.6779 36.3445 31.5398C36.4825 31.3786 36.7583 31.6088 36.9422 31.77C38.2755 32.875 39.8847 34.5556 39.8847 34.5556C39.9077 34.5786 40.0227 34.7858 40.6204 34.9009C41.1261 34.993 42.0457 34.9469 42.6663 34.4174C42.8273 34.2793 42.9882 34.1182 43.1261 33.957L43.1031 33.98C43.7698 33.1282 43.0342 32.2764 43.0342 32.2764L39.9997 28.8693C39.9997 28.8693 39.5629 28.4779 39.7238 28.3168C39.8618 28.1787 40.1376 28.3858 40.3215 28.547C41.287 29.3527 42.6434 30.711 43.9307 32.0002C44.1836 32.1844 45.333 32.898 46.8502 31.9081C47.7698 31.3096 47.9537 30.5729 47.9307 29.9973C47.8617 29.2607 47.287 28.7312 47.287 28.7312L43.1491 24.5643C43.1491 24.5643 42.7123 24.196 42.8732 24.0118C43.0112 23.8506 43.287 24.0809 43.4709 24.242C44.7813 25.347 48.3675 28.6391 48.3675 28.6391C48.4134 28.6851 49.6548 29.5599 51.1721 28.593C51.7238 28.2477 52.0686 27.7182 52.0916 27.0966C52.0686 25.9456 51.31 25.324 51.31 25.324Z" fill="white"/>
<path d="M31.2181 30.6189C30.5744 30.6189 29.8618 30.9873 29.7698 30.9412C29.7238 30.9182 29.8158 30.6419 29.8618 30.5038C29.9307 30.3657 30.7583 27.8103 28.7124 26.9125C27.1262 26.2218 26.1606 27.0046 25.8388 27.3499C25.7469 27.442 25.7239 27.442 25.7009 27.3269C25.6779 26.8664 25.471 25.6233 24.0917 25.2089C22.1377 24.6104 20.8963 25.9686 20.5745 26.4751C20.4365 25.3701 19.494 24.4953 18.3446 24.4953C17.1032 24.4953 16.0917 25.5082 16.0917 26.7513C16.0917 27.9945 17.1032 29.0074 18.3446 29.0074C18.9423 29.0074 19.494 28.7772 19.9078 28.3859C19.9308 28.4089 19.9308 28.4089 19.9078 28.4549C19.8158 29.0074 19.6319 31.0563 21.7699 31.8851C22.6204 32.2074 23.3561 31.9772 23.9538 31.5398C24.1377 31.4016 24.1607 31.4707 24.1377 31.6319C24.0687 32.1614 24.1607 33.2664 25.7239 33.911C26.9193 34.3944 27.6319 33.8879 28.0917 33.4736C28.2986 33.2894 28.3445 33.3124 28.3675 33.6117C28.4135 35.1311 29.6779 36.3282 31.1951 36.3282C32.7583 36.3282 34.0457 35.062 34.0457 33.4736C34.0457 31.8851 32.7813 30.6189 31.2181 30.6189Z" fill="white"/>
<path d="M51.7241 24.2417C48.5287 21.4561 41.1494 15.0102 39.1494 13.5138C38 12.662 37.2184 12.2016 36.5517 11.9944C36.2528 11.9023 35.8161 11.7872 35.2643 11.7872C34.7586 11.7872 34.2069 11.8793 33.6322 12.0634C32.3448 12.4778 31.0575 13.4908 29.8161 14.4807L29.7471 14.5267C28.5747 15.4476 27.3793 16.4145 26.4828 16.5986C26.092 16.6907 25.6782 16.7368 25.2644 16.7368C24.2529 16.7368 23.3333 16.4375 22.9885 16.0001C22.9425 15.931 22.9655 15.8159 23.1035 15.6318L23.1264 15.6087L25.931 12.5699C28.1379 10.3599 30.2069 8.28795 35.0115 8.17284C35.0804 8.17284 35.1724 8.17284 35.2414 8.17284C38.2298 8.17284 41.1954 9.50808 41.5402 9.66923C44.3448 11.0275 47.2183 11.7181 50.1149 11.7411C53.1264 11.7411 56.2528 11.0045 59.5401 9.48506C59.1723 9.18578 58.8045 8.8865 58.3907 8.58722C55.5171 9.83037 52.7585 10.475 50.1149 10.475C47.4022 10.475 44.7126 9.83037 42.0919 8.54118C41.954 8.47212 38.6666 6.92969 35.2414 6.92969C35.1494 6.92969 35.0574 6.92969 34.9655 6.92969C30.9425 7.02177 28.6896 8.4491 27.1494 9.71527C25.6782 9.76131 24.3908 10.1066 23.2414 10.4289C22.2299 10.7052 21.3563 10.9584 20.5058 10.9584C20.1609 10.9584 19.5173 10.9354 19.4713 10.9354C18.4828 10.9124 13.5403 9.69225 9.58626 8.19586C9.17247 8.47212 8.80466 8.77139 8.41385 9.07067C12.5288 10.7512 17.5403 12.0634 19.1265 12.1786C19.5632 12.2016 20.046 12.2476 20.5058 12.2476C21.5402 12.2476 22.5977 11.9483 23.6092 11.6721C24.2069 11.5109 24.8736 11.3268 25.5632 11.1886C25.3793 11.3728 25.1954 11.557 25.0115 11.7411L22.1379 14.803C21.9081 15.0332 21.4253 15.6318 21.7471 16.3915C21.8851 16.6907 22.1379 16.99 22.5058 17.2202C23.1954 17.6806 24.4138 17.9799 25.5402 17.9799C25.977 17.9799 26.3678 17.9339 26.7586 17.8418C27.954 17.5655 29.2184 16.5756 30.5517 15.5166C31.6092 14.6649 33.1264 13.6059 34.2758 13.2836C34.5977 13.1915 34.9885 13.1454 35.3103 13.1454C35.4023 13.1454 35.4942 13.1454 35.5862 13.1685C36.3448 13.2606 37.0804 13.5138 38.3908 14.5037C40.7356 16.2763 51.1034 25.3698 51.2183 25.4388C51.2183 25.4388 51.885 26.0144 51.839 26.9582C51.816 27.4877 51.5172 27.9482 51.0114 28.2935C50.5746 28.5697 50.1149 28.7079 49.6551 28.7079C48.9654 28.7079 48.4827 28.3856 48.4597 28.3625C48.4137 28.3395 44.8735 25.0705 43.5632 23.9655C43.3563 23.7813 43.1494 23.6432 42.9425 23.6432C42.8275 23.6432 42.7356 23.6892 42.6666 23.7813C42.4597 24.0345 42.6896 24.3799 42.9655 24.6101L47.1264 28.8C47.1264 28.8 47.6551 29.2834 47.7011 29.928C47.7241 30.6186 47.4022 31.1942 46.7126 31.6546C46.2298 31.9769 45.7241 32.138 45.2413 32.138C44.5976 32.138 44.1609 31.8388 44.0459 31.7697L43.4482 31.1711C42.3678 30.0891 41.2413 28.9841 40.4137 28.2935C40.2069 28.1323 40 27.9712 39.7931 27.9712C39.7011 27.9712 39.6092 28.0172 39.5402 28.0863C39.4482 28.2014 39.3793 28.3856 39.6092 28.6848C39.7011 28.823 39.816 28.9151 39.816 28.9151L42.8505 32.3222C42.8735 32.3452 43.4712 33.0589 42.9195 33.7726L42.8045 33.9107C42.7126 34.0028 42.6206 34.0949 42.5287 34.1869C42.0229 34.6013 41.3103 34.6474 41.0574 34.6474C40.9195 34.6474 40.7816 34.6243 40.6436 34.6013C40.3448 34.5553 40.1379 34.4632 40.0459 34.3481L40 34.302C39.839 34.1409 38.2988 32.5754 37.0345 31.5165C36.8735 31.3783 36.6666 31.1942 36.4367 31.1942C36.3218 31.1942 36.2299 31.2402 36.1609 31.3093C35.908 31.5855 36.2758 31.9999 36.4367 32.138L39.0115 34.9927C39.0115 35.0157 38.9655 35.0848 38.9195 35.1769C38.8275 35.315 38.5057 35.6143 37.5862 35.7294C37.4712 35.7524 37.3563 35.7524 37.2413 35.7524C36.2758 35.7524 35.2414 35.292 34.7126 34.9927C34.9655 34.4862 35.0804 33.9107 35.0804 33.3582C35.0804 31.2172 33.3563 29.4906 31.2184 29.4906C31.1724 29.4906 31.1264 29.4906 31.0804 29.4906C31.1494 28.5237 31.0115 26.682 29.1264 25.8762C28.5747 25.646 28.046 25.5309 27.5172 25.5309C27.1034 25.5309 26.7126 25.6 26.3448 25.7381C25.954 24.9784 25.3104 24.4259 24.4598 24.1266C24 23.9655 23.5173 23.8734 23.0805 23.8734C22.2989 23.8734 21.5632 24.1036 20.9196 24.564C20.2989 23.8043 19.3563 23.3439 18.3908 23.3439C17.5403 23.3439 16.7127 23.6892 16.092 24.2878C15.2874 23.6662 12.092 21.6403 3.5633 19.7065C3.1495 19.6144 2.20698 19.3382 1.60928 19.177C1.51733 19.6375 1.44836 20.0979 1.37939 20.5813C1.37939 20.5813 2.9656 20.9497 3.26445 21.0187C12 22.9525 14.8736 24.9784 15.3564 25.3698C15.1954 25.7611 15.1035 26.1985 15.1035 26.6359C15.1035 28.4316 16.5747 29.905 18.3678 29.905C18.5747 29.905 18.7816 29.882 18.9655 29.8589C19.2414 31.1942 20.115 32.1841 21.4253 32.7136C21.8161 32.8517 22.2069 32.9438 22.5977 32.9438C22.8506 32.9438 23.1035 32.9208 23.3333 32.8517C23.5862 33.4733 24.1379 34.256 25.3563 34.7625C25.7931 34.9466 26.2299 35.0387 26.6437 35.0387C26.9885 35.0387 27.3333 34.9697 27.6322 34.8546C28.2299 36.3049 29.6322 37.2488 31.1954 37.2488C32.2299 37.2488 33.2414 36.8344 33.954 36.0747C34.5747 36.42 35.885 37.0416 37.2184 37.0416C37.3793 37.0416 37.5402 37.0186 37.7241 37.0186C39.0344 36.8574 39.6551 36.3279 39.931 35.9366C39.977 35.8675 40.0229 35.7984 40.0689 35.7064C40.3908 35.7984 40.7126 35.8675 41.1034 35.8675C41.816 35.8675 42.5057 35.6143 43.2183 35.1078C43.908 34.6013 44.3907 33.9107 44.4597 33.2891V33.2661C44.6896 33.3121 44.9195 33.3352 45.1724 33.3352C45.908 33.3352 46.6436 33.1049 47.3333 32.6445C48.6666 31.7697 48.9195 30.6186 48.8965 29.8589C49.1264 29.905 49.3792 29.928 49.6091 29.928C50.2988 29.928 50.9884 29.7208 51.6321 29.3064C52.4597 28.7769 52.9654 27.9482 53.0344 27.0043C53.0804 26.3597 52.9195 25.7151 52.5976 25.1396C54.8505 24.1727 59.9999 22.2849 66.0688 20.9267C66.0229 20.4662 65.9539 19.9828 65.8849 19.5224C58.5516 21.249 53.0804 23.6202 51.7241 24.2417ZM31.2184 36.0977C29.7931 36.0977 28.6437 34.9927 28.5747 33.5654C28.5747 33.4503 28.5517 33.128 28.2759 33.128C28.1609 33.128 28.069 33.197 27.954 33.2891C27.6322 33.5884 27.2414 33.8646 26.6667 33.8646C26.4138 33.8646 26.1149 33.7956 25.8161 33.6805C24.3218 33.0819 24.2989 32.046 24.3448 31.6316C24.3678 31.5165 24.3678 31.4014 24.2989 31.3093L24.2069 31.2172H24.115C24.046 31.2172 23.954 31.2402 23.8621 31.3323C23.4253 31.6316 23.0115 31.7927 22.5747 31.7927C22.3448 31.7927 22.092 31.7467 21.8621 31.6546C19.8851 30.8719 20.046 29.0071 20.138 28.4546C20.1609 28.3395 20.115 28.2474 20.046 28.2014L19.9081 28.0863L19.7701 28.2014C19.3793 28.5697 18.8736 28.7769 18.3449 28.7769C17.2184 28.7769 16.2989 27.8561 16.2989 26.728C16.2989 25.6 17.2184 24.6791 18.3678 24.6791C19.4023 24.6791 20.2759 25.4619 20.3908 26.4748L20.4598 27.0273L20.7586 26.5669C20.7816 26.5208 21.6322 25.2547 23.1494 25.2547C23.4483 25.2547 23.7471 25.3007 24.046 25.3928C25.2644 25.7611 25.4713 26.8662 25.4943 27.3266C25.5172 27.6028 25.7012 27.6028 25.7471 27.6028C25.8621 27.6028 25.931 27.5338 25.977 27.4877C26.2069 27.2575 26.7126 26.8431 27.4942 26.8431C27.8621 26.8431 28.2299 26.9352 28.6207 27.0964C30.5517 27.9251 29.6782 30.3884 29.6782 30.4114C29.5172 30.8258 29.4942 31.01 29.6552 31.1021L29.7241 31.1481H29.7701C29.8621 31.1481 29.977 31.1021 30.1379 31.056C30.3908 30.964 30.8046 30.8258 31.1724 30.8258C32.6207 30.8488 33.8161 32.0229 33.8161 33.4733C33.8391 34.9236 32.6666 36.0977 31.2184 36.0977Z" fill="#141685"/>
</svg>
