<svg width="137" height="109" viewBox="0 0 137 109" fill="none" xmlns="http://www.w3.org/2000/svg">
<path d="M99.8872 58.7446V104.073H36.4277V58.7446H99.8872Z" fill="#9FEAFF"/>
<path d="M126.065 99.7166V100.717H127.065H131.598C132.535 100.717 133.433 101.089 134.096 101.751C134.758 102.414 135.131 103.312 135.131 104.249C135.131 105.186 134.758 106.085 134.096 106.747C133.433 107.41 132.535 107.782 131.598 107.782H4.67886C3.7419 107.782 2.84331 107.41 2.18079 106.747C1.51825 106.085 1.14604 105.186 1.14604 104.249C1.14604 103.312 1.51825 102.414 2.18078 101.751C2.84331 101.089 3.7419 100.717 4.67886 100.717H9.21168H10.2117V99.7166V64.9102V61.8831L8.40847 64.3145L7.53023 65.4987L7.51182 65.5235L7.49498 65.5494C7.23492 65.9496 6.8965 66.2929 6.50012 66.5586C6.10376 66.8243 5.65765 67.007 5.18873 67.0956C4.71982 67.1842 4.23781 67.1769 3.7718 67.0741C3.30579 66.9713 2.86544 66.7752 2.47732 66.4975L1.89549 67.3108L2.47732 66.4975C2.0892 66.2199 1.76135 65.8664 1.51357 65.4586C1.26578 65.0508 1.10319 64.5969 1.03561 64.1245C0.968024 63.6521 0.996851 63.1709 1.12035 62.71C1.24384 62.249 1.45944 61.8179 1.75415 61.4425L1.76816 61.4247L1.78135 61.4062L24.4423 29.6808C24.4428 29.6801 24.4433 29.6794 24.4438 29.6787C24.6856 29.3446 24.984 29.0553 25.3255 28.8241L25.3256 28.8242L25.3329 28.819L63.6296 2.38707L63.635 2.38328L63.6822 2.35023C65.0057 1.46979 66.5599 1 68.1497 1C69.7394 1 71.2936 1.46978 72.617 2.35021L72.6643 2.38331L72.6692 2.38672L110.909 28.8131L110.917 28.8185C111.259 29.0496 111.557 29.3388 111.799 29.6729C111.799 29.6737 111.8 29.6744 111.8 29.6752L134.461 61.4006L134.474 61.419L134.488 61.4369C134.783 61.8122 134.999 62.2434 135.122 62.7043C135.246 63.1653 135.275 63.6465 135.207 64.1189C135.139 64.5913 134.977 65.0451 134.729 65.4529C134.481 65.8608 134.153 66.2142 133.765 66.4918C133.377 66.7695 132.937 66.9656 132.471 67.0684C132.005 67.1712 131.523 67.1786 131.054 67.09C130.585 67.0014 130.139 66.8187 129.743 66.5529C129.346 66.2872 129.008 65.9439 128.748 65.5438L128.735 65.5248L128.722 65.5064L127.878 64.3278L126.065 61.7971V64.9102V99.7166ZM17.4636 51.6371L17.2773 51.8978V52.2183V99.7166V100.717H18.2773H31.8758H32.8758V99.7166V58.9212C32.8758 57.9842 33.248 57.0857 33.9105 56.4231C34.5731 55.7606 35.4716 55.3884 36.4086 55.3884H99.868C100.805 55.3884 101.704 55.7606 102.366 56.4231C103.029 57.0857 103.401 57.9842 103.401 58.9212V99.7166V100.717H104.401H117.999H118.999V99.7166V52.2183V51.8979L118.813 51.6372L106.518 34.4181L106.416 34.2758L106.272 34.1764L68.7065 8.23731L68.1383 7.84492L67.57 8.23736L30.0043 34.1821L29.8605 34.2814L29.7589 34.4237L17.4636 51.6371ZM67.5566 76.829L68.1383 77.245L68.72 76.829L86.2847 64.2674L88.8204 62.454H85.703H50.5737H47.4563L49.9919 64.2674L67.5566 76.829ZM96.3352 65.789L94.7541 66.9181L75.3536 80.7715L74.2142 81.5851L75.3535 82.399L94.754 96.2581L96.3352 97.3877V95.4444V67.7319V65.789ZM60.9232 82.399L62.0624 81.5851L60.923 80.7715L41.5225 66.9181L39.9414 65.789V67.7319V95.4444V97.3877L41.5227 96.2581L60.9232 82.399ZM68.72 86.3416L68.1383 85.9256L67.5566 86.3416L49.9919 98.9032L47.4563 100.717H50.5737H85.703H88.8204L86.2847 98.9032L68.72 86.3416ZM55.5399 40.7899C55.5399 39.853 55.9121 38.9544 56.5746 38.2918C57.2371 37.6293 58.1357 37.2571 59.0727 37.2571H77.204C78.1409 37.2571 79.0395 37.6293 79.702 38.2918C80.3646 38.9544 80.7368 39.853 80.7368 40.7899C80.7368 41.7269 80.3646 42.6255 79.702 43.288C79.0395 43.9505 78.1409 44.3227 77.204 44.3227H59.0727C58.1357 44.3227 57.2371 43.9505 56.5746 43.288C55.9121 42.6255 55.5399 41.7269 55.5399 40.7899Z" fill="#00638C" stroke="#F2F6F8" stroke-width="2"/>
</svg>
