<svg width="151" height="112" viewBox="0 0 151 112" fill="none" xmlns="http://www.w3.org/2000/svg">
<path d="M148.443 65.6234L120.511 24.427C117.408 19.8468 112.235 17.102 106.704 17.102L90.227 17.1521L90.1268 4.62965C90.1185 3.26144 89.0006 2.15186 87.6324 2.1602L4.85573 2.40214C3.32901 2.40214 2.08594 3.64521 2.08594 5.17193V91.4025C2.08594 92.9292 3.32901 94.1722 4.85573 94.1722H15.9099C16.6023 84.4363 24.7114 76.7526 34.6226 76.7526C44.5338 76.7526 52.6429 84.4363 53.3437 94.1722L98.528 93.8552C99.3706 84.2694 107.413 76.7526 117.224 76.7526C127.035 76.7526 135.069 84.2694 135.92 93.8552H146.157C147.683 93.8552 148.926 92.6122 148.926 91.0854V67.1751C148.918 66.6162 148.751 66.0823 148.443 65.6234Z" fill="#DFF9FF"/>
<path d="M2.08511 91.4031C2.08511 92.9298 3.32817 94.1729 4.85489 94.1729H15.909C16.6015 84.4369 24.7106 76.7532 34.6218 76.7532C44.533 76.7532 52.6421 84.4369 53.3429 94.1729L98.5271 93.8559C99.3698 84.2701 107.412 76.7532 117.223 76.7532C127.034 76.7532 135.068 84.2701 135.919 93.8559H146.156C147.683 93.8559 148.926 92.6128 148.926 91.0861V67.1758L1.66797 67.8933L2.08511 91.4031Z" fill="#9FEAFF"/>
<path d="M100.529 30.4497V54.6436H132.232L117.749 33.645C116.372 31.6427 114.095 30.4497 111.667 30.4497H100.529Z" fill="#9FEAFF"/>
<path d="M34.6218 108.872C41.9939 108.872 47.9702 102.896 47.9702 95.5237C47.9702 88.1516 41.9939 82.1753 34.6218 82.1753C27.2497 82.1753 21.2734 88.1516 21.2734 95.5237C21.2734 102.896 27.2497 108.872 34.6218 108.872Z" fill="#9FEAFF"/>
<path d="M117.214 108.872C124.586 108.872 130.562 102.896 130.562 95.5237C130.562 88.1516 124.586 82.1753 117.214 82.1753C109.842 82.1753 103.865 88.1516 103.865 95.5237C103.865 102.896 109.842 108.872 117.214 108.872Z" fill="#9FEAFF"/>
<path d="M15.0176 65.7577C13.9998 65.7577 13.1738 64.9318 13.1738 63.914V17.52C13.1738 16.5022 13.9998 15.6763 15.0176 15.6763C16.0354 15.6763 16.8613 16.5022 16.8613 17.52V63.914C16.8613 64.9318 16.0354 65.7577 15.0176 65.7577Z" fill="#00638C"/>
<path d="M27.1133 66.0829C26.0955 66.0829 25.2695 65.257 25.2695 64.2392V17.8452C25.2695 16.8274 26.0955 16.0015 27.1133 16.0015C28.1311 16.0015 28.957 16.8274 28.957 17.8452V64.2392C28.957 65.257 28.1311 66.0829 27.1133 66.0829Z" fill="#00638C"/>
<path d="M39.2109 66.0829C38.1931 66.0829 37.3672 65.257 37.3672 64.2392V17.8452C37.3672 16.8274 38.1931 16.0015 39.2109 16.0015C40.2287 16.0015 41.0547 16.8274 41.0547 17.8452V64.2392C41.0547 65.257 40.2287 66.0829 39.2109 66.0829Z" fill="#00638C"/>
<path d="M51.3066 66.0829C50.2888 66.0829 49.4629 65.257 49.4629 64.2392V17.8452C49.4629 16.8274 50.2888 16.0015 51.3066 16.0015C52.3244 16.0015 53.1504 16.8274 53.1504 17.8452V64.2392C53.1504 65.257 52.3244 66.0829 51.3066 66.0829Z" fill="#00638C"/>
<path d="M63.4043 66.0829C62.3865 66.0829 61.5605 65.257 61.5605 64.2392V17.8452C61.5605 16.8274 62.3865 16.0015 63.4043 16.0015C64.4221 16.0015 65.248 16.8274 65.248 17.8452V64.2392C65.248 65.257 64.4221 66.0829 63.4043 66.0829Z" fill="#00638C"/>
<path d="M75.5019 66.0829C74.4841 66.0829 73.6582 65.257 73.6582 64.2392V17.8452C73.6582 16.8274 74.4841 16.0015 75.5019 16.0015C76.5198 16.0015 77.3457 16.8274 77.3457 17.8452V64.2392C77.3457 65.257 76.5198 66.0829 75.5019 66.0829Z" fill="#00638C"/>
<path d="M150.169 64.4476L122.238 23.2512C118.742 18.0954 112.936 15.0169 106.704 15.0169H92.3124V5.42278V5.19752C92.3124 2.33597 89.9848 0 87.1065 0L4.85547 0.317024C2.17745 0.317024 0 2.49448 0 5.16415V91.3947C0 94.0727 2.17745 96.2502 4.85547 96.2502H13.582C14.7333 96.2502 15.6677 95.3158 15.6677 94.1645C15.6677 93.0132 14.7333 92.0788 13.582 92.0788H4.85547C4.48005 92.0788 4.17137 91.7701 4.17137 91.3947V5.16415C4.17137 4.78873 4.48005 4.48005 4.86382 4.48005L87.1149 4.17137C87.6822 4.17137 88.141 4.63022 88.141 5.19752V5.42278V17.1026V91.8368L56.1633 92.0871C55.012 92.0955 54.086 93.0382 54.0943 94.1895C54.1026 95.3325 55.037 96.2585 56.18 96.2585C56.1883 96.2585 56.1883 96.2585 56.1967 96.2585L89.6093 95.9999C89.8096 96.0583 90.0098 96.1 90.2267 96.1C90.452 96.1 90.6689 96.0499 90.8774 95.9832L96.2752 95.9415C97.4265 95.9331 98.3525 94.9904 98.3442 93.8391C98.3358 92.6961 97.4014 91.7701 96.2585 91.7701C96.2501 91.7701 96.2502 91.7701 96.2418 91.7701L92.3124 91.8035V19.1883H106.704C111.551 19.1883 116.064 21.5827 118.784 25.5955L146.715 66.7919C146.79 66.9087 146.832 67.0339 146.832 67.1757V91.086C146.832 91.4614 146.523 91.7701 146.148 91.7701H138.439C137.288 91.7701 136.354 92.7045 136.354 93.8558C136.354 95.0071 137.288 95.9415 138.439 95.9415H146.148C148.826 95.9415 151.004 93.764 151.004 91.086V67.1757C151.004 66.1996 150.712 65.2569 150.169 64.4476Z" fill="#00638C"/>
<path d="M132.233 56.73H100.531C99.3797 56.73 98.4453 55.7957 98.4453 54.6444V30.4504C98.4453 29.2991 99.3797 28.3647 100.531 28.3647H111.669C114.789 28.3647 117.7 29.8998 119.469 32.461L133.952 53.4597C134.394 54.0937 134.444 54.928 134.085 55.6121C133.718 56.2962 133.009 56.73 132.233 56.73ZM102.617 52.5587H128.262L116.032 34.8304C115.039 33.3954 113.404 32.5361 111.66 32.5361H102.617V52.5587Z" fill="#00638C"/>
<path d="M34.6219 111.025C26.0706 111.025 19.1211 104.067 19.1211 95.5242C19.1211 86.9813 26.0789 80.0234 34.6219 80.0234C43.1649 80.0234 50.1227 86.9813 50.1227 95.5242C50.1227 104.067 43.1732 111.025 34.6219 111.025ZM34.6219 84.3283C28.4483 84.3283 23.4259 89.3506 23.4259 95.5242C23.4259 101.698 28.4483 106.72 34.6219 106.72C40.7955 106.72 45.8178 101.698 45.8178 95.5242C45.8178 89.3506 40.7955 84.3283 34.6219 84.3283Z" fill="#00638C"/>
<path d="M117.214 111.025C108.662 111.025 101.713 104.067 101.713 95.5242C101.713 86.9813 108.671 80.0234 117.214 80.0234C125.757 80.0234 132.715 86.9813 132.715 95.5242C132.715 104.067 125.765 111.025 117.214 111.025ZM117.214 84.3283C111.04 84.3283 106.018 89.3506 106.018 95.5242C106.018 101.698 111.04 106.72 117.214 106.72C123.387 106.72 128.41 101.698 128.41 95.5242C128.41 89.3506 123.387 84.3283 117.214 84.3283Z" fill="#00638C"/>
</svg>
