<svg width="131" height="109" viewBox="0 0 131 109" fill="none" xmlns="http://www.w3.org/2000/svg">
<path d="M78.9692 2.68018H122.52C122.52 2.68018 127.963 2.68018 127.963 8.12397V100.659C127.963 100.659 127.963 106.103 122.52 106.103H78.9692C78.9692 106.103 73.5254 106.103 73.5254 100.659V8.12397C73.5254 8.12397 73.5254 2.68018 78.9692 2.68018Z" fill="#DFF9FF"/>
<path d="M127.963 13.5678V8.12397C127.963 6.67606 127.39 5.29395 126.365 4.27853C125.34 3.2537 123.958 2.68018 122.52 2.68018H78.9692C77.5213 2.68018 76.1392 3.2537 75.1237 4.27853C74.0989 5.30335 73.5254 6.68546 73.5254 8.12397V13.5678H127.963Z" fill="white"/>
<path d="M8.20942 29.8989H73.5256C73.5256 29.8989 78.9694 29.8989 78.9694 35.3427V84.3369C78.9694 84.3369 78.9694 89.7807 73.5256 89.7807H8.20942C8.20942 89.7807 2.76562 89.7807 2.76562 84.3369V35.3427C2.76562 35.3427 2.76563 29.8989 8.20942 29.8989Z" fill="#9FEAFF"/>
<path d="M8.20942 89.7713H10.9266L70.8084 29.8989H8.20942C6.7615 29.8989 5.3794 30.4725 4.36398 31.4973C3.33915 32.5221 2.76562 33.9042 2.76562 35.3427V84.3369C2.76562 85.7848 3.33915 87.1669 4.36398 88.1824C5.3794 89.1978 6.7615 89.7713 8.20942 89.7713Z" fill="#DFF9FF"/>
<path d="M92.582 76.1669C92.582 78.3293 93.4376 80.4072 94.9702 81.9397C96.5027 83.4723 98.5806 84.3279 100.743 84.3279C102.906 84.3279 104.983 83.4723 106.516 81.9397C108.048 80.4072 108.904 78.3293 108.904 76.1669C108.904 74.0044 108.048 71.9265 106.516 70.394C104.983 68.8614 102.906 68.0059 100.743 68.0059C98.5806 68.0059 96.5027 68.8614 94.9702 70.394C93.4376 71.9265 92.582 73.995 92.582 76.1669Z" fill="#9FEAFF"/>
<path d="M73.5275 27.2192H8.21128C2.25037 27.2192 0.0878906 32.0707 0.0878906 35.3426V84.3368C0.0878906 90.2977 4.94876 92.4602 8.21128 92.4602H38.1945V103.423H24.5145C23.0383 103.423 21.8349 104.626 21.8349 106.103C21.8349 107.579 23.0383 108.782 24.5145 108.782H57.1773C58.6534 108.782 59.8568 107.579 59.8568 106.103C59.8568 104.626 58.6628 103.423 57.1773 103.423H43.5443V92.4508H73.5275C79.4884 92.4508 81.6508 87.5899 81.6508 84.3274V35.3426C81.6508 29.3817 76.7994 27.2192 73.5275 27.2192ZM76.2917 84.2992C76.2635 85.5779 75.7557 87.0916 73.5275 87.0916H8.23948C6.97021 87.0634 5.44707 86.5557 5.44707 84.3274V35.3426C5.44707 34.5152 5.71973 32.5784 8.21128 32.5784H73.4993C74.7779 32.6066 76.2917 33.1143 76.2917 35.3426V84.2992Z" fill="#00638C"/>
<path d="M128.266 2.37872C126.734 0.846186 124.693 0 122.521 0H78.971C76.7992 0 74.7589 0.846186 73.2264 2.37872C71.6938 3.91126 70.8477 5.95151 70.8477 8.12339V19.011C70.8477 20.4871 72.0511 21.6906 73.5272 21.6906C75.0034 21.6906 76.2068 20.4871 76.2068 19.011V8.12339C76.2068 7.39943 76.4983 6.68487 77.0154 6.16776C77.5419 5.64124 78.2283 5.35918 78.971 5.35918H122.521C123.264 5.35918 123.951 5.65064 124.477 6.16776C124.994 6.68487 125.286 7.39943 125.286 8.12339V21.7752H89.8586C88.3825 21.7752 87.179 22.9787 87.179 24.4548C87.179 25.9309 88.3825 27.1344 89.8586 27.1344H125.286V38.1066H89.8586C88.3825 38.1066 87.179 39.3101 87.179 40.7862C87.179 42.2623 88.3825 43.4658 89.8586 43.4658H125.286V100.659C125.286 101.383 124.994 102.097 124.477 102.614C123.96 103.141 123.264 103.423 122.521 103.423H78.971C78.2283 103.423 77.5419 103.131 77.0154 102.614C76.4983 102.097 76.2068 101.383 76.2068 100.659C76.2068 99.1824 75.0034 97.979 73.5272 97.979C72.0511 97.979 70.8477 99.1824 70.8477 100.659C70.8477 102.83 71.6938 104.871 73.2264 106.403C74.7589 107.936 76.7992 108.782 78.971 108.782H122.521C124.693 108.782 126.734 107.936 128.266 106.403C129.799 104.871 130.645 102.83 130.645 100.659V8.12339C130.645 5.95151 129.799 3.91126 128.266 2.37872Z" fill="#00638C"/>
<path d="M100.745 87.0071C97.8863 87.0071 95.0939 85.8507 93.0724 83.8292C91.051 81.8078 89.8945 79.0153 89.8945 76.1571C89.8945 73.2989 91.051 70.5065 93.0724 68.485C95.0939 66.4636 97.8863 65.3071 100.745 65.3071C103.603 65.3071 106.395 66.4636 108.417 68.485C110.438 70.5065 111.595 73.2989 111.595 76.1571C111.595 79.0153 110.438 81.8078 108.417 83.8292C106.395 85.8507 103.603 87.0071 100.745 87.0071ZM100.745 70.6757C99.2966 70.6757 97.8863 71.2586 96.8615 72.2835C95.8366 73.3083 95.2537 74.7186 95.2537 76.1665C95.2537 77.6144 95.8366 79.0247 96.8615 80.0496C97.8863 81.0744 99.2966 81.6573 100.745 81.6573C102.192 81.6573 103.603 81.0744 104.628 80.0496C105.652 79.0247 106.235 77.6144 106.235 76.1665C106.235 74.7186 105.652 73.3083 104.628 72.2835C103.603 71.268 102.192 70.6757 100.745 70.6757Z" fill="#00638C"/>
</svg>
