<svg width="32" height="30" viewBox="0 0 32 30" fill="none" xmlns="http://www.w3.org/2000/svg">
<path d="M12.3599 26C12.3599 28.21 10.5699 30 8.35986 30C6.14986 30 4.35986 28.21 4.35986 26C4.35986 23.79 6.14986 22 8.35986 22C10.5699 22 12.3599 23.79 12.3599 26Z" fill="#00638C"/>
<path d="M28 26C28 28.21 26.21 30 24 30C21.79 30 20 28.21 20 26C20 23.79 21.79 22 24 22C26.21 22 28 23.79 28 26Z" fill="#00638C"/>
<path d="M31.52 15.28L25.52 6.22C24.61 4.874 23.09 4 21.364 4C21.348 4 21.334 4 21.318 4H16V2C16 0.896 15.104 0 14 0C12.896 0 12 0.896 12 2V4H3C1.344 4 0 5.344 0 7V24H2.74C3.688 21.73 5.832 20.138 8.364 20C10.92 20.144 13.054 21.736 13.984 23.956L18.36 23.998C19.308 21.728 21.452 20.136 23.984 19.998C26.59 20.004 28.794 21.652 29.628 23.956L32.002 23.998V16.858C32 16.27 31.822 15.722 31.516 15.268L31.52 15.28ZM13.84 14.24C13.308 16.474 11.33 18.11 8.97 18.11C6.208 18.11 3.97 15.872 3.97 13.11C3.97 10.75 5.606 8.77 7.806 8.246C8.196 8.148 8.604 8.096 9.024 8.096C11.764 8.096 13.984 10.316 13.984 13.056C13.984 13.476 13.932 13.884 13.834 14.274L13.84 14.24ZM20 14V8H21.7H21.718C23.272 8 24.64 8.788 25.45 9.984L28.1 14H20Z" fill="#00638C"/>
</svg>
