<svg width="48" height="38" viewBox="0 0 48 38" fill="none" xmlns="http://www.w3.org/2000/svg">
<path d="M46.3269 20.9489L36.38 6.27798C35.2748 4.6469 33.4327 3.66943 31.463 3.66943H1.72905C1.18536 3.66943 0.742676 4.11211 0.742676 4.65581V30.0164C0.742676 30.5601 1.18536 31.0028 1.72905 31.0028H5.66565C5.91224 27.5356 8.80007 24.7993 12.3296 24.7993C15.8592 24.7993 18.747 27.5356 18.9966 31.0028H28.5514C28.8514 27.5891 31.7155 24.9122 35.2094 24.9122C38.7033 24.9122 41.5644 27.5891 41.8675 31.0028H45.5129C46.0566 31.0028 46.4993 30.5601 46.4993 30.0164V21.5015C46.4963 21.3024 46.4369 21.1123 46.3269 20.9489Z" fill="#DFF9FF"/>
<path d="M0.742301 30.0164C0.742301 30.5601 1.18498 31.0028 1.72868 31.0028H5.66527C5.91187 27.5356 8.79969 24.7993 12.3293 24.7993C15.8588 24.7993 18.7466 27.5356 18.9962 31.0028H28.551C28.8511 27.5891 31.7151 24.9122 35.209 24.9122C38.703 24.9122 41.564 27.5891 41.8671 31.0028H45.5125C46.0562 31.0028 46.4989 30.5601 46.4989 30.0164V21.5015L0.59375 21.6441L0.742301 30.0164Z" fill="#9FEAFF"/>
<g opacity="0.9">
<path d="M27.7434 31.7453H20.0069C19.5969 31.7453 19.2642 31.4125 19.2642 31.0025C19.2642 30.5925 19.5969 30.2598 20.0069 30.2598H27.7434C28.1534 30.2598 28.4862 30.5925 28.4862 31.0025C28.4862 31.4125 28.1534 31.7453 27.7434 31.7453Z" fill="#00638C"/>
</g>
<path d="M29.2646 8.42285V17.0388H40.5545L35.3968 9.56075C34.9066 8.84771 34.0955 8.42285 33.231 8.42285H29.2646Z" fill="#9FEAFF"/>
<path d="M40.5541 17.7816H29.2642C28.8542 17.7816 28.5215 17.4489 28.5215 17.0389V8.42293C28.5215 8.01293 28.8542 7.68018 29.2642 7.68018H33.2305C34.3417 7.68018 35.3786 8.22684 36.0084 9.13894L41.1661 16.617C41.3236 16.8428 41.3414 17.1399 41.2137 17.3835C41.0829 17.6271 40.8304 17.7816 40.5541 17.7816ZM30.007 16.2961H39.1399L34.7844 9.98271C34.4308 9.4717 33.8485 9.16568 33.2276 9.16568H30.007V16.2961Z" fill="#00638C"/>
<path d="M17.0829 14.4096H14.8101V12.1368C14.8101 11.6703 14.4298 11.29 13.9634 11.29C13.4969 11.29 13.1166 11.6703 13.1166 12.1368V14.4096H10.8438C10.3774 14.4096 9.99707 14.7899 9.99707 15.2563C9.99707 15.7228 10.3774 16.1031 10.8438 16.1031H13.1166V18.3759C13.1166 18.8424 13.4969 19.2226 13.9634 19.2226C14.4298 19.2226 14.8101 18.8424 14.8101 18.3759V16.1031H17.0829C17.5494 16.1031 17.9297 15.7228 17.9297 15.2563C17.9297 14.7899 17.5494 14.4096 17.0829 14.4096Z" fill="#00638C"/>
<path d="M46.942 20.5297L36.9951 5.85884C35.7502 4.02275 33.6824 2.92645 31.463 2.92645H22.238V0.846739C22.238 0.38029 21.8578 0 21.3913 0C20.9249 0 20.5446 0.38029 20.5446 0.846739V2.92645H1.72913C0.775435 2.92645 0 3.70188 0 4.65558V30.0162C0 30.9699 0.775435 31.7453 1.72913 31.7453H4.83681C5.24681 31.7453 5.57957 31.4125 5.57957 31.0025C5.57957 30.5925 5.24681 30.2598 4.83681 30.2598H1.72913C1.59543 30.2598 1.48551 30.1499 1.48551 30.0162V4.65558C1.48551 4.52188 1.59543 4.41196 1.72913 4.41196H31.463C33.1892 4.41196 34.7965 5.26464 35.7651 6.6937L45.712 21.3646C45.7388 21.4062 45.7536 21.4507 45.7536 21.5012V30.0162C45.7536 30.1499 45.6437 30.2598 45.51 30.2598H42.7648C42.3548 30.2598 42.022 30.5925 42.022 31.0025C42.022 31.4125 42.3548 31.7453 42.7648 31.7453H45.51C46.4637 31.7453 47.2391 30.9699 47.2391 30.0162V21.5012C47.2391 21.1536 47.1351 20.8179 46.942 20.5297Z" fill="#00638C"/>
<path d="M12.3298 36.2377C14.9551 36.2377 17.0834 34.1094 17.0834 31.4841C17.0834 28.8587 14.9551 26.7305 12.3298 26.7305C9.70444 26.7305 7.57617 28.8587 7.57617 31.4841C7.57617 34.1094 9.70444 36.2377 12.3298 36.2377Z" fill="#9FEAFF"/>
<path d="M12.3297 37.0042C9.28443 37.0042 6.80957 34.5263 6.80957 31.484C6.80957 28.4417 9.2874 25.9639 12.3297 25.9639C15.372 25.9639 17.8499 28.4417 17.8499 31.484C17.8499 34.5263 15.375 37.0042 12.3297 37.0042ZM12.3297 27.4969C10.1312 27.4969 8.34261 29.2855 8.34261 31.484C8.34261 33.6826 10.1312 35.4711 12.3297 35.4711C14.5283 35.4711 16.3168 33.6826 16.3168 31.484C16.3168 29.2855 14.5283 27.4969 12.3297 27.4969Z" fill="#00638C"/>
<path d="M35.2063 36.3505C37.8316 36.3505 39.9599 34.2222 39.9599 31.5969C39.9599 28.9715 37.8316 26.8433 35.2063 26.8433C32.5809 26.8433 30.4526 28.9715 30.4526 31.5969C30.4526 34.2222 32.5809 36.3505 35.2063 36.3505Z" fill="#9FEAFF"/>
<path d="M35.2062 37.117C32.1609 37.117 29.686 34.6391 29.686 31.5968C29.686 28.5545 32.1639 26.0767 35.2062 26.0767C38.2485 26.0767 40.7263 28.5545 40.7263 31.5968C40.7263 34.6391 38.2515 37.117 35.2062 37.117ZM35.2062 27.6097C33.0076 27.6097 31.2191 29.3983 31.2191 31.5968C31.2191 33.7954 33.0076 35.5839 35.2062 35.5839C37.4047 35.5839 39.1933 33.7954 39.1933 31.5968C39.1933 29.3983 37.4047 27.6097 35.2062 27.6097Z" fill="#00638C"/>
</svg>
