<svg width="34" height="31" viewBox="0 0 34 31" fill="none" xmlns="http://www.w3.org/2000/svg">
<path d="M0.199989 9.2146C0.131746 9.2146 0.0635031 9.20414 0.000488281 9.17773V28.4482C0.000488281 29.6716 0.998217 30.6641 2.21643 30.6641H31.7842C33.0077 30.6641 34.0002 29.6716 34.0002 28.4482L33.9999 9.17773C33.9369 9.20389 33.8739 9.2146 33.8057 9.2146H0.199989ZM6.50109 27.1677C6.50109 27.7926 5.99698 28.2967 5.37207 28.2967H3.3295C2.70459 28.2967 2.20048 27.7926 2.20048 27.1677V25.1251C2.20048 24.5002 2.70459 23.9961 3.3295 23.9961H5.37207C5.99698 23.9961 6.50109 24.5002 6.50109 25.1251V27.1677ZM6.50109 20.9964C6.50109 21.6213 5.99698 22.1254 5.37207 22.1254H3.3295C2.70459 22.1254 2.20048 21.6213 2.20048 20.9964V18.9538C2.20048 18.3289 2.70459 17.8248 3.3295 17.8248H5.37207C5.99698 17.8248 6.50109 18.3289 6.50109 18.9538V20.9964ZM6.50109 14.825C6.50109 15.4499 5.99698 15.9541 5.37207 15.9541L3.3295 15.9538C2.70459 15.9538 2.20048 15.4497 2.20048 14.8248V12.7822C2.20048 12.1573 2.70459 11.6532 3.3295 11.6532H5.37207C5.99698 11.6532 6.50109 12.1573 6.50109 12.7822V14.825ZM12.8231 27.1679C12.8231 27.7928 12.319 28.2969 11.6941 28.2969H9.65151C9.0266 28.2969 8.5225 27.7928 8.5225 27.1679V25.1253C8.5225 24.5004 9.0266 23.9963 9.65151 23.9963H11.6941C12.319 23.9963 12.8231 24.5004 12.8231 25.1253V27.1679ZM12.8231 20.9965C12.8231 21.6214 12.319 22.1255 11.6941 22.1255H9.65151C9.0266 22.1255 8.5225 21.6214 8.5225 20.9965V18.9539C8.5225 18.329 9.0266 17.8249 9.65151 17.8249H11.6941C12.319 17.8249 12.8231 18.329 12.8231 18.9539V20.9965ZM12.8231 14.8252C12.8231 15.4501 12.319 15.9542 11.6941 15.9542H9.65151C9.0266 15.9542 8.5225 15.4501 8.5225 14.8252V12.7826C8.5225 12.1577 9.0266 11.6536 9.65151 11.6536H11.6941C12.319 11.6536 12.8231 12.1577 12.8231 12.7826V14.8252ZM19.1451 27.168C19.1451 27.7929 18.641 28.297 18.0161 28.297H15.9735C15.3486 28.297 14.8445 27.7929 14.8445 27.168V25.1254C14.8445 24.5005 15.3486 23.9964 15.9735 23.9964H18.0161C18.641 23.9964 19.1451 24.5005 19.1451 25.1254V27.168ZM19.1451 20.9966C19.1451 21.6215 18.641 22.1257 18.0161 22.1257H15.9735C15.3486 22.1257 14.8445 21.6215 14.8445 20.9966V18.9541C14.8445 18.3292 15.3486 17.825 15.9735 17.825H18.0161C18.641 17.825 19.1451 18.3292 19.1451 18.9541V20.9966ZM19.1451 14.8253C19.1451 15.4502 18.641 15.9543 18.0161 15.9543H15.9735C15.3486 15.9543 14.8445 15.4502 14.8445 14.8253V12.7827C14.8445 12.1578 15.3486 11.6537 15.9735 11.6537H18.0161C18.641 11.6537 19.1451 12.1578 19.1451 12.7827V14.8253ZM25.4674 27.1681C25.4674 27.793 24.9633 28.2971 24.3384 28.2971H22.2958C21.6709 28.2971 21.1668 27.793 21.1668 27.1681V25.1255C21.1668 24.5006 21.6709 23.9965 22.2958 23.9965H24.3384C24.9633 23.9965 25.4674 24.5006 25.4674 25.1255V27.1681ZM25.4674 20.9968C25.4674 21.6217 24.9633 22.1258 24.3384 22.1258H22.2958C21.6709 22.1258 21.1668 21.6217 21.1668 20.9968V18.9542C21.1668 18.3293 21.6709 17.8252 22.2958 17.8252H24.3384C24.9633 17.8252 25.4674 18.3293 25.4674 18.9542V20.9968ZM25.4674 14.8254C25.4674 15.4503 24.9633 15.9544 24.3384 15.9544H22.2958C21.6709 15.9544 21.1668 15.4503 21.1668 14.8254V12.7828C21.1668 12.1579 21.6709 11.6538 22.2958 11.6538H24.3384C24.9633 11.6538 25.4674 12.1579 25.4674 12.7828V14.8254ZM31.7894 27.1682C31.7894 27.7931 31.2853 28.2973 30.6604 28.2973H28.6178C27.9929 28.2973 27.4888 27.7931 27.4888 27.1682V25.1257C27.4888 24.5008 27.9929 23.9966 28.6178 23.9966H30.6604C31.2853 23.9966 31.7894 24.5008 31.7894 25.1257V27.1682ZM31.7894 20.9969C31.7894 21.6218 31.2853 22.1259 30.6604 22.1259H28.6178C27.9929 22.1259 27.4888 21.6218 27.4888 20.9969V18.9543C27.4888 18.3294 27.9929 17.8253 28.6178 17.8253H30.6604C31.2853 17.8253 31.7894 18.3294 31.7894 18.9543V20.9969ZM31.7894 14.8255C31.7894 15.4505 31.2853 15.9546 30.6604 15.9546H28.6178C27.9929 15.9546 27.4888 15.4505 27.4888 14.8255V12.783C27.4888 12.1581 27.9929 11.654 28.6178 11.654H30.6604C31.2853 11.654 31.7894 12.1581 31.7894 12.783V14.8255Z" fill="#00638C"/>
<path d="M31.7836 3.3291H29.0795V4.68376C29.0795 5.78638 28.1869 6.67903 27.0843 6.67903C25.9816 6.67903 25.089 5.78638 25.089 4.68376V3.3291H8.91606V4.68376C8.91606 5.78638 8.02341 6.67903 6.92079 6.67903C5.81817 6.67903 4.92552 5.78638 4.92552 4.68376V3.3291H2.21594C0.997793 3.3291 0 4.3216 0 5.54504V8.62201C0 8.73235 0.089163 8.82152 0.199501 8.82152H33.8053C33.9156 8.82152 33.9995 8.73235 33.9995 8.62201V5.54504C33.9998 4.3216 33.0073 3.3291 31.7839 3.3291" fill="#00638C"/>
<path d="M6.92132 6.28542C7.80351 6.28542 8.5228 5.56613 8.5228 4.68394V1.60149C8.5228 1.16039 8.34422 0.756146 8.05032 0.467246C7.7614 0.178333 7.3624 0 6.9213 0C6.03911 0 5.31982 0.714058 5.31982 1.60148V4.68368C5.31982 5.56613 6.03911 6.28541 6.9213 6.28541" fill="#00638C"/>
<path d="M27.0844 6.28542C27.9666 6.28542 28.6859 5.56613 28.6859 4.68394V1.60149C28.6859 1.16039 28.5073 0.756146 28.2134 0.467246C27.9245 0.178333 27.5255 0 27.0844 0C26.2022 0 25.4829 0.714058 25.4829 1.60148V4.68368C25.4829 5.56613 26.2022 6.28541 27.0844 6.28541" fill="#00638C"/>
</svg>
