<svg width="41" height="36" viewBox="0 0 41 36" fill="none" xmlns="http://www.w3.org/2000/svg">
<path d="M0.84668 12.7186V5.93278C0.84668 5.48415 1.02494 5.05039 1.34284 4.73249C1.66074 4.41459 2.09153 4.23633 2.54313 4.23633H38.1567C38.6053 4.23633 39.0391 4.41459 39.357 4.73249C39.6749 5.05039 39.8531 5.48118 39.8531 5.93278V12.7156H0.84668V12.7186Z" fill="#9FEAFF"/>
<path d="M0.84668 8.47938V5.9362C0.84668 5.48757 1.02494 5.0538 1.34284 4.73591C1.66074 4.41801 2.09153 4.23975 2.54313 4.23975H38.1567C38.6053 4.23975 39.0391 4.41801 39.357 4.73591C39.6749 5.0538 39.8531 5.4846 39.8531 5.9362V8.47938H0.84668Z" fill="#DFF9FF"/>
<path d="M0.84668 12.7188H39.8531V32.8117C39.8531 33.2603 39.6749 33.6941 39.357 34.012C39.0391 34.3299 38.6083 34.5082 38.1567 34.5082H2.54313C2.09451 34.5082 1.66074 34.3299 1.34284 34.012C1.02494 33.6941 0.84668 33.2633 0.84668 32.8117V12.7188Z" fill="white"/>
<path d="M38.1597 3.3929H32.2236V0.846739C32.2236 0.377319 31.8433 0 31.3769 0C30.9104 0 30.5301 0.38029 30.5301 0.846739V3.38993H10.1787V0.846739C10.1757 0.38029 9.79543 0 9.32899 0C8.86254 0 8.48225 0.38029 8.48225 0.846739V3.38993H2.54319C0.677391 3.3929 0 4.91406 0 5.93609V32.8119C0 34.6777 1.52116 35.3551 2.54319 35.3551H38.1597C40.0255 35.3551 40.7029 33.8339 40.7029 32.8119V5.93609C40.7029 4.07029 39.1817 3.3929 38.1597 3.3929ZM7.99203 26.6886H1.69645V20.5475H7.99203V26.6886ZM15.7761 13.5686V19.3591H9.18044V13.5686H15.7761ZM24.7486 20.5475H31.3442V26.6886H24.7486V20.5475ZM16.9645 20.5475H23.5601V26.6886H16.9645V20.5475ZM16.9645 19.3591V13.5686H23.5601V19.3591H16.9645ZM15.7761 20.5475V26.6886H9.18044V20.5475H15.7761ZM15.7761 27.877V33.6586H9.18044V27.877H15.7761ZM16.9645 27.877H23.5601V33.6586H16.9645V27.877ZM24.7486 27.877H31.3442V33.6586H24.7486V27.877ZM24.7486 19.3591V13.5686H31.3442V19.3591H24.7486ZM32.5326 20.5475H39.0065V26.6886H32.5326V20.5475ZM32.5326 19.3591V13.5686H39.0065V19.3591H32.5326ZM1.69645 5.945C1.70536 5.55283 1.86283 5.08638 2.54319 5.08638H8.47928V9.32899C8.47928 9.79841 8.85957 10.1757 9.32601 10.1757C9.79246 10.1757 10.1728 9.79543 10.1728 9.32899V5.08935H30.5242V9.32899C30.5242 9.79841 30.9045 10.1757 31.3709 10.1757C31.8374 10.1757 32.2177 9.79543 32.2177 9.32899V5.08935H38.1538C38.4093 5.08935 39.0005 5.17254 39.0005 5.93609V11.8722H1.69645V5.945ZM7.99203 13.5686V19.3591H1.69645V13.5686H7.99203ZM1.69645 32.8119V27.877H7.99203V33.6586H2.5521C2.1629 33.6497 1.69645 33.4952 1.69645 32.8119ZM38.1597 33.6586H32.5326V27.877H39.0065V32.8119C39.0065 33.0674 38.9233 33.6586 38.1597 33.6586Z" fill="#00638C"/>
</svg>
