<svg width="113" height="106" viewBox="0 0 113 106" fill="none" xmlns="http://www.w3.org/2000/svg">
<path d="M103.071 46.8467C101.21 46.8467 99.422 47.5847 98.1017 48.905C96.7815 50.2252 96.0434 52.0129 96.0434 53.8744V71.4397V71.4889C95.9368 70.103 95.3874 68.7827 94.4772 67.7249C93.5669 66.667 92.345 65.929 90.992 65.6092C89.6307 65.2894 88.2121 65.4206 86.9328 65.9618C85.6535 66.5112 84.5793 67.4543 83.8658 68.6515L78.5192 76.6715C76.2067 80.1403 74.9684 84.2159 74.9766 88.3817V103.06H96.0598L105.498 91.2682C108.492 87.5289 110.115 82.8874 110.115 78.0984V53.8744C110.115 52.9478 109.935 52.0375 109.582 51.1847C109.23 50.3318 108.713 49.561 108.057 48.905C107.401 48.2489 106.63 47.7323 105.777 47.3797C104.908 47.0271 103.99 46.8467 103.071 46.8467Z" fill="#DFF9FF"/>
<path d="M33.9332 76.6715L28.5783 68.6515C27.8649 67.4543 26.7906 66.5112 25.5113 65.9618C24.2321 65.4124 22.8052 65.2894 21.4521 65.6092C20.0909 65.929 18.8772 66.667 17.967 67.7249C17.0567 68.7827 16.5073 70.103 16.4007 71.4889V71.4397V53.8744C16.4007 52.0129 15.6627 50.2252 14.3424 48.905C13.0221 47.5847 11.2344 46.8467 9.37296 46.8467C7.51147 46.8467 5.72378 47.5847 4.40352 48.905C3.08325 50.2252 2.34521 52.0129 2.34521 53.8744V78.1066C2.34521 82.8956 3.97709 87.5371 6.96204 91.2764L16.4007 103.069H37.4757V88.3735C37.4839 84.2077 36.2457 80.1321 33.9332 76.6715Z" fill="#DFF9FF"/>
<path d="M58.5838 49.1917L36.6067 25.3941C34.6797 23.3932 33.4086 20.8101 32.9658 18.0055C32.5311 15.2092 32.9494 12.3391 34.1712 9.80514C35.0897 7.89445 36.4345 6.23797 38.0992 4.9669C39.7557 3.70404 41.6828 2.8594 43.7165 2.51498C45.7502 2.17057 47.8331 2.33458 49.793 2.99061C51.7529 3.64664 53.5324 4.77829 54.992 6.29537L58.5756 10.0184L62.1592 6.29537C63.6189 4.78649 65.3983 3.65484 67.3582 2.99061C69.3181 2.33458 71.401 2.17057 73.4265 2.51498C75.4602 2.8594 77.3791 3.69584 79.0438 4.9669C80.7003 6.22977 82.0452 7.89445 82.9718 9.80514C84.1937 12.3391 84.6119 15.2092 84.1773 18.0055C83.7426 20.8019 82.4716 23.385 80.5445 25.3941L58.5838 49.1917Z" fill="#9FEAFF"/>
<path d="M83.0044 9.98584C82.0859 8.04235 80.7328 6.35306 79.0764 5.0574C77.4199 3.76994 75.4928 2.9171 73.4591 2.56448C71.4254 2.21186 69.3425 2.38407 67.3826 3.0483C65.4227 3.72073 63.6432 4.86879 62.1835 6.41047L58.5918 10.2073L55 6.41047C52.9909 4.26196 50.3668 2.86789 47.5294 2.45787C44.7003 2.04785 41.8137 2.63828 39.329 4.13895C36.8443 5.63963 34.9008 7.96034 33.7938 10.7485C32.6867 13.5366 32.4899 16.6282 33.2197 19.5557C36.5901 23.1803 40.6493 26.0176 45.1185 27.8873C49.5959 29.757 54.385 30.618 59.1904 30.413C63.9958 30.208 68.7111 28.937 73.0245 26.6983C77.3379 24.4513 81.1675 21.2778 84.2508 17.3744C84.505 14.8405 84.0704 12.282 83.0044 9.98584Z" fill="#DFF9FF"/>
<path d="M35.8768 75.3596L30.5547 67.397C29.9397 66.3801 29.136 65.5109 28.1684 64.8139C27.1843 64.1004 26.0855 63.6084 24.9046 63.346C23.7238 63.0754 22.5183 63.059 21.3292 63.2804C20.419 63.4526 19.5498 63.756 18.7379 64.1906V53.8745C18.7379 51.3734 17.7621 49.0199 15.9908 47.2486C14.2195 45.4773 11.866 44.5015 9.36486 44.5015C6.86374 44.5015 4.51022 45.4773 2.73893 47.2486C0.975847 49.0199 0 51.3734 0 53.8745V78.0985C0 83.396 1.82049 88.595 5.13345 92.7362L14.5721 104.528C15.0313 105.111 15.712 105.406 16.4008 105.406C16.9174 105.406 17.4341 105.242 17.8605 104.889C18.8691 104.077 19.0331 102.609 18.2295 101.593L8.79083 89.8005C6.1421 86.4875 4.68243 82.3299 4.68243 78.0903V53.8745C4.68243 52.6199 5.16625 51.4472 6.0519 50.5616C6.93754 49.6759 8.1102 49.1921 9.36486 49.1921C10.6195 49.1921 11.7922 49.6759 12.6778 50.5616C13.5635 51.4472 14.0473 52.6199 14.0473 53.8745V71.4398C14.0473 71.4972 14.0637 71.5546 14.0637 71.6038C13.9981 73.1127 14.3015 74.6215 14.9903 75.9992C15.0149 76.0566 15.0477 76.1058 15.0805 76.155L21.4112 86.6925C22.0755 87.7996 23.5187 88.1604 24.6258 87.4962C25.7329 86.8319 26.0937 85.3887 25.4294 84.2816L19.1479 73.8261C18.7215 72.924 18.6231 71.899 18.8773 70.9314C19.1397 69.9391 19.7548 69.0781 20.6076 68.504C21.0832 68.1842 21.6163 67.971 22.1821 67.8644C22.7479 67.7578 23.3219 67.7742 23.8796 67.8972C24.4372 68.0202 24.962 68.258 25.4212 68.5942C25.8887 68.9305 26.2741 69.3487 26.5693 69.8407C26.5857 69.8735 26.6103 69.9063 26.6349 69.9391L31.9816 77.9591C34.0481 81.0506 35.1387 84.6506 35.1305 88.3736V103.069C35.1305 104.364 36.1802 105.414 37.4758 105.414C38.7715 105.414 39.8211 104.364 39.8211 103.069V88.3818C39.8293 83.724 38.4599 79.222 35.8768 75.3596Z" fill="#00638C"/>
<path d="M109.697 47.2486C107.926 45.4773 105.572 44.5015 103.071 44.5015C100.57 44.5015 98.2165 45.4773 96.4452 47.2486C94.6739 49.0199 93.6981 51.3734 93.6981 53.8745V64.1824C92.8862 63.7478 92.017 63.4362 91.1067 63.2722C89.9177 63.0508 88.7122 63.0754 87.5314 63.3378C86.3505 63.6002 85.2517 64.1004 84.2758 64.8057C83.3082 65.5027 82.5045 66.3719 81.8895 67.3888L76.5674 75.3514C73.9843 79.2138 72.623 83.7158 72.623 88.3654V103.061C72.623 104.356 73.6727 105.406 74.9684 105.406C76.264 105.406 77.3137 104.356 77.3137 103.061V88.3654C77.3137 84.6424 78.4043 81.0506 80.4626 77.9591L85.8175 69.9473C85.8421 69.9145 85.8585 69.8817 85.8831 69.8489C86.1783 69.3569 86.5637 68.9387 87.0311 68.6024C87.4986 68.2662 88.0152 68.0284 88.5728 67.9054C89.1305 67.7824 89.7045 67.766 90.2703 67.8726C90.8361 67.9792 91.361 68.1924 91.8366 68.5122C92.6894 69.0863 93.3127 69.9473 93.5751 70.9396C93.8293 71.9072 93.7391 72.9323 93.3045 73.8343L87.0148 84.2898C86.3505 85.3969 86.7031 86.8401 87.8184 87.5044C88.9254 88.1686 90.3687 87.816 91.0329 86.7007L97.3719 76.1632C97.4047 76.114 97.4293 76.0566 97.4621 76.0074C98.1509 74.6297 98.4543 73.1127 98.3805 71.5956C98.3805 71.5464 98.3969 71.4972 98.3969 71.448V53.8745C98.3969 52.6199 98.8807 51.4472 99.7664 50.5616C100.652 49.6759 101.825 49.1921 103.079 49.1921C104.334 49.1921 105.507 49.6759 106.392 50.5616C107.278 51.4472 107.762 52.6199 107.762 53.8745V78.0985C107.762 82.3381 106.302 86.4957 103.653 89.8087L94.2147 101.601C93.4029 102.61 93.5669 104.086 94.5837 104.889C95.0183 105.234 95.535 105.406 96.0434 105.406C96.7322 105.406 97.4129 105.102 97.8721 104.528L107.311 92.7362C110.624 88.595 112.444 83.396 112.444 78.0985V53.8745C112.436 51.3734 111.468 49.0199 109.697 47.2486Z" fill="#00638C"/>
<path d="M58.5838 51.5292C57.9277 51.5292 57.3045 51.2586 56.8617 50.7748L34.8846 26.9772C32.6377 24.6483 31.1616 21.6552 30.6532 18.3668C30.1366 15.0784 30.6286 11.7655 32.0637 8.78873C33.1379 6.55822 34.737 4.59012 36.6805 3.10585C38.6322 1.61338 40.9365 0.61293 43.331 0.211111C45.7337 -0.190709 48.2266 0.00610059 50.5392 0.776938C52.8435 1.54778 54.9674 2.90084 56.6813 4.67213L58.5756 6.64842L60.478 4.67213C62.1837 2.89264 64.3076 1.54778 66.6201 0.776938C68.9163 -0.00209975 71.4092 -0.198909 73.8037 0.20291C76.1982 0.60473 78.5025 1.60518 80.4542 3.09765C82.3977 4.58192 83.9886 6.55002 85.071 8.78053C86.5061 11.7573 86.9899 15.0702 86.4815 18.3586C85.9649 21.6552 84.497 24.6483 82.2173 27.01L60.3058 50.7748C59.863 51.2586 59.2398 51.5292 58.5838 51.5292ZM45.7829 4.68033C45.2171 4.68033 44.6513 4.72953 44.1018 4.81974C42.4536 5.09855 40.8709 5.78738 39.5178 6.82063C38.1566 7.86208 37.0413 9.23975 36.2787 10.8142C35.2536 12.9381 34.9092 15.2916 35.2782 17.637C35.6472 19.9741 36.6887 22.0898 38.2878 23.7627L58.5756 45.7315L78.8059 23.7955C80.446 22.0898 81.4875 19.9741 81.8483 17.637C82.2173 15.2916 81.8647 12.9299 80.8478 10.8142C80.0934 9.23975 78.9699 7.86208 77.6087 6.82063C76.2556 5.78738 74.6729 5.09855 73.0247 4.81974C71.3764 4.54092 69.6707 4.67213 68.088 5.20515C66.4889 5.73818 65.0211 6.67303 63.832 7.91129L60.2402 11.6343C59.7974 12.0935 59.1906 12.3559 58.551 12.3559C57.9113 12.3559 57.3045 12.0935 56.8617 11.6343L53.2781 7.91129C52.089 6.67303 50.6212 5.73818 49.0303 5.20515C47.9888 4.86074 46.8818 4.68033 45.7829 4.68033Z" fill="#00638C"/>
</svg>
