<svg width="127" height="103" viewBox="0 0 127 103" fill="none" xmlns="http://www.w3.org/2000/svg">
<path d="M86.2178 18.2402C86.2172 21.7309 84.8367 25.0799 82.3773 27.557C76.7153 33.2655 71.2215 39.2176 65.3449 44.7172C64.6888 45.3149 63.8282 45.6379 62.9409 45.6195C62.0535 45.6012 61.2071 45.2429 60.5762 44.6185L43.6482 27.5628C41.1861 25.0848 39.8042 21.7334 39.8042 18.2402C39.8042 14.747 41.1861 11.3956 43.6482 8.91762C44.876 7.68069 46.3365 6.69897 47.9455 6.02904C49.5545 5.35911 51.2801 5.01421 53.023 5.01421C54.7659 5.01421 56.4915 5.35911 58.1005 6.02904C59.7095 6.69897 61.17 7.68069 62.3978 8.91762L63.0127 9.53836L63.6277 8.91762C65.4707 7.05464 67.8265 5.78223 70.395 5.26239C72.9635 4.74255 75.6286 4.99879 78.0511 5.99849C80.4735 6.99819 82.5436 8.69613 83.998 10.8761C85.4523 13.0562 86.225 15.6196 86.2178 18.2402Z" stroke="#00638C" stroke-width="10" stroke-linejoin="round"/>
<path d="M97.8198 97.8333L120.004 75.6493C120.657 74.9972 121.024 74.1124 121.025 73.1896V42.7214C121.025 40.4135 120.108 38.2002 118.476 36.5683C116.844 34.9363 114.631 34.0195 112.323 34.0195C110.015 34.0195 107.802 34.9363 106.17 36.5683C104.538 38.2002 103.621 40.4135 103.621 42.7214V68.827" stroke="#00638C" stroke-width="10" stroke-linecap="round" stroke-linejoin="round"/>
<path d="M97.82 74.6283L102.798 69.6508C103.06 69.3905 103.268 69.0804 103.41 68.7388C103.551 68.3971 103.623 68.0307 103.621 67.661C103.617 67.14 103.47 66.6302 103.196 66.1872C102.922 65.7442 102.531 65.3851 102.067 65.1491L99.4966 63.867C97.3193 62.7783 94.8548 62.4021 92.4519 62.7915C90.049 63.1808 87.8294 64.3161 86.1073 66.0366L80.9152 71.2288C78.7391 73.4041 77.5163 76.3548 77.5157 79.4317V97.8333M28.205 97.8333L6.02102 75.6493C5.36807 74.9972 5.00081 74.1124 5 73.1896V42.7214C5 40.4135 5.9168 38.2002 7.54872 36.5683C9.18064 34.9363 11.394 34.0195 13.7019 34.0195C16.0098 34.0195 18.2231 34.9363 19.855 36.5683C21.487 38.2002 22.4038 40.4135 22.4038 42.7214V68.827" stroke="#00638C" stroke-width="10" stroke-linecap="round" stroke-linejoin="round"/>
<path d="M28.2051 74.6283L23.2276 69.6509C22.7078 69.1179 22.4129 68.4054 22.4038 67.661C22.4038 66.5994 23.0071 65.6306 23.9585 65.1491L26.5285 63.867C28.7058 62.7784 31.1703 62.4021 33.5732 62.7915C35.9761 63.1809 38.1957 64.3162 39.9178 66.0367L45.1099 71.2288C47.286 73.4042 48.5088 76.3548 48.5094 79.4318V97.8333" stroke="#00638C" stroke-width="10" stroke-linecap="round" stroke-linejoin="round"/>
</svg>
