<svg width="41" height="38" viewBox="0 0 41 38" fill="none" xmlns="http://www.w3.org/2000/svg">
<path d="M34.7672 26.7318L27.2684 29.2244H27.2506C27.4051 28.9422 27.4734 28.6213 27.4526 28.2975C27.4318 27.9766 27.3189 27.6676 27.1288 27.4062C26.9386 27.1447 26.6801 26.9427 26.3801 26.8239C26.08 26.705 25.7532 26.6723 25.4383 26.7288H20.3519C18.3405 24.658 15.6072 23.4429 12.7193 23.3389L0.847168 26.7318V36.9075L7.62999 32.6679C25.8245 38.7347 19.113 38.7941 39.8536 28.4282C39.2802 27.6587 38.4869 27.0823 37.5778 26.7793C36.6687 26.4763 35.6883 26.4584 34.7672 26.7318Z" fill="#DFF9FF"/>
<path d="M40.5371 27.9198C39.8567 27.0047 38.9268 26.3333 37.8483 25.9708C36.7698 25.6113 35.6201 25.5905 34.503 25.9233L28.2252 28.0119C28.044 26.6512 27.0517 25.8817 25.4414 25.8817H20.7026C18.4862 23.7217 15.5954 22.4888 12.7195 22.4888C11.3201 22.4888 2.36847 25.3499 0.588832 25.9203C0.14318 26.0629 -0.100443 26.5412 0.0421653 26.9869C0.184774 27.4325 0.663107 27.6791 1.10876 27.5336C6.20999 25.8906 11.947 24.1882 12.7195 24.1822C15.2151 24.1822 17.8415 25.3528 19.743 27.3167C19.9034 27.4801 20.1233 27.5751 20.352 27.5751H25.4414C26.4812 27.5751 26.5644 27.9495 26.5644 28.4813C26.5644 29.0042 26.1871 29.2716 25.4414 29.2716H16.1124C15.643 29.2716 15.2656 29.6519 15.2656 30.1183C15.2656 30.5848 15.6459 30.9651 16.1124 30.9651H25.4414C26.4842 30.9651 27.3161 30.5818 27.7974 29.9371L35.011 27.5395C35.7686 27.3137 36.5648 27.3286 37.3135 27.5781C37.7265 27.7148 38.1098 27.9198 38.4485 28.1812C35.1506 29.848 32.5985 31.2206 30.5099 32.3436C26.2822 34.6194 24.1609 35.7603 22.1257 35.9326C20.0965 36.1049 17.892 35.3295 13.5038 33.7846C11.9114 33.223 10.105 32.5902 7.90347 31.8564C7.66282 31.7762 7.40137 31.8088 7.18448 31.9425L0.398687 36.1881C0.000571139 36.4347 -0.118269 36.9606 0.128325 37.3557C0.28876 37.6142 0.565064 37.7538 0.84731 37.7538C1.0018 37.7538 1.1563 37.7122 1.29593 37.6261L7.74006 33.5974C9.75738 34.2748 11.439 34.866 12.9334 35.3919C22.2178 38.657 22.3901 38.6422 31.3062 33.844C33.5968 32.611 36.449 31.078 40.2311 29.1854C40.4539 29.0725 40.6173 28.8675 40.6767 28.6239C40.7361 28.3803 40.6856 28.1218 40.5371 27.9198Z" fill="#00638C"/>
<path d="M24.8085 17.8214L16.8462 9.19651C16.148 8.47158 15.6875 7.53571 15.5271 6.51963C15.3666 5.50354 15.5211 4.46666 15.9638 3.54861C16.2966 2.85637 16.7838 2.25622 17.3869 1.79571C17.9901 1.33521 18.6853 1.03216 19.4221 0.90738C20.1589 0.782598 20.9135 0.842018 21.6236 1.0797C22.3337 1.31738 22.9784 1.72738 23.5072 2.27702L24.8056 3.62586L26.1039 2.27702C26.6327 1.73035 27.2774 1.32035 27.9875 1.0797C28.6976 0.842018 29.4522 0.782598 30.1861 0.90738C30.9229 1.03216 31.6181 1.33521 32.2212 1.79571C32.8214 2.25325 33.3086 2.85637 33.6443 3.54861C34.087 4.46666 34.2385 5.50651 34.0811 6.51963C33.9236 7.53274 33.4631 8.46861 32.7649 9.19651L24.8085 17.8214Z" fill="#9FEAFF"/>
<path d="M33.6565 3.61709C33.3237 2.91296 32.8335 2.30093 32.2334 1.83151C31.6332 1.36506 30.935 1.05607 30.1982 0.928319C29.4614 0.800566 28.7068 0.862957 27.9967 1.10361C27.2866 1.34723 26.6419 1.76317 26.1131 2.32173L24.8118 3.6973L23.5105 2.32173C22.7826 1.54332 21.8318 1.03825 20.8039 0.889696C19.7789 0.741146 18.7331 0.955059 17.8329 1.49875C16.9326 2.04245 16.2285 2.88325 15.8274 3.89339C15.4263 4.90354 15.355 6.02361 15.6195 7.08426C16.8405 8.39745 18.3112 9.42542 19.9304 10.1028C21.5526 10.7802 23.2876 11.0922 25.0287 11.0179C26.7697 10.9436 28.478 10.4831 30.0408 9.67202C31.6035 8.85796 32.991 7.70817 34.1081 6.29397C34.2031 5.37593 34.0427 4.44897 33.6565 3.61709Z" fill="#DFF9FF"/>
<path d="M24.8117 18.6682C24.5741 18.6682 24.3483 18.5702 24.1878 18.3949L16.2225 9.77302C15.4085 8.92925 14.8737 7.84483 14.6895 6.65345C14.5023 5.46208 14.6806 4.26179 15.2005 3.18331C15.5897 2.37519 16.1691 1.66215 16.8732 1.12439C17.5803 0.58367 18.4151 0.221206 19.2827 0.0756263C20.1532 -0.0699534 21.0564 0.00135097 21.8942 0.280626C22.7291 0.559902 23.4986 1.05012 24.1195 1.69186L24.8058 2.40787L25.4921 1.69186C26.1101 1.04715 26.8796 0.559902 27.7174 0.280626C28.5552 -0.00162004 29.4584 -0.0729244 30.3289 0.0756263C31.1965 0.221206 32.0313 0.58367 32.7384 1.12439C33.4425 1.66215 34.0189 2.37519 34.4111 3.18331C34.931 4.26179 35.1063 5.46208 34.9221 6.65345C34.7349 7.8478 34.2031 8.93222 33.3772 9.78787L25.4357 18.3949C25.2722 18.5702 25.0465 18.6682 24.8117 18.6682ZM20.171 1.69483C19.966 1.69483 19.761 1.71266 19.562 1.74534C18.9648 1.84635 18.3914 2.09592 17.9012 2.47026C17.408 2.84758 17.0039 3.34671 16.7276 3.91715C16.3562 4.68664 16.2315 5.53932 16.3651 6.38903C16.4988 7.23577 16.8762 8.00229 17.4555 8.60838L24.8088 16.5677L32.1353 8.62026C32.7295 8.00229 33.1068 7.23577 33.2375 6.38903C33.3712 5.53932 33.2435 4.68367 32.8751 3.91715C32.6017 3.34671 32.1947 2.84758 31.7015 2.47026C31.2113 2.09592 30.6379 1.84635 30.0407 1.74534C29.4436 1.64432 28.8256 1.69186 28.2522 1.88497C27.6728 2.07809 27.141 2.41679 26.7102 2.86541L25.4089 4.21425C25.2485 4.38063 25.0286 4.4757 24.7969 4.4757C24.5651 4.4757 24.3453 4.38063 24.1849 4.21425L22.8865 2.86541C22.4557 2.41679 21.9239 2.07809 21.3475 1.88497C20.9702 1.76019 20.5721 1.69483 20.171 1.69483Z" fill="#00638C"/>
</svg>
