<svg width="34" height="31" viewBox="0 0 34 31" fill="none" xmlns="http://www.w3.org/2000/svg">
<path d="M0 13.95H6.47311V31H0V13.95ZM24.2742 1.9375C25.326 0.7595 26.9605 0 28.6435 0C31.6373 0 33.9838 2.2475 33.9838 5.115C33.9838 8.6335 29.2746 12.71 24.2742 17.05C19.2737 12.6945 14.5645 8.618 14.5645 5.115C14.5645 2.2475 16.911 0 19.9048 0C21.5878 0 23.2223 0.7595 24.2742 1.9375ZM30.7473 23.25H19.4193L16.0371 22.1185L16.5712 20.6615L19.4193 21.7H23.9829C25.0347 21.7 25.8924 20.8785 25.8924 19.871C25.8924 19.1115 25.3908 18.4295 24.6464 18.1505L12.8977 13.95H9.70966V27.931L21.0376 31L34 26.35C33.9838 24.645 32.5435 23.25 30.7473 23.25Z" fill="#00638C"/>
</svg>
