<svg width="34" height="33" viewBox="0 0 34 33" fill="none" xmlns="http://www.w3.org/2000/svg">
<path d="M16.875 0C12.3973 0 11.8343 0.020625 10.0749 0.099C8.31563 0.1815 7.11731 0.457875 6.0675 0.86625C4.9658 1.27942 3.96817 1.92926 3.14494 2.76994C2.30426 3.59317 1.65442 4.5908 1.24125 5.6925C0.832875 6.74025 0.554438 7.94062 0.474 9.69375C0.395625 11.4572 0.375 12.0182 0.375 16.5021C0.375 20.9818 0.395625 21.5428 0.474 23.3021C0.5565 25.0594 0.832875 26.2577 1.24125 27.3075C1.66406 28.3924 2.22713 29.3123 3.14494 30.2301C4.06069 31.1479 4.98056 31.713 6.06544 32.1338C7.11731 32.5421 8.31356 32.8206 10.0708 32.901C11.8322 32.9794 12.3932 33 16.875 33C21.3568 33 21.9158 32.9794 23.6771 32.901C25.4323 32.8185 26.6348 32.5421 27.6846 32.1338C28.7855 31.7203 29.7824 31.0705 30.6051 30.2301C31.5229 29.3123 32.0859 28.3924 32.5088 27.3075C32.9151 26.2577 33.1935 25.0594 33.276 23.3021C33.3544 21.5428 33.375 20.9818 33.375 16.5C33.375 12.0182 33.3544 11.4572 33.276 9.69581C33.1935 7.94063 32.9151 6.74025 32.5088 5.6925C32.0956 4.5908 31.4457 3.59317 30.6051 2.76994C29.7818 1.92926 28.7842 1.27942 27.6825 0.86625C26.6306 0.457875 25.4303 0.179438 23.6751 0.099C21.9137 0.020625 21.3547 0 16.8709 0H16.875ZM15.3962 2.97413H16.8771C21.2826 2.97413 21.8044 2.98856 23.5431 3.069C25.1518 3.14119 26.0263 3.41138 26.6079 3.63619C27.3772 3.93525 27.9279 4.29413 28.5054 4.87162C29.0829 5.44912 29.4398 5.99775 29.7388 6.76912C29.9657 7.34869 30.2338 8.22319 30.306 9.83194C30.3864 11.5706 30.4029 12.0924 30.4029 16.4959C30.4029 20.8993 30.3864 21.4232 30.306 23.1619C30.2338 24.7706 29.9636 25.6431 29.7388 26.2247C29.4724 26.9402 29.0504 27.5876 28.5034 28.1201C27.9259 28.6976 27.3773 29.0544 26.6059 29.3535C26.0284 29.5804 25.1539 29.8485 23.5431 29.9228C21.8044 30.0011 21.2826 30.0197 16.8771 30.0197C12.4716 30.0197 11.9477 30.0011 10.209 29.9228C8.60025 29.8485 7.72781 29.5804 7.14619 29.3535C6.43016 29.088 5.78205 28.6667 5.24869 28.1201C4.70063 27.5872 4.27793 26.939 4.01119 26.2226C3.78638 25.6431 3.51619 24.7686 3.444 23.1598C3.36562 21.4211 3.34913 20.8993 3.34913 16.4917C3.34913 12.0842 3.36562 11.5665 3.444 9.82781C3.51825 8.21906 3.78638 7.34456 4.01325 6.76294C4.31231 5.99363 4.67119 5.44294 5.24869 4.86544C5.82619 4.28794 6.37481 3.93113 7.14619 3.63206C7.72781 3.40519 8.60025 3.13706 10.209 3.06281C11.7311 2.99269 12.321 2.97206 15.3962 2.97V2.97413ZM25.6839 5.71312C25.4239 5.71312 25.1664 5.76434 24.9262 5.86384C24.686 5.96335 24.4677 6.10919 24.2839 6.29305C24.1 6.47691 23.9542 6.69519 23.8547 6.93541C23.7551 7.17564 23.7039 7.43311 23.7039 7.69313C23.7039 7.95314 23.7551 8.21061 23.8547 8.45084C23.9542 8.69106 24.1 8.90934 24.2839 9.0932C24.4677 9.27706 24.686 9.4229 24.9262 9.52241C25.1664 9.62191 25.4239 9.67313 25.6839 9.67313C26.2091 9.67313 26.7127 9.46452 27.084 9.0932C27.4553 8.72188 27.6639 8.21825 27.6639 7.69313C27.6639 7.168 27.4553 6.66438 27.084 6.29305C26.7127 5.92173 26.2091 5.71312 25.6839 5.71312ZM16.8771 8.02725C15.7531 8.00972 14.637 8.21594 13.5935 8.63392C12.5501 9.05189 11.6002 9.67327 10.7992 10.4619C9.99818 11.2505 9.36206 12.1905 8.92786 13.2273C8.49366 14.2642 8.27004 15.377 8.27004 16.501C8.27004 17.6251 8.49366 18.7379 8.92786 19.7747C9.36206 20.8115 9.99818 21.7516 10.7992 22.5402C11.6002 23.3288 12.5501 23.9502 13.5935 24.3681C14.637 24.7861 15.7531 24.9923 16.8771 24.9748C19.1016 24.9401 21.2232 24.0321 22.784 22.4467C24.3448 20.8613 25.2197 18.7258 25.2197 16.501C25.2197 14.2763 24.3448 12.1407 22.784 10.5554C21.2232 8.96999 19.1016 8.06196 16.8771 8.02725ZM16.8771 10.9993C17.5994 10.9993 18.3147 11.1416 18.9821 11.418C19.6495 11.6945 20.2558 12.0996 20.7666 12.6104C21.2774 13.1212 21.6826 13.7276 21.959 14.395C22.2355 15.0624 22.3778 15.7776 22.3778 16.5C22.3778 17.2224 22.2355 17.9376 21.959 18.605C21.6826 19.2724 21.2774 19.8788 20.7666 20.3896C20.2558 20.9004 19.6495 21.3055 18.9821 21.582C18.3147 21.8584 17.5994 22.0007 16.8771 22.0007C15.4182 22.0007 14.0191 21.4212 12.9875 20.3896C11.9559 19.358 11.3764 17.9589 11.3764 16.5C11.3764 15.0411 11.9559 13.642 12.9875 12.6104C14.0191 11.5788 15.4182 10.9993 16.8771 10.9993Z" fill="white"/>
</svg>
