<svg width="41" height="41" viewBox="0 0 41 41" fill="none" xmlns="http://www.w3.org/2000/svg">
<mask id="mask0_3987_450" style="mask-type:luminance" maskUnits="userSpaceOnUse" x="0" y="0" width="41" height="41">
<path d="M40.6138 0H0V40.6138H40.6138V0Z" fill="white"/>
</mask>
<g mask="url(#mask0_3987_450)">
<path d="M1.69336 20.3068C1.69336 25.2446 3.65423 29.9774 7.14517 33.4684C10.6361 36.9593 15.3719 38.9202 20.3068 38.9202C25.2446 38.9202 29.9774 36.9593 33.4684 33.4684C36.9593 29.9774 38.9202 25.2416 38.9202 20.3068C38.9202 15.3689 36.9593 10.6361 33.4684 7.14517C29.9774 3.65423 25.2446 1.69336 20.3068 1.69336C15.3689 1.69336 10.6361 3.65423 7.14517 7.14517C3.65423 10.6361 1.69336 15.3689 1.69336 20.3068Z" fill="#DFF9FF"/>
<path d="M20.3068 33.8457C24.8049 33.8457 29.1515 32.2205 32.5414 29.2644C35.9313 26.3082 38.1388 22.2261 38.7508 17.7695C39.0925 20.2949 38.9142 22.8648 38.225 25.3189C37.5357 27.7729 36.3473 30.0576 34.737 32.0334C33.1267 34.0091 31.1272 35.6342 28.8633 36.8048C26.5994 37.9754 24.1186 38.6706 21.5784 38.8459C19.0352 39.0212 16.4831 38.6706 14.0825 37.8179C11.6789 36.9653 9.47742 35.6283 7.61459 33.8903C5.74879 32.1522 4.26329 30.0487 3.24423 27.7135C2.22517 25.3753 1.69633 22.8559 1.69336 20.3068C1.69336 19.4571 1.74981 18.6103 1.86271 17.7695C2.47474 22.2261 4.6822 26.3082 8.07213 29.2644C11.4621 32.2205 15.8086 33.8457 20.3068 33.8457Z" fill="#9FEAFF"/>
<path d="M20.3068 39.767C15.1075 39.767 10.2202 37.7437 6.54509 34.0686C2.86994 30.3934 0.84668 25.5061 0.84668 20.3068C0.84668 15.1075 2.86994 10.2202 6.54806 6.54509C10.2202 2.86994 15.1075 0.84668 20.3068 0.84668C25.5061 0.84668 30.3934 2.86994 34.0686 6.54509C37.7437 10.2202 39.7699 15.1075 39.7699 20.3068C39.7699 25.5061 37.7467 30.3934 34.0686 34.0686C30.3934 37.7437 25.5061 39.767 20.3068 39.767ZM20.3068 2.53719C15.5591 2.53719 11.0997 4.38516 7.7424 7.7424C4.38813 11.0997 2.53719 15.5621 2.53719 20.3068C2.53719 25.0515 4.38516 29.514 7.7424 32.8712C11.0997 36.2285 15.5591 38.0765 20.3068 38.0765C25.0545 38.0765 29.514 36.2285 32.8712 32.8712C36.2285 29.514 38.0765 25.0545 38.0765 20.3068C38.0765 15.5591 36.2285 11.0967 32.8712 7.7424C29.514 4.38813 25.0545 2.53719 20.3068 2.53719Z" fill="#00638C"/>
<path d="M30.4617 19.4601H21.1535V10.1548C21.1535 9.6884 20.7762 9.30811 20.3068 9.30811C19.8374 9.30811 19.4601 9.68542 19.4601 10.1548V19.4601H10.1548C9.6884 19.4601 9.30811 19.8374 9.30811 20.3068C9.30811 20.7762 9.68542 21.1535 10.1548 21.1535H19.4601V30.4617C19.4601 30.9282 19.8374 31.3085 20.3068 31.3085C20.7762 31.3085 21.1535 30.9311 21.1535 30.4617V21.1535H30.4617C30.9282 21.1535 31.3085 20.7762 31.3085 20.3068C31.3085 19.8374 30.9282 19.4601 30.4617 19.4601Z" fill="#00638C"/>
</g>
</svg>
