<svg width="33" height="33" viewBox="0 0 33 33" fill="none" xmlns="http://www.w3.org/2000/svg">
<circle cx="16.5" cy="16.5" r="16.5" fill="#00638C"/>
<path d="M19.077 8C19.077 7.44772 18.6293 7 18.077 7H15.2462C14.6939 7 14.2462 7.44772 14.2462 8V12.9843C14.2462 13.5366 13.7985 13.9843 13.2462 13.9843H8C7.44772 13.9843 7 14.432 7 14.9843V17.6405C7 18.1928 7.44772 18.6405 8 18.6405H13.2462C13.7985 18.6405 14.2462 19.0882 14.2462 19.6405V24.6247C14.2462 25.177 14.6939 25.6247 15.2462 25.6247H18.5C19.0523 25.6247 19.5 25.177 19.5 24.6247V19.627C19.5 19.0739 19.9491 18.6258 20.5023 18.627L25.3209 18.6382C25.874 18.6394 26.3232 18.1913 26.3232 17.6382V14.9843C26.3232 14.432 25.8754 13.9843 25.3232 13.9843H20.077C19.5247 13.9843 19.077 13.5366 19.077 12.9843V8Z" fill="#C6EAFF"/>
</svg>
