<svg width="117" height="109" viewBox="0 0 117 109" fill="none" xmlns="http://www.w3.org/2000/svg">
<path d="M58.5 0C35.4594 0 16.7143 18.8067 16.7143 41.9231C16.7143 65.0395 35.4594 83.8462 58.5 83.8462C81.5406 83.8462 100.286 65.0395 100.286 41.9231C100.286 18.8067 81.5406 0 58.5 0ZM58.5 8.38462C76.9317 8.38462 91.9286 23.4308 91.9286 41.9231C91.9286 60.4153 76.9317 75.4615 58.5 75.4615C40.0683 75.4615 25.0714 60.4153 25.0714 41.9231C25.0714 23.4308 40.0683 8.38462 58.5 8.38462ZM54.3214 16.7692V21.7581C51.3093 22.8585 48.8149 25.0472 47.3265 27.8956C46.032 30.4045 45.6422 33.2854 46.2234 36.0497C46.7373 38.4547 47.9296 40.6609 49.6581 42.4052C50.7989 43.5497 52.1569 44.4762 53.6529 45.1176C55.1488 45.759 56.7868 46.1154 58.5 46.1154C59.0989 46.1182 59.6505 46.2244 60.1547 46.434C60.6512 46.6364 61.1022 46.9366 61.4812 47.3167C61.8601 47.6969 62.1593 48.1494 62.361 48.6475C62.5699 49.1534 62.6758 49.7068 62.6786 50.3077C62.6945 51.133 62.4622 51.944 62.012 52.635C61.5618 53.3259 60.9146 53.8648 60.1547 54.1814C59.6505 54.391 59.0989 54.4972 58.5 54.5C57.9011 54.4972 57.3495 54.391 56.8453 54.1814C56.3514 53.9744 55.9017 53.6741 55.5207 53.2968C55.1342 52.9026 54.8292 52.4355 54.6234 51.9225C54.4176 51.4095 54.3149 50.8607 54.3214 50.3077H45.9643C45.9629 53.5699 47.2507 56.6996 49.5453 59.0109C50.8906 60.3798 52.5218 61.4322 54.3214 62.0923V67.0769H62.6786V62.0881C64.7864 61.3319 66.6559 60.0267 68.0951 58.3065C69.5343 56.5863 70.4915 54.5129 70.8686 52.299C71.3864 49.1552 70.6706 45.9323 68.8712 43.3065C67.9614 41.9697 66.8107 40.8152 65.4782 39.9024C64.1264 38.9786 62.6075 38.3292 61.0071 37.9907C60.1823 37.8198 59.3423 37.7327 58.5 37.7308C57.9011 37.728 57.3495 37.6218 56.8453 37.4122C56.3488 37.2098 55.8978 36.9096 55.5188 36.5294C55.1399 36.1492 54.8407 35.6967 54.639 35.1986C54.4219 34.6726 54.3138 34.1077 54.3214 33.5385C54.3242 32.9376 54.4301 32.3842 54.639 31.8783C54.8407 31.3802 55.1399 30.9277 55.5188 30.5475C55.8978 30.1673 56.3488 29.8672 56.8453 29.6648C57.3495 29.4552 57.9011 29.3489 58.5 29.3462C60.8818 29.3462 62.6786 31.1488 62.6786 33.5385H71.0357C71.0328 32.2227 70.8241 30.9156 70.4173 29.6648C69.8011 27.8489 68.7856 26.1953 67.446 24.8266C66.1064 23.4579 64.477 22.4092 62.6786 21.7581V16.7692H54.3214ZM0 75.4615V109H8.35714V83.8462H30.8379C27.2921 81.4725 24.0625 78.6549 21.2271 75.4615H0ZM95.7729 75.4615C92.9375 78.6549 89.7079 81.4725 86.1621 83.8462H108.643V109H117V75.4615H95.7729ZM16.7143 92.2308V100.615H100.286V92.2308H16.7143Z" fill="#00638C"/>
</svg>
