<svg width="120" height="110" viewBox="0 0 120 110" fill="none" xmlns="http://www.w3.org/2000/svg">
<path d="M117.143 75.0444H2.3374V107.026H117.143V75.0444Z" fill="#DFF9FF"/>
<path d="M61.6838 84.0649C69.7612 84.0731 77.6664 81.6786 84.3907 77.1929C91.115 72.7073 96.3551 66.3274 99.4548 58.865C102.555 51.4027 103.366 43.1859 101.792 35.2561C100.217 27.3263 96.3305 20.0443 90.623 14.3287C84.9155 8.61299 77.6336 4.7178 69.7038 3.13512C61.7822 1.55245 53.5654 2.35609 46.0948 5.44764C38.6243 8.53919 32.2444 13.771 27.7505 20.4872C23.2567 27.2033 20.854 35.1003 20.854 43.1859C20.854 48.5489 21.9037 53.8628 23.9538 58.824C26.0039 63.7853 29.0134 68.2873 32.802 72.0841C36.5906 75.8809 41.0926 78.8904 46.0538 80.9487C51.0069 82.9988 56.3207 84.0567 61.6838 84.0649Z" fill="#9FEAFF"/>
<path d="M61.6835 2.33108C53.6553 2.32288 45.7993 4.68459 39.1078 9.12101C32.4163 13.5574 27.1762 19.8635 24.0437 27.2603C20.9193 34.6571 20.0419 42.8083 21.518 50.697C23.0022 58.5858 26.7744 65.8678 32.3753 71.6245L90.1143 13.8854C82.5125 6.47228 72.3112 2.32288 61.6835 2.33108Z" fill="#DFF9FF"/>
<path d="M101.152 97.0624H18.3283C17.0327 97.0624 15.9912 96.0128 15.9912 94.7253C15.9912 93.4378 17.0409 92.3882 18.3283 92.3882H101.152C102.448 92.3882 103.489 93.4378 103.489 94.7253C103.489 96.0128 102.448 97.0624 101.152 97.0624Z" fill="#00638C"/>
<path d="M61.7163 86.4019C61.7081 86.4019 61.6999 86.4019 61.6835 86.4019C55.9842 86.4019 50.4244 85.2866 45.1597 83.1053C39.895 80.9158 35.1798 77.7668 31.1534 73.7322C27.127 69.6977 23.9781 64.9824 21.7968 59.7096C19.6155 54.4367 18.5166 48.8768 18.5166 43.1776C18.5248 34.6081 21.0423 26.3093 25.815 19.1832C30.5794 12.057 37.2873 6.56277 45.2089 3.28261C53.1305 0.00244586 61.7573 -0.833995 70.1709 0.838887C78.5763 2.51997 86.2191 6.61197 92.2792 12.6721C98.3393 18.7404 102.415 26.3913 104.088 34.7967C105.752 43.2022 104.9 51.8372 101.611 59.7506C98.3229 67.6639 92.8204 74.3637 85.6861 79.1281C78.5599 83.8843 70.2693 86.4019 61.7163 86.4019ZM61.6917 4.67667C56.6731 4.67667 51.6954 5.66072 46.9966 7.60422C39.9278 10.5236 33.9498 15.4274 29.7019 21.7827C25.4541 28.138 23.199 35.5348 23.199 43.1776C23.199 48.2618 24.1749 53.223 26.1184 57.9219C28.0619 62.6207 30.8664 66.8275 34.4582 70.4275C38.05 74.0275 42.2568 76.8402 46.9474 78.7837C51.6462 80.7354 56.5993 81.7194 61.6835 81.7276C61.6917 81.7276 61.6999 81.7276 61.7081 81.7276C69.3427 81.7276 76.7312 79.4889 83.0865 75.2493C89.4419 71.0097 94.3539 65.0316 97.2814 57.9711C100.209 50.9105 100.972 43.2186 99.4874 35.7152C98.0031 28.22 94.3621 21.3973 88.958 15.985C83.554 10.5728 76.7394 6.92358 69.2443 5.43111C66.7432 4.92269 64.2092 4.67667 61.6917 4.67667Z" fill="#00638C"/>
<path d="M75.1158 47.8353C73.8693 45.5474 71.852 43.7515 69.4247 42.7757L55.7136 37.2896C54.3032 36.7238 53.1223 35.6659 52.3925 34.3292C51.6626 32.9926 51.4248 31.4263 51.7119 29.9338C51.9989 28.4331 52.8107 27.0801 53.9834 26.1042C55.156 25.1366 56.6403 24.6036 58.1656 24.5954H71.647C72.9345 24.5954 73.9841 23.5457 73.9841 22.2582C73.9841 20.9708 72.9345 19.9211 71.647 19.9211H64.0207V15.6159C64.0207 14.3285 62.971 13.2788 61.6835 13.2788C60.3961 13.2788 59.3464 14.3285 59.3464 15.6159V19.9211H58.1656C55.5578 19.9211 53.0157 20.8396 51.0066 22.4961C48.9975 24.1525 47.6198 26.4815 47.1196 29.04C46.6276 31.5985 47.0376 34.2718 48.2841 36.5597C49.5305 38.8477 51.5478 40.6435 53.967 41.6194L67.678 47.1055C69.0967 47.6713 70.2694 48.7209 70.9992 50.0658C71.729 51.4025 71.9668 52.9687 71.6798 54.4612C71.3928 55.9537 70.581 57.315 69.4083 58.2908C68.2357 59.2585 66.7514 59.7915 65.2261 59.7997H51.7201C50.4326 59.7997 49.3829 60.8493 49.3829 62.1368C49.3829 63.4243 50.4326 64.4739 51.7201 64.4739H59.3464V68.7791C59.3464 70.0666 60.3961 71.1162 61.6835 71.1162C62.971 71.1162 64.0207 70.0666 64.0207 68.7791V64.4739H65.2425C67.8502 64.4739 70.3924 63.5555 72.4015 61.899C74.4106 60.2425 75.7882 57.9136 76.2884 55.3551C76.7805 52.7965 76.3623 50.1232 75.1158 47.8353Z" fill="#00638C"/>
<path d="M117.143 109.363C115.847 109.363 114.806 108.314 114.806 107.026V77.3817H99.4465C98.1508 77.3817 97.1094 76.3321 97.1094 75.0446C97.1094 73.7572 98.159 72.7075 99.4465 72.7075H117.143C118.439 72.7075 119.48 73.7572 119.48 75.0446V107.026C119.488 108.314 118.439 109.363 117.143 109.363Z" fill="#00638C"/>
<path d="M2.33711 109.363C1.04145 109.363 0 108.314 0 107.026V75.0446C0 73.749 1.04965 72.7075 2.33711 72.7075H20.0336C21.3292 72.7075 22.3707 73.7572 22.3707 75.0446C22.3707 76.3321 21.321 77.3817 20.0336 77.3817H4.68243V107.026C4.68243 108.314 3.63278 109.363 2.33711 109.363Z" fill="#00638C"/>
</svg>
