<svg width="28" height="28" viewBox="0 0 28 28" fill="none" xmlns="http://www.w3.org/2000/svg">
<path d="M13.875 0C21.4691 0 27.625 6.15588 27.625 13.75C27.625 21.3441 21.4691 27.5 13.875 27.5C11.4451 27.5042 9.05782 26.8611 6.95877 25.6369L0.130521 27.5L1.98952 20.669C0.764339 18.5693 0.120763 16.181 0.125021 13.75C0.125021 6.15588 6.2809 0 13.875 0ZM9.18902 7.2875L8.91402 7.2985C8.73622 7.31075 8.5625 7.35745 8.40252 7.436C8.25344 7.52058 8.11729 7.62616 7.99827 7.7495C7.83327 7.90488 7.73977 8.03963 7.6394 8.17025C7.13081 8.83149 6.85698 9.64331 6.86115 10.4775C6.8639 11.1512 7.0399 11.8071 7.3149 12.4204C7.87727 13.6606 8.80265 14.9737 10.0236 16.1906C10.3179 16.4835 10.6066 16.7778 10.9174 17.0514C12.4346 18.3871 14.2425 19.3503 16.1974 19.8646L16.9784 19.9843C17.2328 19.998 17.4871 19.9788 17.7429 19.9664C18.1433 19.9453 18.5342 19.8369 18.8883 19.6488C19.0682 19.5557 19.2439 19.4548 19.4149 19.3462C19.4149 19.3462 19.4731 19.3068 19.5868 19.2225C19.7724 19.085 19.8865 18.9874 20.0405 18.8265C20.156 18.7073 20.2523 18.5689 20.3293 18.4113C20.4365 18.1871 20.5438 17.7595 20.5878 17.4034C20.6208 17.1311 20.6111 16.9826 20.607 16.8905C20.6015 16.7434 20.4791 16.5907 20.3458 16.5261L19.5455 16.1672C19.5455 16.1672 18.3493 15.6461 17.6178 15.3134C17.5412 15.28 17.4592 15.2609 17.3758 15.257C17.2817 15.2472 17.1866 15.2577 17.0969 15.2878C17.0072 15.3179 16.9251 15.367 16.856 15.4316C16.8491 15.4289 16.757 15.5073 15.7629 16.7118C15.7058 16.7884 15.6272 16.8464 15.5371 16.8782C15.447 16.91 15.3495 16.9143 15.2569 16.8905C15.1673 16.8666 15.0795 16.8363 14.9943 16.7998C14.8238 16.7283 14.7646 16.7008 14.6478 16.6512C13.8583 16.3074 13.1276 15.842 12.4821 15.2721C12.3089 15.1209 12.148 14.9559 11.983 14.7964C11.4421 14.2783 10.9707 13.6922 10.5805 13.0529L10.4994 12.9222C10.442 12.834 10.3949 12.7394 10.3591 12.6404C10.3069 12.4382 10.443 12.276 10.443 12.276C10.443 12.276 10.7771 11.9102 10.9325 11.7122C11.0838 11.5197 11.2116 11.3328 11.2941 11.1994C11.4564 10.9381 11.5073 10.67 11.422 10.4624C11.037 9.52188 10.6392 8.58642 10.2285 7.656C10.1474 7.47175 9.90677 7.33975 9.68815 7.31362C9.6139 7.30446 9.53965 7.29712 9.4654 7.29163C9.28077 7.28104 9.09565 7.28287 8.91127 7.29713L9.18902 7.2875Z" fill="white"/>
</svg>
