<svg width="124" height="119" viewBox="0 0 124 119" fill="none" xmlns="http://www.w3.org/2000/svg">
<path d="M61.66 2.5C28.99 2.5 2.5 24.38 2.5 51.37C2.64 58.09 4.28 64.69 7.31 70.69C10.34 76.69 14.67 81.94 19.99 86.04L7.64 115.67L40.42 96.94C47.29 99.13 54.45 100.24 61.65 100.24C94.32 100.24 120.81 78.36 120.81 51.37C120.81 24.38 94.33 2.5 61.66 2.5Z" fill="#9FEAFF"/>
<path d="M61.66 23.08C72.93 22.78 84.12 25.07 94.38 29.76C104.63 34.45 113.68 41.43 120.82 50.16C120.02 23.73 93.84 2.5 61.66 2.5C29.48 2.5 3.29 23.73 2.5 50.16C9.64 41.43 18.69 34.45 28.94 29.76C39.19 25.07 50.38 22.78 61.66 23.08Z" fill="#DFF9FF"/>
<path d="M7.64 118.17C7.04 118.17 6.45 117.96 5.98 117.54C5.18 116.83 4.92 115.69 5.33 114.7L16.95 86.81C12.04 82.68 7.95 77.53 5.06 71.81C1.9 65.52 0.14 58.47 0 51.42C0 23.04 27.66 0 61.66 0C95.66 0 123.32 23.04 123.32 51.37C123.32 79.7 95.66 102.74 61.66 102.74C54.55 102.74 47.51 101.7 40.72 99.65L8.88 117.84C8.5 118.06 8.07 118.17 7.64 118.17ZM61.66 5C30.42 5 5 25.8 5 51.37C5.13 57.63 6.7 63.94 9.54 69.57C12.38 75.2 16.52 80.21 21.52 84.07C22.42 84.76 22.74 85.97 22.3 87.01L12.78 109.86L39.19 94.77C39.8 94.42 40.52 94.35 41.19 94.56C47.82 96.67 54.71 97.74 61.67 97.74C92.91 97.74 118.33 76.94 118.33 51.37C118.31 25.8 92.9 5 61.66 5Z" fill="#00638C"/>
<path d="M61.6602 61.5901C60.2802 61.5901 59.1602 60.4701 59.1602 59.0901V23.0801C59.1602 21.7001 60.2802 20.5801 61.6602 20.5801C63.0402 20.5801 64.1602 21.7001 64.1602 23.0801V59.0901C64.1602 60.4701 63.0402 61.5901 61.6602 61.5901Z" fill="#00638C"/>
<path d="M61.6602 68.9399C62.2502 68.9399 62.8302 69.1199 63.3302 69.4499C63.8202 69.7799 64.2102 70.2499 64.4402 70.7999C64.6702 71.3499 64.7302 71.9499 64.6102 72.5299C64.4902 73.1099 64.2102 73.6499 63.7902 74.0699C63.3702 74.4899 62.8402 74.7799 62.2502 74.8899C61.6702 75.0099 61.0602 74.9499 60.5202 74.7199C59.9702 74.4899 59.5002 74.1099 59.1702 73.6099C58.8402 73.1199 58.6602 72.5399 58.6602 71.9399C58.6602 71.1399 58.9802 70.3799 59.5402 69.8199C60.1002 69.2599 60.8602 68.9399 61.6602 68.9399Z" fill="#00638C"/>
</svg>
