<svg width="27" height="20" viewBox="0 0 27 20" fill="none" xmlns="http://www.w3.org/2000/svg">
<path d="M25.667 0H1.66699C1.40178 0 1.14742 0.105357 0.959885 0.292893C0.772349 0.48043 0.666992 0.734784 0.666992 1V18C0.666992 18.5304 0.877706 19.0391 1.25278 19.4142C1.62785 19.7893 2.13656 20 2.66699 20H24.667C25.1974 20 25.7061 19.7893 26.0812 19.4142C26.4563 19.0391 26.667 18.5304 26.667 18V1C26.667 0.734784 26.5616 0.48043 26.3741 0.292893C26.1866 0.105357 25.9322 0 25.667 0ZM13.667 10.6437L4.23824 2H23.0957L13.667 10.6437ZM10.0057 10L2.66699 16.7262V3.27375L10.0057 10ZM11.4857 11.3563L12.9857 12.7375C13.1702 12.9069 13.4116 13.0008 13.662 13.0008C13.9124 13.0008 14.1538 12.9069 14.3382 12.7375L15.8382 11.3563L23.0882 18H4.23824L11.4857 11.3563ZM17.3282 10L24.667 3.2725V16.7275L17.3282 10Z" fill="#00638C"/>
</svg>