<svg width="19" height="28" viewBox="0 0 19 28" fill="none" xmlns="http://www.w3.org/2000/svg">
<path d="M15.667 0H3.66699C2.87134 0 2.10828 0.316071 1.54567 0.87868C0.983063 1.44129 0.666992 2.20435 0.666992 3V25C0.666992 25.7956 0.983063 26.5587 1.54567 27.1213C2.10828 27.6839 2.87134 28 3.66699 28H15.667C16.4626 28 17.2257 27.6839 17.7883 27.1213C18.3509 26.5587 18.667 25.7956 18.667 25V3C18.667 2.20435 18.3509 1.44129 17.7883 0.87868C17.2257 0.316071 16.4626 0 15.667 0ZM2.66699 6H16.667V22H2.66699V6ZM3.66699 2H15.667C15.9322 2 16.1866 2.10536 16.3741 2.29289C16.5616 2.48043 16.667 2.73478 16.667 3V4H2.66699V3C2.66699 2.73478 2.77235 2.48043 2.95989 2.29289C3.14742 2.10536 3.40178 2 3.66699 2ZM15.667 26H3.66699C3.40178 26 3.14742 25.8946 2.95989 25.7071C2.77235 25.5196 2.66699 25.2652 2.66699 25V24H16.667V25C16.667 25.2652 16.5616 25.5196 16.3741 25.7071C16.1866 25.8946 15.9322 26 15.667 26Z" fill="#00638C"/>
</svg>