<svg width="23" height="28" viewBox="0 0 23 28" fill="none" xmlns="http://www.w3.org/2000/svg">
<path d="M11.667 6C10.6781 6 9.71139 6.29325 8.88914 6.84265C8.0669 7.39206 7.42603 8.17295 7.04759 9.08658C6.66916 10.0002 6.57014 11.0055 6.76307 11.9755C6.95599 12.9454 7.4322 13.8363 8.13146 14.5355C8.83072 15.2348 9.72164 15.711 10.6915 15.9039C11.6614 16.0969 12.6668 15.9978 13.5804 15.6194C14.494 15.241 15.2749 14.6001 15.8243 13.7779C16.3737 12.9556 16.667 11.9889 16.667 11C16.667 9.67392 16.1402 8.40215 15.2025 7.46447C14.2648 6.52678 12.9931 6 11.667 6ZM11.667 14C11.0736 14 10.4936 13.8241 10.0003 13.4944C9.50693 13.1648 9.12242 12.6962 8.89535 12.1481C8.66829 11.5999 8.60888 10.9967 8.72464 10.4147C8.84039 9.83279 9.12611 9.29824 9.54567 8.87868C9.96523 8.45912 10.4998 8.1734 11.0817 8.05764C11.6637 7.94189 12.2669 8.0013 12.815 8.22836C13.3632 8.45542 13.8318 8.83994 14.1614 9.33329C14.491 9.82664 14.667 10.4067 14.667 11C14.667 11.7956 14.3509 12.5587 13.7883 13.1213C13.2257 13.6839 12.4626 14 11.667 14ZM11.667 0C8.75063 0.00330842 5.95465 1.1633 3.89247 3.22548C1.83029 5.28766 0.670301 8.08363 0.666992 11C0.666992 14.925 2.48074 19.085 5.91699 23.0312C7.46102 24.8145 9.19881 26.4202 11.0982 27.8188C11.2664 27.9365 11.4667 27.9997 11.672 27.9997C11.8773 27.9997 12.0776 27.9365 12.2457 27.8188C14.1417 26.4196 15.8761 24.8139 17.417 23.0312C20.8482 19.085 22.667 14.925 22.667 11C22.6637 8.08363 21.5037 5.28766 19.4415 3.22548C17.3793 1.1633 14.5834 0.00330842 11.667 0ZM11.667 25.75C9.60074 24.125 2.66699 18.1562 2.66699 11C2.66699 8.61305 3.6152 6.32387 5.30303 4.63604C6.99086 2.94821 9.28004 2 11.667 2C14.0539 2 16.3431 2.94821 18.031 4.63604C19.7188 6.32387 20.667 8.61305 20.667 11C20.667 18.1537 13.7332 24.125 11.667 25.75Z" fill="#00638C"/>
</svg>
